if (_typeface_js && _typeface_js.loadFace) _typeface_js.loadFace({"glyphs":{"¦":{"x_min":127,"x_max":233,"ha":276,"o":"m 233 1011 l 233 475 l 127 475 l 127 1011 l 233 1011 m 233 244 l 233 -292 l 127 -292 l 127 244 l 233 244 "},"е":{"x_min":26,"x_max":618,"ha":623,"o":"m 55 932 q 227 773 164 876 l 341 773 l 341 675 l 267 675 q 309 480 306 577 q 149 364 195 437 q 141 677 162 571 l 26 677 l 26 775 l 124 775 q 55 932 116 823 m 374 466 q 546 396 475 466 q 618 230 618 327 q 546 64 618 133 q 374 -5 475 -5 q 202 64 273 -5 q 131 230 131 133 q 202 396 131 327 q 374 466 273 466 m 374 345 q 290 313 324 345 q 256 230 256 281 q 288 147 256 177 q 374 117 320 117 q 458 148 424 117 q 493 230 493 179 q 459 314 493 284 q 374 345 426 345 "},"Κ":{"x_min":102.21875,"x_max":933.046875,"ha":924,"o":"m 437 1035 q 511 1007 481 1035 q 541 939 541 978 q 511 870 541 899 q 437 842 481 842 q 366 870 395 842 q 336 939 336 899 q 366 1007 336 978 q 437 1035 395 1035 m 368 824 l 506 824 l 506 613 l 368 484 q 368 824 374 826 m 827 879 l 923 766 l 385 300 q 263 269 315 269 q 168 297 214 269 q 102 426 102 339 q 252 591 102 591 q 297 587 266 591 q 344 583 328 583 l 344 458 q 277 474 302 474 q 227 438 227 474 q 269 396 227 396 q 353 435 306 396 q 827 879 389 465 m 368 1 l 505 1 l 506 381 q 448 326 477 354 q 367 269 404 287 q 368 132 366 269 q 368 1 368 67 m 840 -25 l 933 65 l 571 436 l 530 410 l 530 287 l 840 -25 "},"e":{"x_min":61.71875,"x_max":704.28125,"ha":757,"o":"m 364 980 l 375 979 q 564 912 499 975 q 670 790 636 876 q 699 678 701 717 l 698 641 l 700 628 q 661 512 686 552 l 652 497 q 704 288 708 402 q 676 183 702 252 q 659 146 672 183 q 596 79 623 99 q 434 4 543 29 l 432 6 l 430 6 q 382 0 422 2 q 276 20 276 15 q 139 126 224 37 q 77 303 74 219 l 78 316 q 91 399 80 382 l 88 401 l 88 404 q 131 495 103 447 q 110 529 132 501 q 84 588 88 564 q 69 663 74 600 l 71 713 q 126 846 83 793 q 295 965 221 950 q 364 980 316 972 m 201 698 q 220 593 198 617 l 273 623 q 392 648 334 650 l 394 648 q 554 601 469 645 l 555 601 q 570 646 560 604 l 569 657 l 570 656 l 569 659 l 569 666 q 467 836 573 769 l 434 849 l 431 847 l 392 852 q 280 823 354 853 q 216 743 227 779 q 201 698 208 744 m 303 501 q 385 474 354 475 q 482 499 426 472 l 482 500 q 419 522 450 521 l 396 523 l 387 526 q 306 506 330 521 l 303 505 l 303 501 m 394 353 l 385 354 q 274 377 355 354 q 238 394 274 381 l 215 417 q 196 341 197 387 l 197 317 l 194 317 q 224 218 198 267 q 350 135 284 138 l 363 132 l 363 130 l 364 132 l 375 130 l 413 128 q 494 161 469 142 q 558 230 540 189 q 578 308 565 230 l 578 325 q 562 411 580 368 l 560 411 q 394 353 484 350 m 66 1148 l 695 1148 l 695 1246 l 61 1246 l 66 1148 "},"ό":{"x_min":46.5625,"x_max":1067.96875,"ha":740,"o":"m 555 1022 q 919 872 770 1022 q 1067 510 1067 722 q 918 150 1067 299 q 555 1 768 1 q 196 150 345 1 q 46 510 46 299 q 194 872 46 722 q 555 1022 342 1022 m 555 882 q 294 774 401 882 q 186 512 186 666 q 294 250 186 358 q 555 142 401 142 q 817 250 709 142 q 925 512 925 358 q 818 774 925 666 q 555 882 710 882 m 292 810 l 382 1000 l 542 1000 l 393 810 l 292 810 "},"»":{"x_min":95,"x_max":676.234375,"ha":699,"o":"m 536 358 l 359 667 l 459 667 l 676 358 l 459 49 l 360 49 l 536 358 m 274 358 l 95 667 l 197 667 l 410 358 l 197 49 l 95 49 l 274 358 "},"Ѓ":{"x_min":113.875,"x_max":1077.390625,"ha":787,"o":"m 115 780 q 136 869 108 780 q 224 1033 167 971 q 430 1116 305 1120 q 629 1100 548 1112 q 738 1089 701 1089 q 780 1091 757 1089 q 920 1119 839 1094 q 1077 1190 1009 1148 q 931 1042 1019 1111 q 696 947 803 941 q 538 961 599 950 q 457 968 493 970 q 308 945 357 963 q 115 780 206 905 m 749 904 q 646 885 749 916 q 451 769 528 849 q 334 472 343 655 q 300 139 325 254 q 241 -4 279 41 q 160 -63 220 -29 q 384 31 289 -50 q 525 424 535 161 q 578 707 519 581 q 690 860 620 796 q 749 904 719 882 m 381 1056 l 471 1246 l 631 1246 l 482 1056 l 381 1056 "},"ў":{"x_min":22.75,"x_max":534.140625,"ha":691,"o":"m 39 980 q 186 852 64 976 q 261 762 261 770 q 321 683 272 755 q 346 642 321 679 q 380 516 380 552 l 382 511 l 380 511 q 386 461 383 507 l 385 452 l 385 448 q 339 277 385 373 q 317 242 322 246 l 315 242 q 304 265 312 243 q 276 335 302 265 l 275 342 q 298 452 291 387 l 298 464 l 300 465 l 298 467 l 300 494 q 281 602 300 529 l 264 646 l 248 678 q 233 710 233 703 l 213 744 q 186 787 209 745 q 113 884 142 849 q 96 908 113 891 q 34 976 87 927 l 34 977 q 39 980 34 980 m 504 974 l 508 969 l 508 967 q 482 942 508 965 q 348 779 363 814 l 308 722 l 306 722 q 294 744 303 722 l 276 765 l 276 768 q 367 863 289 793 q 504 974 488 974 m 222 701 l 224 701 q 229 691 229 701 q 266 603 244 676 q 243 514 243 560 l 241 505 l 239 505 l 241 495 l 241 476 q 272 314 241 393 q 287 271 272 303 q 354 139 310 208 q 416 56 396 77 q 492 -25 439 23 l 492 -28 l 481 -28 q 387 35 443 -12 q 321 103 343 75 q 249 197 278 151 q 190 311 220 246 q 159 442 170 365 l 156 455 l 157 455 l 156 457 q 172 594 156 537 q 222 701 192 668 m 215 212 l 244 166 q 252 152 252 159 q 215 112 249 152 q 29 -28 93 -3 l 26 -22 q 64 12 26 -19 q 161 130 138 86 q 211 208 189 165 l 215 212 m 28 1238 l 534 1238 l 534 1131 l 22 1131 l 28 1238 m 434 993 l 517 993 q 317 817 496 817 q 117 993 138 817 l 200 993 q 313 901 219 901 q 434 993 416 901 "},"ò":{"x_min":46.5625,"x_max":1067.96875,"ha":737,"o":"m 555 1022 q 919 872 770 1022 q 1067 510 1067 722 q 918 150 1067 299 q 555 1 768 1 q 196 150 345 1 q 46 510 46 299 q 194 872 46 722 q 555 1022 342 1022 m 555 882 q 294 774 401 882 q 186 512 186 666 q 294 250 186 358 q 555 142 401 142 q 817 250 709 142 q 925 512 925 358 q 818 774 925 666 q 555 882 710 882 m 185 981 q 368 813 302 922 l 375 788 l 393 756 l 410 709 q 454 505 450 606 q 286 382 334 459 q 277 712 299 600 l 276 734 l 264 782 l 259 815 q 185 981 251 866 m 523 490 q 705 417 629 490 q 780 240 780 343 q 705 64 780 137 q 523 -8 629 -8 q 341 64 417 -8 q 265 240 265 137 q 341 417 265 343 q 523 490 417 490 m 523 362 q 434 328 470 362 q 398 240 398 294 q 432 153 398 185 q 523 120 466 120 q 611 153 575 120 q 647 240 647 187 q 613 329 647 297 q 523 362 578 362 m 158 1124 l 794 1124 l 794 1245 l 158 1245 l 158 1124 "},"^":{"x_min":36,"x_max":614.515625,"ha":640,"o":"m 161 468 l 36 468 l 275 1011 l 373 1011 l 614 468 l 491 468 l 324 872 l 161 468 "},"«":{"x_min":91,"x_max":672.25,"ha":699,"o":"m 230 358 l 406 49 l 307 49 l 91 358 l 307 667 l 407 667 l 230 358 m 493 358 l 672 49 l 569 49 l 356 358 l 569 667 l 672 667 l 493 358 "},"∙":{"x_min":125,"x_max":264,"ha":309,"o":"m 125 420 l 125 559 l 264 559 l 264 420 l 125 420 "},"к":{"x_min":42,"x_max":785.328125,"ha":794,"o":"m 342 926 q 408 900 381 926 q 435 839 435 875 q 408 778 435 803 q 342 753 381 753 q 277 778 304 753 q 251 839 251 803 q 277 900 251 875 q 342 926 304 926 m 280 737 l 402 737 l 402 548 l 280 433 q 280 737 284 739 m 691 786 l 776 685 l 295 268 q 186 241 233 241 q 102 266 142 241 q 42 380 42 303 q 175 528 42 528 q 216 524 188 528 q 258 521 244 521 l 258 409 q 199 423 220 423 q 154 391 154 423 q 191 354 154 354 q 266 388 224 354 q 691 786 299 415 m 280 0 l 402 0 l 402 341 q 351 290 376 316 q 279 240 312 255 q 280 118 278 240 q 280 0 280 59 m 702 -23 l 785 57 l 460 389 l 425 366 l 425 255 l 702 -23 "},"í":{"x_min":128.1875,"x_max":378.453125,"ha":397,"o":"m 134 0 l 134 720 l 256 720 l 256 0 l 134 0 m 128 809 l 218 999 l 378 999 l 229 809 l 128 809 "},"µ":{"x_min":108,"x_max":690,"ha":735,"o":"m 690 720 l 690 0 l 581 0 l 581 85 q 511 10 545 31 q 400 -17 463 -17 q 300 5 344 -17 q 229 72 268 22 l 229 -276 l 108 -276 l 108 720 l 229 720 l 229 415 q 233 257 229 290 q 304 122 247 162 q 395 94 343 94 q 491 122 447 94 q 552 201 534 151 q 570 413 570 247 l 570 720 l 690 720 "},"Ι":{"x_min":129.984375,"x_max":369.390625,"ha":305,"o":"m 332 1 l 167 1 l 167 737 l 332 737 l 332 1 m 243 1025 q 326 991 292 1025 q 359 911 359 958 q 326 832 359 864 q 243 799 292 799 q 163 832 197 799 q 129 911 129 864 q 163 991 129 958 q 243 1025 196 1025 m 243 997 q 185 973 209 997 q 161 915 161 950 q 185 857 161 881 q 243 832 209 832 q 303 857 279 832 q 328 915 328 881 q 303 973 328 950 q 243 997 279 997 m 134 1139 l 369 1139 l 369 1247 l 131 1247 l 134 1139 "},"’":{"x_min":73,"x_max":215,"ha":258,"o":"m 84 862 l 84 1004 l 215 1004 l 215 892 q 193 761 215 801 q 102 679 164 706 l 73 726 q 147 862 143 755 l 84 862 "},"Ν":{"x_min":105.90625,"x_max":965.890625,"ha":933,"o":"m 420 507 l 514 387 q 373 199 504 387 q 238 0 251 23 q 105 89 169 45 q 267 299 185 194 q 420 507 423 505 m 542 648 l 624 542 q 761 817 761 718 q 651 979 761 918 q 532 1005 603 1005 q 371 940 417 1005 q 320 776 320 869 q 388 577 320 672 q 676 208 474 458 q 843 0 760 105 q 845 0 843 0 q 904 42 850 0 q 965 90 961 87 q 487 685 670 427 q 455 768 455 728 q 477 843 455 803 q 545 878 507 878 q 598 853 573 878 q 617 765 624 826 q 542 648 613 739 "},"-":{"x_min":44,"x_max":419,"ha":463,"o":"m 44 298 l 44 421 l 419 421 l 419 298 l 44 298 "},"Q":{"x_min":69.171875,"x_max":704.671875,"ha":780,"o":"m 426 1236 q 482 1161 480 1238 q 552 1051 520 1081 q 673 999 594 1020 q 704 990 704 999 q 684 982 703 983 q 458 1062 552 978 q 387 1183 389 1121 l 387 1196 q 426 1236 385 1223 m 236 987 l 267 986 l 294 987 l 347 986 l 350 988 l 363 987 l 389 988 l 401 985 l 400 959 l 403 947 l 400 931 l 402 899 l 400 896 l 402 893 l 400 827 l 402 815 l 402 677 l 400 670 l 402 667 l 400 613 l 402 598 l 398 590 l 400 578 l 401 552 l 398 550 l 401 547 q 395 512 400 512 q 355 558 365 541 q 288 630 350 558 q 233 689 238 678 l 235 870 l 237 872 l 240 872 l 234 888 l 237 891 l 234 897 l 235 933 l 232 946 l 234 961 l 234 971 l 229 980 l 229 984 l 236 987 m 145 739 l 151 739 l 248 636 l 554 328 l 554 326 l 483 260 l 475 260 l 413 319 l 413 357 l 411 415 l 415 461 q 407 472 408 461 l 401 471 l 397 466 l 398 430 l 396 417 l 398 402 l 400 381 l 398 366 l 400 359 l 398 346 l 401 318 q 400 149 405 149 l 403 135 l 403 130 l 400 127 l 403 124 l 402 20 l 400 20 l 402 18 l 402 7 l 398 3 l 392 2 l 347 4 l 341 3 l 341 1 l 316 2 l 240 0 l 234 5 l 234 7 l 237 10 l 234 12 l 234 14 l 237 78 l 234 81 l 238 137 l 235 139 l 236 170 l 234 233 l 237 236 l 234 239 l 235 269 l 234 295 q 237 373 232 359 l 234 381 l 235 427 l 232 437 l 234 440 l 234 442 l 231 444 l 231 447 q 239 465 234 465 q 316 435 271 434 q 389 483 389 459 l 383 488 l 358 470 l 316 453 l 305 453 l 303 455 l 301 453 l 298 453 q 238 493 239 472 l 240 493 l 69 663 l 69 668 l 125 721 l 145 739 "},"Ш":{"x_min":54.265625,"x_max":885.078125,"ha":910,"o":"m 885 1016 l 725 1016 l 725 443 l 560 443 l 560 710 l 394 710 l 394 443 l 208 443 l 208 1017 l 54 1017 l 54 298 l 396 298 l 396 0 l 560 0 l 560 295 l 885 295 l 885 1016 "},"M":{"x_min":60.671875,"x_max":858.78125,"ha":935,"o":"m 223 626 l 131 592 q 103 533 108 547 q 75 429 84 482 q 65 323 65 377 q 125 105 65 193 q 288 6 189 11 q 423 33 385 0 q 406 43 417 33 q 383 67 396 53 q 359 96 370 80 q 339 124 347 111 q 322 115 329 119 q 303 114 315 111 q 249 141 271 120 q 212 190 227 161 q 188 257 196 220 q 181 333 181 295 q 191 391 181 347 q 218 482 202 435 q 249 565 233 529 q 276 602 265 602 l 223 626 m 685 621 l 791 657 q 815 710 810 695 q 853 918 853 812 q 793 1136 853 1047 q 630 1235 729 1230 q 495 1207 533 1241 q 507 1203 495 1217 q 534 1171 518 1190 q 566 1137 550 1152 q 592 1126 583 1121 q 615 1128 600 1131 q 707 1051 676 1112 q 738 907 738 989 q 692 737 738 843 q 643 640 649 640 l 685 621 m 791 657 q 807 621 791 662 q 858 396 855 511 q 791 147 862 261 q 567 13 708 11 q 404 78 472 13 q 368 124 386 96 q 335 182 349 151 q 312 241 321 212 q 303 293 303 270 q 339 424 309 375 q 459 491 377 491 q 581 429 539 491 q 608 378 597 408 q 621 317 618 348 q 621 253 625 285 q 602 197 617 221 q 583 172 595 185 q 553 144 571 159 q 497 166 507 156 q 481 180 491 172 q 461 200 472 189 q 524 297 524 246 q 520 330 524 312 q 510 362 517 347 q 492 387 502 377 q 466 396 481 396 q 402 292 406 396 q 412 232 399 262 q 448 178 425 202 q 502 140 471 155 q 565 125 533 125 q 692 229 642 125 q 724 312 714 273 q 733 388 733 351 q 726 446 733 408 q 708 522 718 484 q 687 587 698 559 q 666 614 676 614 l 738 640 q 791 657 776 628 m 131 592 l 128 592 q 116 614 123 598 q 102 649 109 630 q 89 687 95 668 q 80 720 83 706 q 66 787 71 753 q 61 854 61 822 q 75 984 58 922 q 128 1103 92 1047 q 351 1237 210 1239 q 514 1171 448 1237 q 551 1126 533 1153 q 583 1069 569 1100 q 606 1009 597 1038 q 615 955 615 980 q 579 826 609 874 q 459 757 539 757 q 337 821 381 757 q 311 872 322 843 q 297 933 301 901 q 298 996 293 965 q 316 1051 302 1027 q 366 1104 332 1079 q 401 1095 388 1100 q 422 1084 413 1090 q 437 1070 430 1078 q 457 1050 444 1062 q 394 953 394 1003 q 398 919 394 937 q 409 886 402 901 q 427 862 416 871 q 452 852 438 852 q 517 958 511 852 q 506 1019 519 989 q 469 1072 493 1048 q 416 1110 446 1096 q 354 1125 386 1125 q 226 1020 276 1125 q 195 937 204 977 q 185 860 185 897 q 192 804 185 841 q 210 729 200 767 q 231 664 220 692 q 252 636 243 636 l 223 626 l 198 607 q 131 592 143 619 m 246 637 l 263 606 l 229 626 l 200 606 l 181 606 l 246 637 m 650 639 l 670 617 l 685 623 l 650 639 m 790 655 l 785 649 l 774 639 l 762 637 l 744 639 l 790 655 "},"ј":{"x_min":-63.28125,"x_max":1242.96875,"ha":254,"o":"m 1242 574 l 1242 551 q 1192 411 1242 486 q 1102 339 1127 339 q 1029 313 1097 327 q 971 308 1008 308 q 897 324 943 308 q 802 385 860 333 q 740 489 759 430 l 736 489 q 591 438 669 438 q 514 473 518 443 l 517 473 l 513 486 l 514 489 l 502 567 l 498 567 l 498 562 l 511 457 l 509 457 q 514 360 513 457 l 511 307 l 509 307 l 511 305 q 482 155 511 262 q 404 -2 465 99 q 379 -35 398 -4 l 371 -42 l 367 -37 q 398 59 382 -7 q 414 208 407 105 l 412 214 l 414 231 l 414 256 l 412 264 l 414 265 l 412 275 q 398 396 412 326 l 395 396 q 188 299 311 299 q 57 339 125 299 q -49 473 -19 388 l -60 520 l -58 520 q -63 541 -63 529 l -63 549 l -60 570 l -63 572 l -63 574 q -34 670 -55 630 q 12 733 -17 704 q 110 802 67 791 q 216 821 156 821 q 334 777 265 821 l 345 767 l 361 828 q 395 901 375 868 q 522 1003 446 975 q 609 1012 558 1012 l 613 1012 l 624 1013 q 721 976 692 1001 q 831 823 796 927 q 842 777 834 817 l 843 777 q 906 812 843 789 q 987 826 926 820 l 999 824 l 1000 826 l 1002 826 l 1065 815 l 1101 800 q 1121 789 1101 797 q 1192 719 1158 762 q 1242 574 1242 651 m 992 702 q 931 695 956 702 q 871 634 879 662 q 855 558 855 599 q 920 446 855 489 q 992 428 954 428 q 1080 469 1034 428 q 1114 572 1114 509 q 1080 658 1105 629 q 992 702 1030 702 m 619 884 l 617 882 l 609 884 q 522 849 568 884 l 498 813 q 479 704 479 770 q 517 604 482 657 q 583 572 557 572 l 594 572 q 669 605 623 572 q 715 721 715 654 q 694 821 715 763 q 624 882 665 872 l 619 884 m 193 698 l 186 696 l 178 698 q 96 639 115 676 q 71 548 71 596 q 101 458 81 476 q 186 413 144 413 l 209 413 q 263 432 249 421 q 320 543 320 480 q 290 647 320 609 q 193 698 258 698 m 243 548 l 239 543 l 237 545 l 237 548 l 241 551 l 243 549 l 243 548 "},"Ψ":{"x_min":86,"x_max":1074,"ha":1086,"o":"m 86 994 l 218 994 l 218 726 q 289 499 218 570 q 514 420 356 432 l 514 994 l 646 994 l 646 420 q 872 506 803 429 q 942 742 942 584 l 942 994 l 1074 994 l 1074 713 q 646 307 1074 313 l 646 0 l 514 0 l 514 307 q 86 701 86 314 l 86 994 "},"œ":{"x_min":55,"x_max":1258.875,"ha":1284,"o":"m 662 118 q 394 -16 558 -16 q 141 88 232 -16 q 55 351 55 187 q 215 692 55 603 q 395 737 296 737 q 548 703 478 737 q 662 598 623 666 q 926 737 757 737 q 1184 613 1097 737 q 1258 327 1260 505 l 727 327 q 782 157 729 224 q 941 85 841 85 q 1127 234 1083 85 l 1249 217 q 939 -16 1188 -16 q 662 118 751 -16 m 180 361 q 228 170 180 235 q 390 85 290 85 q 554 175 496 85 q 603 363 603 251 q 554 549 603 475 q 390 636 497 636 q 206 504 258 636 q 180 361 180 439 m 731 428 l 1129 428 q 1075 575 1122 520 q 933 636 1023 636 q 790 575 845 636 q 731 428 738 518 "},"{":{"x_min":68.5,"x_max":771.140625,"ha":811,"o":"m 324 1211 l 341 1211 q 439 1176 383 1211 q 459 1162 451 1162 l 494 1117 q 526 1056 520 1074 q 541 1005 541 1014 q 553 938 553 956 l 553 908 q 543 856 550 903 q 502 773 539 836 q 427 718 459 718 q 359 750 404 718 q 298 874 320 788 l 292 926 l 292 930 l 296 969 l 296 987 q 347 1091 316 1038 l 351 1091 q 355 1097 351 1097 l 368 1097 q 394 1074 394 1079 l 419 1046 q 390 977 390 990 l 378 940 l 378 922 q 402 844 384 870 q 423 830 414 830 q 459 893 442 830 l 463 920 l 463 965 l 459 981 l 459 995 q 443 1036 446 1013 q 394 1091 409 1085 q 384 1095 394 1095 q 339 1113 364 1113 l 320 1117 q 231 1079 288 1117 l 206 1048 l 178 989 q 160 856 164 940 l 160 844 q 180 736 160 769 q 292 549 191 697 q 406 392 326 506 q 529 166 522 230 q 533 151 533 166 l 533 119 q 508 54 527 83 q 417 1 459 1 q 406 -2 417 -2 l 382 -2 q 300 37 345 -2 q 263 109 265 80 l 263 158 q 308 276 263 197 q 335 311 332 311 l 386 237 l 362 186 q 353 135 353 165 q 396 88 362 88 q 435 137 422 88 l 435 149 q 330 331 435 204 l 223 472 q 90 701 128 600 q 70 797 70 747 l 68 809 l 68 850 q 92 999 75 964 l 111 1052 q 125 1081 111 1060 l 137 1105 q 182 1156 137 1112 q 241 1190 217 1184 q 324 1211 241 1203 m 543 1209 q 634 1176 583 1209 q 677 1144 654 1165 q 701 1115 682 1144 q 712 1099 707 1115 q 744 1036 720 1099 l 758 989 l 771 902 l 771 877 q 689 638 771 747 q 614 543 656 589 q 457 333 482 359 l 404 411 l 404 413 l 573 636 l 614 683 q 663 763 628 697 q 685 883 670 763 l 685 889 q 655 1013 668 1013 q 608 1081 651 1037 q 549 1113 569 1113 l 518 1107 l 518 1109 q 470 1166 472 1166 q 461 1178 461 1166 q 488 1197 461 1186 q 543 1209 488 1203 "},"¼":{"x_min":72,"x_max":1138,"ha":1147,"o":"m 170 -39 l 917 1011 l 1023 1011 l 277 -39 l 170 -39 m 224 497 l 224 872 q 72 796 154 817 l 72 879 q 248 1006 177 913 l 322 1006 l 322 497 l 224 497 m 969 -21 l 969 83 l 710 83 l 710 166 l 983 488 l 1067 488 l 1067 156 l 1138 156 l 1138 83 l 1067 83 l 1067 -21 l 969 -21 m 969 156 l 969 335 l 813 156 l 969 156 "},"#":{"x_min":61.671875,"x_max":763.671875,"ha":774,"o":"m 678 976 q 693 879 687 956 l 695 846 l 693 846 l 695 842 q 696 800 694 813 l 695 796 l 696 791 l 695 785 l 696 784 l 695 777 q 681 662 694 720 q 640 559 664 600 l 623 538 q 562 481 579 485 q 497 459 520 458 l 497 456 l 503 453 q 569 475 520 453 q 592 491 587 491 l 594 491 q 649 424 634 459 q 696 219 698 341 l 696 202 l 697 198 q 674 52 691 118 q 649 -11 657 -11 q 573 14 583 14 l 573 16 l 583 48 q 607 126 588 46 q 614 210 614 176 l 614 213 q 594 351 615 293 q 569 400 581 382 q 528 440 562 415 q 495 451 509 448 l 473 451 l 453 448 l 446 459 l 448 462 l 451 462 l 474 458 l 478 459 l 489 456 l 493 456 l 493 457 q 487 461 493 460 l 481 460 l 463 465 l 462 463 l 431 471 l 430 471 l 430 470 q 489 280 491 385 l 489 276 q 453 167 489 228 q 392 123 425 130 l 389 123 l 385 125 l 384 124 l 383 124 q 337 145 351 130 q 300 198 302 178 q 276 293 275 240 l 277 322 q 314 429 278 367 q 323 439 319 432 q 357 416 335 439 l 374 398 q 377 389 377 393 q 351 295 352 347 q 368 226 357 226 q 382 215 368 219 q 404 238 404 220 q 412 278 408 242 l 411 278 l 412 285 l 413 312 q 389 391 406 360 q 364 427 389 397 q 296 457 329 456 q 232 438 232 448 q 179 372 198 421 q 151 255 160 330 l 152 253 l 149 236 l 151 222 l 149 217 q 160 113 151 161 l 168 68 l 183 15 l 137 0 q 111 -10 120 -10 q 90 58 102 4 q 73 214 72 150 l 74 255 l 75 272 l 74 276 q 101 392 75 321 q 160 484 111 427 q 251 527 212 528 q 261 530 251 529 l 260 531 l 260 532 q 193 518 214 528 q 175 507 183 507 q 126 559 162 517 l 99 604 q 61 783 60 693 l 63 787 l 61 788 l 63 796 l 63 815 q 80 943 64 859 l 88 980 l 98 983 l 101 980 l 107 982 l 107 982 l 132 983 l 143 982 l 170 982 l 171 980 l 172 980 q 148 852 149 887 l 148 847 l 144 810 l 145 796 l 144 792 l 145 760 l 144 752 q 162 665 152 678 q 179 624 168 642 q 262 546 219 559 l 286 540 l 293 540 l 319 541 q 334 526 334 540 l 344 523 l 346 524 l 346 526 q 301 588 308 563 q 276 691 275 639 l 274 704 l 276 714 l 275 716 l 275 718 q 304 813 276 760 l 326 844 q 375 863 361 864 l 378 864 l 385 864 q 430 848 412 864 q 478 766 459 831 q 488 699 484 742 q 446 555 486 611 l 445 554 l 443 554 q 404 580 430 556 q 392 596 392 592 q 415 680 415 641 q 411 733 416 723 l 413 734 l 413 735 q 394 773 413 750 l 381 779 q 359 758 371 779 q 347 692 348 726 q 352 657 349 689 q 404 568 366 597 q 453 540 419 550 l 474 539 l 478 539 l 478 538 q 556 582 516 538 q 600 680 581 615 q 612 775 609 726 l 611 796 l 611 798 l 611 799 l 611 805 l 611 808 l 612 810 l 611 811 l 611 813 l 612 813 l 611 815 l 611 815 l 612 817 q 600 908 609 869 l 602 913 q 600 925 600 913 q 593 952 596 925 l 587 974 l 598 976 l 600 975 l 606 976 l 615 976 l 625 975 l 634 975 l 638 975 l 650 975 l 652 975 l 659 974 l 664 975 l 665 974 l 667 974 l 678 976 m 680 1223 l 680 1223 q 756 1177 728 1223 l 763 1143 q 748 1092 763 1121 q 722 1066 733 1071 q 703 1051 722 1062 q 670 1036 674 1036 l 667 1036 q 657 1062 657 1047 q 733 1143 733 1098 q 673 1190 724 1190 q 602 1161 633 1180 l 599 1158 q 581 1178 595 1158 q 680 1223 630 1223 "},"ι":{"x_min":93,"x_max":216,"ha":280,"o":"m 93 0 l 93 720 l 216 720 l 216 0 l 93 0 "},")":{"x_min":69.859375,"x_max":398.109375,"ha":452,"o":"m 157 -241 l 69 -241 q 272 500 272 128 q 179 1011 272 767 q 69 1242 151 1083 l 157 1242 q 398 501 398 876 q 157 -241 398 106 "},"ε":{"x_min":66,"x_max":587.546875,"ha":591,"o":"m 561 639 l 474 568 q 318 632 391 632 q 238 606 269 632 q 204 531 204 579 q 257 444 204 473 q 363 421 300 421 q 397 421 373 421 l 397 319 q 365 319 375 319 q 193 198 193 319 q 233 116 193 148 q 321 85 270 85 q 500 172 416 85 l 587 99 q 317 -16 479 -16 q 141 36 211 -16 q 66 198 66 94 q 185 372 66 321 q 86 528 86 429 q 157 684 86 627 q 325 737 223 737 q 561 639 465 737 "},"э":{"x_min":22,"x_max":516.4375,"ha":543,"o":"m 462 280 l 462 388 l 193 388 l 193 280 l 462 280 m 32 -170 q 154 -131 51 -172 q 388 17 298 -74 q 516 331 515 148 q 389 684 517 539 q 150 850 298 787 q 22 895 23 905 q 367 377 367 629 q 365 328 367 353 q 302 82 343 169 q 194 -52 266 6 q 32 -170 191 -55 "},"Å":{"x_min":-0.484375,"x_max":832.390625,"ha":918,"o":"m 373 295 l 373 -3 l 445 -3 l 445 295 l 373 295 m 253 122 l 559 122 l 559 191 l 253 191 l 253 122 m 708 7 q 767 48 713 7 q 832 94 828 91 q 359 689 555 417 q 331 758 331 728 q 352 817 331 784 q 405 847 376 847 q 460 821 434 847 q 479 736 486 795 q 429 636 477 712 l 514 521 q 603 761 603 638 q 520 940 603 878 q 422 964 487 964 q 314 948 367 964 q 242 909 261 931 q 200 769 200 859 q 254 603 200 675 q 708 7 457 338 m 390 388 l 307 495 q 156 290 310 494 q 0 83 78 186 q 116 8 -1 83 q 390 388 204 132 m 254 1085 q 289 1171 254 1135 q 376 1207 325 1207 q 462 1170 426 1207 q 498 1083 498 1134 q 462 995 498 1031 q 376 959 427 959 q 288 995 323 959 q 254 1085 254 1032 m 306 1084 q 326 1032 306 1054 q 377 1010 347 1010 q 428 1031 407 1010 q 449 1083 449 1053 q 428 1135 449 1113 q 377 1157 407 1157 q 326 1135 347 1157 q 306 1084 306 1114 "},"ш":{"x_min":54,"x_max":633.1875,"ha":686,"o":"m 633 737 l 521 737 l 521 320 l 405 320 l 405 520 l 296 520 l 296 320 l 169 320 l 169 737 l 54 737 l 54 211 l 297 211 l 297 1 l 405 1 l 405 211 l 633 211 l 633 737 "},"Я":{"x_min":48.984375,"x_max":917.796875,"ha":920,"o":"m 425 425 l 425 -3 l 523 -3 l 523 425 l 425 425 m 261 161 l 687 161 l 687 261 l 261 261 l 261 161 m 788 -9 q 851 34 793 -9 q 917 83 913 80 q 724 326 871 139 q 424 724 519 589 q 396 798 396 764 q 417 863 396 825 q 473 894 442 894 q 529 866 502 894 q 550 773 556 838 q 496 667 547 748 l 559 533 q 632 670 601 589 q 668 831 668 760 q 616 950 668 915 q 458 1011 529 1011 q 335 953 390 1011 q 261 781 261 874 q 315 632 261 705 q 788 -9 527 347 m 456 401 l 370 516 q 213 294 373 514 q 49 70 131 182 q 170 -10 47 70 q 456 401 263 124 "},"⋲":{"x_min":35,"x_max":728.8125,"ha":773,"o":"m 35 502 l 35 640 q 223 721 106 721 q 436 661 300 721 q 553 630 510 630 q 728 723 644 630 l 728 579 q 540 502 646 502 q 346 557 467 502 q 212 593 265 593 q 35 502 130 593 m 35 255 l 35 393 q 223 475 106 475 q 436 415 298 475 q 553 383 511 383 q 728 477 644 383 l 728 332 q 540 255 646 255 q 346 310 469 255 q 212 347 265 347 q 35 255 130 347 "},"¸":{"x_min":72,"x_max":366,"ha":342,"o":"m 145 -104 l 181 16 l 271 16 l 249 -56 q 328 -85 296 -62 q 366 -156 366 -113 q 297 -258 366 -224 q 169 -286 243 -286 q 72 -277 114 -286 l 79 -198 q 143 -201 123 -201 q 253 -149 253 -201 q 216 -111 253 -123 q 145 -104 195 -105 "},"a":{"x_min":70.53125,"x_max":829.46875,"ha":879,"o":"m 348 470 q 212 661 350 471 q 70 857 141 759 q 187 939 126 897 q 306 754 199 918 q 430 580 422 580 l 348 470 m 455 339 q 522 231 519 255 q 504 148 528 172 q 458 125 482 125 q 398 158 424 125 q 379 227 379 195 q 406 305 379 264 q 829 857 568 543 q 774 900 826 859 q 722 940 727 940 q 722 939 722 940 q 573 746 647 843 q 319 404 395 514 q 259 220 259 316 q 304 67 259 133 q 446 7 345 7 q 552 32 508 7 q 648 182 648 88 q 528 436 648 275 l 455 339 m 470 845 l 428 845 l 428 847 l 291 847 l 289 800 l 467 800 l 470 813 l 470 800 l 597 800 l 597 847 l 470 847 l 470 845 m 422 847 l 422 982 l 465 982 l 464 847 l 422 847 m 467 666 l 421 666 l 421 800 l 467 800 l 467 666 "},"=":{"x_min":77,"x_max":733.53125,"ha":732,"o":"m 733 585 l 77 585 l 77 699 l 733 699 l 733 585 m 733 283 l 77 283 l 77 397 l 733 397 l 733 283 "},"Ћ":{"x_min":67.828125,"x_max":537.15625,"ha":610,"o":"m 291 1227 q 434 1190 387 1227 q 535 985 535 1125 l 533 985 l 535 983 q 516 895 535 933 q 459 813 503 859 q 387 765 418 776 q 341 752 387 763 l 309 750 q 189 794 246 750 l 183 802 l 184 809 l 183 815 l 184 826 l 184 881 l 183 936 l 187 936 q 222 876 187 916 q 301 847 257 847 l 320 847 q 402 894 364 847 q 425 946 417 914 l 429 973 l 427 978 l 429 983 q 409 1056 429 1007 q 387 1087 393 1084 q 352 1110 374 1104 q 323 1119 352 1114 l 319 1118 l 314 1119 l 307 1118 l 302 1119 q 246 1103 262 1115 q 202 1064 213 1085 q 177 947 177 1028 l 177 877 l 174 876 l 177 871 l 174 857 l 177 856 l 174 845 l 174 752 l 173 738 l 174 731 l 173 731 l 174 729 l 173 711 l 173 659 q 163 649 173 649 l 155 649 l 141 650 l 135 649 q 128 652 128 649 l 120 650 l 72 650 l 69 653 l 69 743 l 70 748 l 69 754 l 70 765 l 69 771 l 70 782 l 69 798 l 70 800 l 69 811 l 69 832 l 70 916 l 72 918 l 72 920 l 70 926 l 70 940 l 72 946 l 70 947 l 72 959 q 111 1130 72 1076 q 141 1167 122 1148 q 238 1216 187 1207 l 291 1227 m 535 929 l 537 927 l 537 926 q 533 906 535 906 l 535 888 l 535 771 l 533 770 l 535 768 l 535 753 l 533 752 l 535 750 l 533 743 l 533 647 l 531 644 l 478 644 l 461 646 l 457 644 l 451 646 l 448 644 l 447 644 l 443 646 l 434 644 l 431 649 l 431 765 q 444 785 431 785 q 503 849 487 816 q 529 918 529 897 l 532 927 l 533 929 l 535 929 m 73 638 l 523 638 q 535 634 534 638 l 535 629 l 533 628 l 535 626 l 533 600 l 533 476 l 532 470 l 533 464 l 532 455 l 533 453 l 532 446 l 532 435 l 533 430 l 532 419 l 532 329 l 531 320 l 532 319 l 532 317 l 531 303 l 531 302 l 532 287 l 531 285 l 500 285 l 429 287 l 427 288 l 427 290 l 429 324 l 427 329 l 429 330 l 429 334 l 427 334 l 429 352 l 429 408 l 431 425 l 429 431 l 431 432 l 429 440 l 429 484 l 431 485 l 429 486 l 431 497 l 431 514 l 429 524 l 431 526 l 429 528 l 400 528 l 394 529 l 393 528 l 392 528 l 370 529 l 366 529 l 366 518 l 364 505 l 366 503 l 364 496 l 364 441 l 362 425 l 364 415 l 362 415 l 364 414 q 361 263 361 355 l 360 255 l 361 254 l 360 236 l 360 190 l 358 177 l 360 175 l 360 173 l 358 160 l 358 157 l 360 157 l 358 149 l 358 104 l 356 96 l 358 87 l 358 63 l 356 61 l 358 60 l 358 52 l 356 50 l 358 49 l 358 43 l 356 42 l 358 40 l 356 33 l 356 28 q 350 0 356 0 l 322 1 l 314 0 l 314 1 l 313 0 l 311 0 l 309 1 l 308 1 l 307 0 l 305 0 l 303 1 l 302 1 l 296 0 l 281 1 l 275 0 l 270 1 l 269 0 l 267 0 l 265 1 l 255 0 q 238 16 238 0 l 240 25 l 240 29 l 238 40 l 240 40 l 238 42 l 238 43 l 240 60 l 238 61 l 240 72 l 240 134 l 242 143 l 240 145 l 242 200 l 242 269 l 243 270 l 242 271 l 243 333 l 243 370 l 244 387 l 243 388 l 244 404 l 244 506 l 246 524 l 244 526 l 243 526 l 231 524 l 229 526 l 219 524 l 184 524 l 177 526 l 174 524 l 174 444 l 173 427 l 174 426 l 173 419 l 173 326 l 172 313 l 173 311 l 173 309 q 167 285 171 285 l 145 285 l 78 287 l 72 285 q 67 311 67 290 l 67 362 l 70 367 q 67 372 67 367 l 69 434 l 67 435 l 67 437 l 69 443 l 69 444 l 67 449 l 69 457 l 69 590 l 70 591 l 69 593 l 69 594 l 70 609 l 69 617 l 70 629 l 70 635 l 73 638 "},"ρ":{"x_min":89,"x_max":741,"ha":777,"o":"m 89 -276 l 89 335 q 404 737 89 737 q 654 626 562 737 q 741 361 741 523 q 662 99 741 203 q 423 -16 575 -16 q 212 68 289 -16 l 212 -276 l 89 -276 m 408 636 q 212 351 212 636 q 252 169 212 237 q 408 85 302 85 q 570 170 515 85 q 616 354 616 241 q 571 545 616 471 q 408 636 518 636 "},"˚":{"x_min":110,"x_max":354,"ha":393,"o":"m 110 907 q 145 993 110 957 q 232 1029 181 1029 q 318 992 282 1029 q 354 905 354 956 q 318 817 354 853 q 232 781 283 781 q 144 817 179 781 q 110 907 110 854 m 162 906 q 182 854 162 876 q 233 832 203 832 q 284 853 263 832 q 305 905 305 875 q 284 957 305 935 q 233 979 263 979 q 182 957 203 979 q 162 906 162 936 "},"ú":{"x_min":88.75,"x_max":973.15625,"ha":714,"o":"m 973 554 q 969 510 969 541 l 968 510 l 969 508 l 969 506 q 928 377 949 406 q 729 204 857 257 l 682 188 q 608 115 655 132 l 604 115 q 541 167 579 123 l 535 174 l 535 183 l 571 212 q 594 271 594 240 q 568 302 587 302 l 564 302 q 520 246 532 302 l 519 227 l 520 225 l 520 223 l 519 221 q 562 132 519 160 q 666 96 589 96 l 688 96 q 790 126 765 111 l 813 72 l 824 37 q 747 2 824 29 l 682 -6 l 675 -4 l 664 -4 l 657 -6 q 529 27 572 3 l 490 53 l 452 90 l 429 132 q 412 185 425 132 l 415 187 l 411 221 q 425 284 418 276 q 487 371 440 334 q 558 402 511 389 q 630 388 630 397 q 664 360 653 379 q 697 301 686 341 l 706 301 l 752 327 q 761 336 752 331 q 810 384 788 358 q 876 563 876 474 l 874 573 l 876 575 q 840 704 865 663 q 788 774 822 739 q 703 836 749 816 q 663 849 703 841 q 630 904 645 889 q 605 931 630 912 q 571 950 597 942 l 571 953 q 598 961 571 959 l 616 959 l 630 961 q 754 924 709 950 q 863 841 810 897 q 925 751 910 793 q 966 628 950 714 q 971 557 971 589 l 973 556 l 973 554 m 700 296 l 699 296 l 697 286 l 700 253 q 693 220 697 220 l 693 217 l 697 212 q 711 262 707 212 q 700 296 703 296 m 661 779 q 605 657 642 691 q 520 615 556 615 l 501 615 q 417 657 454 621 q 388 701 391 683 l 386 704 l 383 704 q 291 651 341 693 q 199 422 199 562 q 237 278 199 358 q 327 194 282 219 q 386 163 356 173 l 404 163 l 410 159 l 406 153 q 461 65 418 105 l 463 64 l 463 56 q 444 51 463 51 q 246 112 345 51 q 147 214 187 160 q 128 249 142 219 q 106 302 119 261 l 108 308 q 90 401 98 321 l 92 401 l 90 402 l 90 421 l 88 434 q 119 570 97 522 q 168 654 151 634 l 192 686 q 278 759 227 723 q 350 794 278 765 q 377 802 358 798 q 406 864 382 836 q 428 881 421 878 l 431 881 q 519 830 467 881 q 505 812 519 817 l 490 786 q 484 754 484 769 q 516 721 489 721 l 518 721 q 549 765 549 731 l 549 786 q 469 881 522 856 q 419 895 446 895 l 417 894 l 408 895 l 401 895 l 393 894 l 392 895 l 389 895 l 383 894 l 381 895 l 379 895 q 304 876 351 891 l 300 872 l 290 872 q 263 944 286 873 l 255 971 q 408 1001 341 1001 l 419 1001 q 526 971 488 992 q 610 907 547 966 q 661 779 661 838 m 381 727 l 383 727 l 375 765 l 377 765 l 375 767 l 377 788 l 377 793 l 374 793 l 374 794 q 361 779 361 790 q 374 709 361 747 q 385 714 383 709 l 381 727 m 116 1139 l 939 1139 l 939 1234 l 118 1234 l 116 1139 m 332 810 l 422 1000 l 582 1000 l 433 810 l 332 810 "},"д":{"x_min":49,"x_max":738.75,"ha":768,"o":"m 49 -1 l 49 231 q 124 229 56 231 q 213 227 193 227 q 227 227 230 227 q 221 227 225 227 q 226 227 221 227 q 289 183 239 211 q 368 139 325 162 q 268 121 333 131 q 176 115 235 118 l 176 -1 l 49 -1 m 202 107 q 301 112 223 105 q 395 133 356 120 q 501 110 423 124 q 584 103 568 103 q 399 87 426 87 q 202 107 383 87 m 737 -1 l 609 -1 l 609 112 q 128 488 148 130 q 202 667 121 595 q 399 736 284 739 q 601 658 525 732 q 673 482 675 587 q 622 316 671 381 q 546 246 601 286 l 426 286 q 533 480 533 383 q 482 585 533 548 q 403 613 444 613 q 333 596 371 613 q 266 495 266 564 q 462 257 267 319 q 738 223 541 232 l 737 -1 "},"¯":{"x_min":-21,"x_max":788.125,"ha":736,"o":"m -21 1062 l -21 1150 l 788 1150 l 788 1062 l -21 1062 "},"Z":{"x_min":27.8125,"x_max":714.171875,"ha":777,"o":"m 36 989 l 43 984 l 54 986 l 96 984 l 126 984 l 135 982 l 143 984 l 153 984 l 166 982 l 175 984 l 183 982 l 195 984 l 206 982 l 223 984 l 225 982 l 227 984 l 253 984 l 256 982 l 258 984 l 276 984 l 278 982 l 280 984 l 296 984 l 297 982 l 300 984 l 630 984 l 654 986 l 656 984 l 659 984 l 678 986 l 703 986 q 709 975 708 986 l 706 962 l 709 942 l 706 916 l 709 890 l 706 887 l 709 876 l 709 855 q 691 843 703 843 q 599 765 691 840 l 509 683 l 505 672 q 569 587 552 630 q 588 505 583 554 l 585 497 l 588 494 l 588 492 q 524 338 588 409 q 451 280 502 318 q 410 246 447 280 q 293 158 405 246 q 276 143 286 158 l 276 140 l 285 140 l 296 138 l 308 140 l 320 140 l 329 138 l 335 140 l 337 138 l 340 138 l 341 140 l 344 140 l 368 138 l 384 140 l 385 138 l 387 138 l 390 140 l 401 138 l 456 138 l 465 140 l 476 138 l 491 140 l 497 138 l 500 140 l 502 140 l 505 138 l 506 138 l 514 140 l 516 138 l 517 138 l 524 140 l 526 138 l 537 140 l 557 140 l 560 138 l 561 140 l 643 140 l 651 138 l 660 140 l 706 140 l 714 136 l 711 125 l 711 101 l 709 15 q 700 4 705 5 l 693 4 l 691 6 l 689 4 l 680 4 l 678 6 l 676 4 l 623 4 l 621 6 l 619 4 l 615 4 l 605 6 l 590 4 l 379 4 l 370 2 l 368 4 l 348 2 l 36 0 l 36 21 l 38 24 l 36 26 l 38 37 l 38 83 l 41 107 l 38 109 l 38 112 l 41 125 l 41 140 q 96 180 57 140 q 252 307 151 218 l 252 309 q 175 417 186 364 q 157 488 166 417 l 157 492 l 159 507 l 157 514 q 212 639 165 581 q 293 701 240 670 q 476 843 400 778 l 476 846 l 465 848 l 401 846 l 384 846 l 363 843 l 348 846 l 344 846 l 344 843 l 335 846 l 286 843 l 286 846 l 280 843 l 278 846 l 267 843 l 242 843 l 212 846 l 183 843 l 177 843 l 175 846 l 172 843 l 159 843 l 157 846 l 155 843 l 47 843 l 32 840 l 27 851 l 29 896 l 29 907 l 32 910 l 29 912 l 29 961 q 36 989 29 989 m 357 720 l 357 722 l 337 712 l 341 712 l 373 714 q 474 687 425 714 l 494 678 l 494 686 q 421 718 463 707 l 373 725 l 357 720 m 305 489 l 307 488 l 307 486 l 305 483 l 305 481 q 375 426 326 426 l 379 426 q 436 467 407 426 l 442 501 q 384 567 442 552 l 377 567 q 305 489 312 567 m 258 297 q 362 261 288 261 q 421 272 386 261 l 421 277 l 418 277 l 399 272 l 396 274 l 370 269 q 265 303 315 269 l 258 297 "},"u":{"x_min":63.75,"x_max":948.15625,"ha":1015,"o":"m 948 554 q 944 510 944 541 l 943 510 l 944 508 l 944 506 q 903 377 924 406 q 704 204 832 257 l 657 188 q 583 115 630 132 l 579 115 q 516 167 554 123 l 510 174 l 510 183 l 546 212 q 569 271 569 240 q 543 302 562 302 l 539 302 q 495 246 507 302 l 494 227 l 495 225 l 495 223 l 494 221 q 537 132 494 160 q 641 96 564 96 l 663 96 q 765 126 740 111 l 788 72 l 799 37 q 722 2 799 29 l 657 -6 l 650 -4 l 639 -4 l 632 -6 q 504 27 547 3 l 465 53 l 427 90 l 404 132 q 387 185 400 132 l 390 187 l 386 221 q 400 284 393 276 q 462 371 415 334 q 533 402 486 389 q 605 388 605 397 q 639 360 628 379 q 672 301 661 341 l 681 301 l 727 327 q 736 336 727 331 q 785 384 763 358 q 851 563 851 474 l 849 573 l 851 575 q 815 704 840 663 q 763 774 797 739 q 678 836 724 816 q 638 849 678 841 q 605 904 620 889 q 580 931 605 912 q 546 950 572 942 l 546 953 q 573 961 546 959 l 591 959 l 605 961 q 729 924 684 950 q 838 841 785 897 q 900 751 885 793 q 941 628 925 714 q 946 557 946 589 l 948 556 l 948 554 m 675 296 l 674 296 l 672 286 l 675 253 q 668 220 672 220 l 668 217 l 672 212 q 686 262 682 212 q 675 296 678 296 m 636 779 q 580 657 617 691 q 495 615 531 615 l 476 615 q 392 657 429 621 q 363 701 366 683 l 361 704 l 358 704 q 266 651 316 693 q 174 422 174 562 q 212 278 174 358 q 302 194 257 219 q 361 163 331 173 l 379 163 l 385 159 l 381 153 q 436 65 393 105 l 438 64 l 438 56 q 419 51 438 51 q 221 112 320 51 q 122 214 162 160 q 103 249 117 219 q 81 302 94 261 l 83 308 q 65 401 73 321 l 67 401 l 65 402 l 65 421 l 63 434 q 94 570 72 522 q 143 654 126 634 l 167 686 q 253 759 202 723 q 325 794 253 765 q 352 802 333 798 q 381 864 357 836 q 403 881 396 878 l 406 881 q 494 830 442 881 q 480 812 494 817 l 465 786 q 459 754 459 769 q 491 721 464 721 l 493 721 q 524 765 524 731 l 524 786 q 444 881 497 856 q 394 895 421 895 l 392 894 l 383 895 l 376 895 l 368 894 l 367 895 l 364 895 l 358 894 l 356 895 l 354 895 q 279 876 326 891 l 275 872 l 265 872 q 238 944 261 873 l 230 971 q 383 1001 316 1001 l 394 1001 q 501 971 463 992 q 585 907 522 966 q 636 779 636 838 m 356 727 l 358 727 l 350 765 l 352 765 l 350 767 l 352 788 l 352 793 l 349 793 l 349 794 q 336 779 336 790 q 349 709 336 747 q 360 714 358 709 l 356 727 m 91 1139 l 914 1139 l 914 1234 l 93 1234 l 91 1139 "},"k":{"x_min":57.65625,"x_max":826.078125,"ha":882,"o":"m 326 994 q 407 962 374 994 q 440 885 440 931 q 407 811 440 843 q 326 779 374 779 q 246 811 279 779 q 212 885 212 843 q 246 962 212 931 q 326 994 279 994 m 303 745 l 431 745 l 431 551 l 303 432 q 303 745 309 748 m 729 796 l 817 692 l 320 261 q 206 232 255 232 q 120 258 162 232 q 57 377 57 297 q 196 530 57 530 q 238 526 210 530 q 280 522 267 522 l 280 407 q 219 421 242 421 q 173 388 173 421 q 212 349 173 349 q 290 385 246 349 q 729 796 323 413 m 303 -15 l 430 -15 l 431 337 q 378 284 405 310 q 303 232 337 248 q 303 106 301 232 q 303 -15 303 45 m 741 -40 l 826 43 l 491 386 l 454 362 l 454 248 l 741 -40 m 284 746 l 284 531 l 206 542 l 206 744 l 284 746 m 281 -14 l 282 231 l 210 214 l 211 -16 l 281 -14 "},"З":{"x_min":49,"x_max":657.375,"ha":676,"o":"m 98 1015 l 657 1015 l 657 871 q 540 706 599 788 q 382 528 455 588 q 183 447 281 444 q 81 501 120 448 q 49 581 54 538 q 63 670 49 633 q 183 762 94 759 q 247 742 216 762 l 247 619 q 233 630 240 624 q 193 634 221 636 q 168 603 164 631 q 207 579 172 579 q 392 730 261 578 q 500 869 446 799 l 98 869 l 98 1015 m 264 802 l 390 802 l 390 747 l 264 621 l 264 802 m 390 324 l 264 324 l 264 436 l 390 507 l 390 324 m 328 304 q 380 282 358 304 q 402 231 402 261 q 380 179 402 200 q 328 158 358 158 q 276 179 297 158 q 255 231 255 200 q 276 282 255 261 q 328 304 297 304 m 402 512 l 490 617 q 628 360 614 499 q 530 138 634 292 q 418 -12 520 121 q 344 -186 372 -73 q 316 -283 319 -283 q 291 -253 302 -283 q 278 -152 276 -216 q 333 81 282 0 q 412 205 403 191 q 465 372 467 306 q 441 472 462 440 q 402 512 433 486 "},"Α":{"x_min":-0.484375,"x_max":832.390625,"ha":918,"o":"m 373 295 l 373 -3 l 445 -3 l 445 295 l 373 295 m 253 122 l 559 122 l 559 191 l 253 191 l 253 122 m 708 7 q 767 48 713 7 q 832 94 828 91 q 359 689 555 417 q 331 758 331 728 q 352 817 331 784 q 405 847 376 847 q 460 821 434 847 q 479 736 486 795 q 429 636 477 712 l 514 521 q 603 761 603 638 q 520 940 603 878 q 422 964 487 964 q 314 948 367 964 q 242 909 261 931 q 200 769 200 859 q 254 603 200 675 q 708 7 457 338 m 390 388 l 307 495 q 156 290 310 494 q 0 83 78 186 q 116 8 -1 83 q 390 388 204 132 "},"¢":{"x_min":72,"x_max":700.71875,"ha":721,"o":"m 503 606 l 353 86 q 395 81 376 81 q 522 135 472 81 q 579 263 568 184 l 700 250 q 599 56 679 130 q 396 -19 516 -19 q 327 -9 363 -19 l 246 -277 l 171 -255 l 249 14 q 111 157 157 57 q 72 356 72 244 q 230 693 72 606 q 391 737 309 737 q 459 732 415 737 l 535 994 l 610 972 l 535 709 q 687 508 659 655 l 569 490 q 503 606 551 566 m 431 637 q 397 639 409 639 q 221 513 268 639 q 197 362 197 448 q 280 120 197 182 l 431 637 "},"é":{"x_min":50.71875,"x_max":693.28125,"ha":735,"o":"m 353 980 l 364 979 q 553 912 488 975 q 659 790 625 876 q 688 678 690 717 l 687 641 l 689 628 q 650 512 675 552 l 641 497 q 693 288 697 402 q 665 183 691 252 q 648 146 661 183 q 585 79 612 99 q 423 4 532 29 l 421 6 l 419 6 q 371 0 411 2 q 265 20 265 15 q 128 126 213 37 q 66 303 63 219 l 67 316 q 80 399 69 382 l 77 401 l 77 404 q 120 495 92 447 q 99 529 121 501 q 73 588 77 564 q 58 663 63 600 l 60 713 q 115 846 72 793 q 284 965 210 950 q 353 980 305 972 m 190 698 q 209 593 187 617 l 262 623 q 381 648 323 650 l 383 648 q 543 601 458 645 l 544 601 q 559 646 549 604 l 558 657 l 559 656 l 558 659 l 558 666 q 456 836 562 769 l 423 849 l 420 847 l 381 852 q 269 823 343 853 q 205 743 216 779 q 190 698 197 744 m 292 501 q 374 474 343 475 q 471 499 415 472 l 471 500 q 408 522 439 521 l 385 523 l 376 526 q 295 506 319 521 l 292 505 l 292 501 m 383 353 l 374 354 q 263 377 344 354 q 227 394 263 381 l 204 417 q 185 341 186 387 l 186 317 l 183 317 q 213 218 187 267 q 339 135 273 138 l 352 132 l 352 130 l 353 132 l 364 130 l 402 128 q 483 161 458 142 q 547 230 529 189 q 567 308 554 230 l 567 325 q 551 411 569 368 l 549 411 q 383 353 473 350 m 55 1148 l 684 1148 l 684 1246 l 50 1246 l 55 1148 m 307 810 l 397 1000 l 557 1000 l 408 810 l 307 810 "},"B":{"x_min":71.21875,"x_max":1382.21875,"ha":1420,"o":"m 1382 506 l 1382 486 q 1313 289 1382 389 q 1194 210 1233 218 q 1102 195 1167 195 l 1049 206 l 1005 230 l 999 230 q 921 83 990 159 q 744 6 838 6 l 712 6 q 534 81 625 6 q 457 228 467 154 l 452 228 q 337 198 398 198 q 176 254 256 198 q 77 415 105 313 l 71 472 l 71 478 q 110 636 71 567 q 123 658 114 636 q 163 699 127 658 q 240 748 208 738 q 328 771 267 760 q 450 744 409 771 q 505 877 464 833 q 571 936 541 923 q 680 982 590 961 l 712 987 l 742 985 l 757 987 q 880 936 821 978 q 972 820 972 852 q 999 736 999 774 l 1001 735 l 1003 735 q 1134 765 1051 765 l 1141 765 q 1239 730 1182 765 q 1363 581 1314 694 q 1382 506 1372 566 m 1123 634 l 1119 634 q 994 563 1033 634 q 976 484 976 520 q 1005 395 989 395 q 1058 341 1005 381 l 1112 326 l 1123 329 l 1126 326 l 1128 326 q 1203 362 1158 333 q 1239 451 1239 411 l 1244 465 l 1242 467 l 1244 482 q 1176 618 1244 573 q 1123 634 1148 629 m 716 425 q 619 368 670 425 q 588 285 588 331 l 588 274 q 626 175 588 215 q 680 136 657 136 q 724 124 680 130 q 800 153 763 124 q 863 272 863 209 l 863 285 q 830 370 858 329 q 716 425 785 425 m 735 849 q 606 765 634 849 q 592 704 597 749 q 617 618 592 667 q 680 561 640 585 l 722 552 q 847 642 813 552 q 855 706 855 678 q 819 807 845 779 q 746 846 773 846 l 735 849 m 349 627 q 238 563 273 627 q 208 467 208 524 l 208 461 q 284 349 208 394 q 332 333 313 333 l 334 335 l 337 335 l 339 333 l 340 333 l 343 335 l 354 333 q 450 396 426 357 q 479 511 479 442 q 419 607 454 588 q 349 627 391 623 m 345 484 l 345 478 l 340 482 l 343 484 l 345 484 "},"…":{"x_min":162,"x_max":1227,"ha":1270,"o":"m 162 0 l 162 139 l 301 139 l 301 0 l 162 0 m 625 0 l 625 139 l 764 139 l 764 0 l 625 0 m 1087 0 l 1087 139 l 1227 139 l 1227 0 l 1087 0 "},"В":{"x_min":46.921875,"x_max":744,"ha":784,"o":"m 740 1017 l 740 -2 q 617 -7 675 -7 q 59 322 73 -7 q 193 571 52 462 q 461 684 314 665 l 566 698 l 566 871 q 498 874 530 874 q 200 706 209 874 q 214 649 197 674 q 241 628 228 628 q 247 630 245 628 l 114 528 q 47 703 49 600 q 177 925 43 834 q 483 1015 306 1012 q 740 1017 479 1020 m 566 137 l 566 333 q 521 331 544 331 q 259 413 392 331 q 257 417 257 414 q 299 467 257 432 q 371 510 340 503 q 505 483 423 483 q 566 487 534 483 l 566 541 q 214 339 214 551 q 338 163 214 208 q 566 137 413 135 m 647 1237 q 715 1208 687 1237 q 744 1141 744 1180 q 715 1074 744 1102 q 647 1046 687 1046 q 578 1074 606 1046 q 550 1141 550 1102 q 578 1208 550 1180 q 647 1237 606 1237 "},"І":{"x_min":129.984375,"x_max":369.390625,"ha":305,"o":"m 332 1 l 167 1 l 167 737 l 332 737 l 332 1 m 243 1025 q 326 991 292 1025 q 359 911 359 958 q 326 832 359 864 q 243 799 292 799 q 163 832 197 799 q 129 911 129 864 q 163 991 129 958 q 243 1025 196 1025 m 243 997 q 185 973 209 997 q 161 915 161 950 q 185 857 161 881 q 243 832 209 832 q 303 857 279 832 q 328 915 328 881 q 303 973 328 950 q 243 997 279 997 m 134 1139 l 369 1139 l 369 1247 l 131 1247 l 134 1139 "},"ē":{"x_min":50.71875,"x_max":693.28125,"ha":737,"o":"m 353 980 l 364 979 q 553 912 488 975 q 659 790 625 876 q 688 678 690 717 l 687 641 l 689 628 q 650 512 675 552 l 641 497 q 693 288 697 402 q 665 183 691 252 q 648 146 661 183 q 585 79 612 99 q 423 4 532 29 l 421 6 l 419 6 q 371 0 411 2 q 265 20 265 15 q 128 126 213 37 q 66 303 63 219 l 67 316 q 80 399 69 382 l 77 401 l 77 404 q 120 495 92 447 q 99 529 121 501 q 73 588 77 564 q 58 663 63 600 l 60 713 q 115 846 72 793 q 284 965 210 950 q 353 980 305 972 m 190 698 q 209 593 187 617 l 262 623 q 381 648 323 650 l 383 648 q 543 601 458 645 l 544 601 q 559 646 549 604 l 558 657 l 559 656 l 558 659 l 558 666 q 456 836 562 769 l 423 849 l 420 847 l 381 852 q 269 823 343 853 q 205 743 216 779 q 190 698 197 744 m 292 501 q 374 474 343 475 q 471 499 415 472 l 471 500 q 408 522 439 521 l 385 523 l 376 526 q 295 506 319 521 l 292 505 l 292 501 m 383 353 l 374 354 q 263 377 344 354 q 227 394 263 381 l 204 417 q 185 341 186 387 l 186 317 l 183 317 q 213 218 187 267 q 339 135 273 138 l 352 132 l 352 130 l 353 132 l 364 130 l 402 128 q 483 161 458 142 q 547 230 529 189 q 567 308 554 230 l 567 325 q 551 411 569 368 l 549 411 q 383 353 473 350 m 55 1148 l 684 1148 l 684 1246 l 50 1246 l 55 1148 m 164 832 l 164 933 l 587 933 l 587 832 l 164 832 "},"H":{"x_min":65.78125,"x_max":754.859375,"ha":817,"o":"m 65 0 l 65 994 l 197 994 l 197 585 l 615 585 l 615 994 l 752 994 l 754 0 l 617 0 l 617 468 l 197 468 l 197 0 l 65 0 "},"ν":{"x_min":17.359375,"x_max":781.71875,"ha":695,"o":"m 22 1047 l 25 1047 q 30 1035 28 1047 q 187 912 70 958 l 267 874 q 315 847 268 871 l 354 819 l 357 811 l 356 753 l 357 680 l 356 678 l 354 678 q 266 788 318 742 q 153 865 226 822 l 102 904 q 17 1038 17 988 q 22 1047 19 1047 m 416 972 q 490 916 469 972 l 495 895 q 452 825 495 850 q 422 816 436 816 l 408 816 q 342 866 365 816 l 340 878 l 340 879 l 340 881 l 338 890 q 391 967 338 942 l 416 972 m 710 857 l 712 857 q 778 786 717 857 l 778 784 l 496 531 q 465 498 465 506 l 465 473 l 467 438 l 465 438 l 467 436 l 467 432 l 465 432 l 467 411 l 467 370 l 469 362 l 467 362 l 469 360 l 469 349 l 467 342 l 469 331 l 469 276 l 471 225 l 469 223 l 469 221 l 471 217 l 469 215 l 471 207 q 463 181 469 181 l 439 181 l 432 179 l 426 181 l 422 181 l 416 179 l 414 181 l 406 179 l 373 179 q 370 184 370 179 l 377 195 l 375 195 l 367 194 l 364 199 l 364 219 l 362 229 l 364 236 l 364 240 l 362 240 l 364 251 l 364 269 l 365 284 l 364 301 l 364 317 l 361 320 q 357 311 361 311 l 359 301 l 359 264 l 361 243 l 359 225 l 359 217 l 361 208 q 340 170 358 170 q 246 119 322 152 q 167 84 217 104 q 103 47 154 74 q 74 27 100 42 l 51 4 l 31 -21 l 30 -21 l 25 -16 q 70 63 34 17 q 131 112 106 99 q 207 162 180 148 q 233 181 207 164 q 303 246 258 199 q 342 305 327 269 q 364 379 364 345 l 364 387 l 362 397 l 364 401 l 362 407 q 421 446 392 419 q 434 465 434 456 l 439 465 l 449 461 l 444 477 l 449 481 l 446 485 l 370 416 l 364 418 q 313 390 327 390 q 266 382 297 382 l 266 383 l 264 382 l 262 382 q 172 403 207 382 q 131 461 138 436 q 127 473 131 467 l 127 503 q 193 603 127 560 q 244 617 231 616 l 246 616 l 254 617 l 260 617 q 340 598 304 617 q 349 585 349 592 l 334 541 q 310 506 322 518 q 301 510 301 506 l 300 507 l 268 512 l 264 512 q 238 499 238 505 l 236 489 q 271 477 247 477 q 297 483 285 483 q 352 557 317 483 q 362 616 361 593 l 359 647 q 362 663 362 647 l 364 663 l 362 665 l 362 668 l 364 670 l 362 671 l 362 675 l 364 675 l 362 691 l 362 706 l 364 712 l 362 714 l 364 758 l 364 786 q 369 804 364 804 q 426 729 410 769 q 452 642 452 682 q 424 608 452 630 q 354 542 389 572 q 344 520 346 529 q 452 619 370 539 l 650 804 l 710 857 m 403 796 l 444 796 q 463 784 463 796 l 463 731 l 462 729 l 463 727 l 463 678 l 465 668 l 463 661 l 465 653 q 460 645 463 645 l 457 651 l 457 681 q 421 769 450 724 l 403 791 l 403 796 m 465 596 l 465 546 l 467 529 l 469 529 q 477 541 472 529 l 475 565 l 475 593 l 473 601 q 465 596 465 598 m 454 536 q 422 478 447 516 l 421 473 l 424 473 l 434 485 l 457 531 l 457 534 l 455 536 l 454 536 m 479 501 q 517 472 490 501 q 712 293 576 414 q 781 228 781 231 l 781 227 l 717 162 l 716 160 l 714 160 l 477 381 l 479 397 l 479 405 l 477 438 l 479 444 l 477 461 l 477 464 l 479 472 l 477 481 l 477 498 l 479 501 m 449 454 l 452 446 l 454 446 l 454 451 l 452 456 l 450 454 l 449 454 m 378 197 l 381 197 q 432 267 420 232 q 457 341 443 277 l 458 367 l 458 370 q 449 338 457 370 q 393 227 423 257 l 378 197 "},"î":{"x_min":-11.53125,"x_max":417.78125,"ha":429,"o":"m 134 0 l 134 720 l 256 720 l 256 0 l 134 0 m 204 925 l 128 809 l -11 809 l 134 999 l 265 999 l 417 809 l 279 809 l 204 925 "},"β":{"x_min":95,"x_max":736,"ha":766,"o":"m 216 91 l 216 -276 l 95 -276 l 95 682 q 120 848 95 787 q 231 968 151 922 q 399 1011 307 1011 q 593 945 514 1011 q 676 761 676 875 q 624 619 676 678 q 489 546 572 560 q 669 464 603 535 q 736 281 736 394 q 653 67 736 151 q 441 -16 571 -16 q 216 91 294 -16 m 324 586 q 563 754 563 586 q 512 868 563 823 q 393 910 463 910 q 292 882 339 910 q 226 803 239 851 q 216 660 216 762 l 216 388 q 226 240 216 284 q 302 118 243 166 q 425 74 355 74 q 561 132 510 74 q 609 275 609 189 q 576 395 609 339 q 483 477 541 455 q 341 497 430 497 l 324 497 l 324 586 "},"−":{"x_min":77,"x_max":733.53125,"ha":778,"o":"m 733 433 l 77 433 l 77 547 l 733 547 l 733 433 "},"≠":{"x_min":53,"x_max":709.515625,"ha":719,"o":"m 335 283 l 204 -19 l 112 -19 l 244 283 l 53 283 l 53 397 l 294 397 l 377 585 l 53 585 l 53 699 l 426 699 l 559 1000 l 650 1000 l 518 699 l 709 699 l 709 585 l 467 585 l 386 397 l 709 397 l 709 283 l 335 283 "},"¥":{"x_min":-1,"x_max":769.453125,"ha":769,"o":"m 324 0 l 324 220 l 43 220 l 43 314 l 324 314 l 324 412 l 43 412 l 43 513 l 274 513 l -1 994 l 134 994 l 331 644 q 383 539 364 586 q 438 650 400 578 l 624 994 l 769 994 l 494 513 l 726 513 l 726 412 l 447 412 l 447 314 l 726 314 l 726 220 l 447 220 l 447 0 l 324 0 "},"U":{"x_min":69.171875,"x_max":542.578125,"ha":612,"o":"m 370 377 l 370 478 l 120 478 l 120 377 l 370 377 m 520 -41 q 368 67 372 65 q 269 192 303 122 q 210 421 230 274 q 208 467 208 445 q 530 950 208 702 q 410 908 529 959 q 188 754 271 849 q 69 424 68 618 q 189 132 71 254 q 406 -5 273 47 q 520 -41 502 -43 m 71 1217 l 542 1217 l 542 1115 l 69 1115 l 71 1217 "},"Ñ":{"x_min":105.90625,"x_max":965.890625,"ha":934,"o":"m 420 507 l 514 387 q 373 199 504 387 q 238 0 251 23 q 105 89 169 45 q 267 299 185 194 q 420 507 423 505 m 542 648 l 624 542 q 761 817 761 718 q 651 979 761 918 q 532 1005 603 1005 q 371 940 417 1005 q 320 776 320 869 q 388 577 320 672 q 676 208 474 458 q 843 0 760 105 q 845 0 843 0 q 904 42 850 0 q 965 90 961 87 q 487 685 670 427 q 455 768 455 728 q 477 843 455 803 q 545 878 507 878 q 598 853 573 878 q 617 765 624 826 q 542 648 613 739 m 362 1056 q 397 1164 361 1121 q 499 1210 435 1210 q 614 1174 541 1210 q 678 1154 654 1154 q 727 1212 719 1154 l 815 1212 q 682 1058 811 1058 q 570 1095 640 1058 q 503 1120 524 1120 q 452 1056 450 1120 l 362 1056 "},"F":{"x_min":58.328125,"x_max":699.921875,"ha":743,"o":"m 184 -1 l 58 -2 l 58 951 l 699 951 l 699 837 l 187 834 l 187 541 l 185 543 l 185 423 l 184 422 l 184 -1 m 445 712 l 445 1064 l 558 1064 l 558 712 l 445 712 "},"ā":{"x_min":50.53125,"x_max":809.46875,"ha":728,"o":"m 328 470 q 192 661 330 471 q 50 857 121 759 q 167 939 106 897 q 286 754 179 918 q 410 580 402 580 l 328 470 m 435 339 q 502 231 499 255 q 484 148 508 172 q 438 125 462 125 q 378 158 404 125 q 359 227 359 195 q 386 305 359 264 q 809 857 548 543 q 754 900 806 859 q 702 940 707 940 q 702 939 702 940 q 553 746 627 843 q 299 404 375 514 q 239 220 239 316 q 284 67 239 133 q 426 7 325 7 q 532 32 488 7 q 628 182 628 88 q 508 436 628 275 l 435 339 m 450 845 l 408 845 l 408 847 l 271 847 l 269 800 l 447 800 l 450 813 l 450 800 l 577 800 l 577 847 l 450 847 l 450 845 m 402 847 l 402 982 l 445 982 l 444 847 l 402 847 m 447 666 l 401 666 l 401 800 l 447 800 l 447 666 m 166 832 l 166 933 l 589 933 l 589 832 l 166 832 "},"Χ":{"x_min":6.390625,"x_max":797.875,"ha":926,"o":"m 110 975 q 294 904 190 975 q 389 779 382 815 q 456 622 456 649 q 530 680 466 622 l 713 834 l 715 837 l 717 837 q 797 733 797 748 q 736 685 781 724 q 698 653 730 685 l 484 467 q 534 234 508 282 q 620 103 551 191 q 751 31 675 46 q 791 23 791 29 l 791 18 q 730 4 791 8 l 713 4 q 484 142 603 20 q 399 274 420 222 q 364 364 376 344 l 232 246 l 93 133 l 84 133 l 9 223 l 9 228 l 320 497 q 336 520 336 509 l 336 523 q 308 703 336 580 q 182 910 261 854 q 89 948 116 948 l 61 948 l 15 941 l 6 955 q 110 975 18 975 "},"*":{"x_min":43,"x_max":491.3125,"ha":517,"o":"m 43 811 l 74 908 q 231 842 182 870 q 217 1011 217 964 l 316 1011 q 300 843 313 943 q 460 908 369 878 l 491 811 q 322 773 405 783 q 439 645 363 737 l 357 588 q 264 734 318 641 q 176 588 214 638 l 96 645 q 209 773 175 742 q 43 811 121 790 "},"†":{"x_min":49,"x_max":716,"ha":711,"o":"m 320 -235 l 320 587 l 49 587 l 49 696 l 320 696 l 320 971 l 443 971 l 443 696 l 716 696 l 716 587 l 443 587 l 443 -235 l 320 -235 "},"°":{"x_min":87,"x_max":463,"ha":501,"o":"m 87 823 q 141 956 87 901 q 274 1011 196 1011 q 408 956 353 1011 q 463 823 463 901 q 408 689 463 744 q 274 635 353 635 q 141 689 196 635 q 87 823 87 744 m 161 823 q 194 742 161 776 q 275 709 227 709 q 355 742 322 709 q 389 823 389 776 q 355 904 389 870 q 275 938 322 938 q 194 904 227 938 q 161 823 161 870 "},"Ξ":{"x_min":74,"x_max":828.859375,"ha":774,"o":"m 92 994 l 810 994 l 810 877 l 92 877 l 92 994 m 156 555 l 746 555 l 746 439 l 156 439 l 156 555 m 74 117 l 828 117 l 828 0 l 74 0 l 74 117 "},"å":{"x_min":50.53125,"x_max":809.46875,"ha":722,"o":"m 328 470 q 192 661 330 471 q 50 857 121 759 q 167 939 106 897 q 286 754 179 918 q 410 580 402 580 l 328 470 m 435 339 q 502 231 499 255 q 484 148 508 172 q 438 125 462 125 q 378 158 404 125 q 359 227 359 195 q 386 305 359 264 q 809 857 548 543 q 754 900 806 859 q 702 940 707 940 q 702 939 702 940 q 553 746 627 843 q 299 404 375 514 q 239 220 239 316 q 284 67 239 133 q 426 7 325 7 q 532 32 488 7 q 628 182 628 88 q 508 436 628 275 l 435 339 m 450 845 l 408 845 l 408 847 l 271 847 l 269 800 l 447 800 l 450 813 l 450 800 l 577 800 l 577 847 l 450 847 l 450 845 m 402 847 l 402 982 l 445 982 l 444 847 l 402 847 m 447 666 l 401 666 l 401 800 l 447 800 l 447 666 m 240 907 q 275 993 240 957 q 362 1029 311 1029 q 448 992 412 1029 q 484 905 484 956 q 448 817 484 853 q 362 781 413 781 q 274 817 309 781 q 240 907 240 854 m 292 906 q 312 854 292 876 q 363 832 333 832 q 414 853 393 832 q 435 905 435 875 q 414 957 435 935 q 363 979 393 979 q 312 957 333 979 q 292 906 292 936 "},"Ϋ":{"x_min":3.78125,"x_max":786.453125,"ha":903,"o":"m 734 1239 l 735 1237 l 733 1233 q 773 1078 754 1175 l 779 1033 l 777 1032 l 777 1030 l 786 967 l 784 966 l 786 950 l 786 940 q 757 767 786 836 q 688 653 730 695 q 637 608 682 639 q 508 569 574 569 l 508 570 l 506 569 q 412 588 460 569 q 389 600 412 590 q 332 652 354 627 l 331 653 l 329 653 l 327 652 l 327 650 l 332 643 l 329 640 l 329 638 l 334 638 l 332 636 l 332 634 q 401 581 361 600 q 492 558 437 566 l 499 560 l 513 558 q 528 564 522 558 l 530 564 q 542 511 538 558 q 481 341 542 419 l 477 339 l 475 339 q 424 407 469 351 l 415 405 l 413 407 l 413 408 q 450 505 450 467 q 401 568 450 568 l 396 568 q 364 533 374 568 l 363 510 q 413 398 363 461 l 539 236 l 630 118 q 683 46 683 55 l 605 -12 l 600 -12 q 490 137 571 19 l 308 385 q 264 505 268 448 l 264 511 q 310 630 264 583 l 310 633 l 308 633 q 273 600 290 633 q 260 566 266 589 l 256 562 q 215 572 253 566 q 134 622 152 596 q 80 685 98 655 q 31 776 51 725 q 11 853 11 836 l 12 853 q 3 933 7 874 l 3 936 q 64 1226 3 1079 l 64 1231 l 66 1231 q 123 1201 75 1231 l 144 1193 l 145 1195 l 150 1184 q 106 1070 132 1184 l 92 985 l 94 983 l 92 960 l 92 920 l 94 913 l 92 912 l 92 910 q 138 763 103 821 q 229 659 165 692 q 283 645 266 645 l 327 653 q 310 684 327 659 q 283 734 293 713 q 259 874 259 807 q 294 1008 259 944 l 320 1039 q 371 1066 348 1062 l 371 1064 l 397 1069 q 448 1053 429 1064 q 539 922 509 1018 l 549 874 l 547 872 l 549 865 l 549 855 l 550 834 l 549 829 l 550 824 q 541 763 545 763 l 542 757 q 496 673 517 691 l 485 673 q 422 710 422 695 l 422 710 q 455 845 455 771 l 455 855 l 457 865 q 401 982 438 982 q 368 956 378 975 q 354 908 354 930 l 352 899 l 351 899 l 352 897 l 351 870 q 415 692 351 758 q 497 659 454 659 l 502 657 l 502 656 l 504 657 l 509 657 q 619 706 581 657 q 696 967 696 769 q 667 1158 696 1025 q 650 1211 661 1171 l 734 1239 m 343 654 l 348 649 q 397 657 366 657 l 415 656 l 420 657 q 483 633 455 651 q 530 577 519 609 l 532 577 l 536 580 q 492 636 519 626 q 424 666 477 655 l 394 667 q 343 656 343 664 l 343 654 m 338 313 l 341 313 q 355 293 346 311 q 405 232 401 232 l 405 231 l 383 201 l 226 -19 l 222 -19 l 146 36 l 340 309 l 338 313 m 205 1055 l 205 1194 l 333 1194 l 333 1055 l 205 1055 m 457 1055 l 457 1194 l 585 1194 l 585 1055 l 457 1055 "},"0":{"x_min":57,"x_max":705,"ha":741,"o":"m 57 490 q 201 939 57 822 q 381 998 272 998 q 620 873 539 998 q 705 490 705 743 q 561 41 705 159 q 381 -17 490 -17 q 57 490 57 -17 m 182 490 q 208 237 182 326 q 381 84 254 84 q 580 490 580 84 q 553 743 580 655 q 379 897 507 897 q 245 825 294 897 q 182 490 182 735 "},"”":{"x_min":48,"x_max":400,"ha":443,"o":"m 59 862 l 59 1004 l 190 1004 l 190 892 q 168 761 190 801 q 77 679 139 706 l 48 726 q 122 862 118 755 l 59 862 m 269 862 l 269 1004 l 400 1004 l 400 892 q 378 761 400 801 q 288 679 349 706 l 258 726 q 332 862 328 755 l 269 862 "},"ö":{"x_min":46.5625,"x_max":1067.96875,"ha":737,"o":"m 555 1022 q 919 872 770 1022 q 1067 510 1067 722 q 918 150 1067 299 q 555 1 768 1 q 196 150 345 1 q 46 510 46 299 q 194 872 46 722 q 555 1022 342 1022 m 555 882 q 294 774 401 882 q 186 512 186 666 q 294 250 186 358 q 555 142 401 142 q 817 250 709 142 q 925 512 925 358 q 818 774 925 666 q 555 882 710 882 m 170 861 l 170 1000 l 298 1000 l 298 861 l 170 861 m 422 861 l 422 1000 l 550 1000 l 550 861 l 422 861 "},"Β":{"x_min":102.21875,"x_max":1413.21875,"ha":891,"o":"m 1413 506 l 1413 486 q 1344 289 1413 389 q 1225 210 1264 218 q 1133 195 1198 195 l 1080 206 l 1036 230 l 1030 230 q 952 83 1021 159 q 775 6 869 6 l 743 6 q 565 81 656 6 q 488 228 498 154 l 483 228 q 368 198 429 198 q 207 254 287 198 q 108 415 136 313 l 102 472 l 102 478 q 141 636 102 567 q 154 658 145 636 q 194 699 158 658 q 271 748 239 738 q 359 771 298 760 q 481 744 440 771 q 536 877 495 833 q 602 936 572 923 q 711 982 621 961 l 743 987 l 773 985 l 788 987 q 911 936 852 978 q 1003 820 1003 852 q 1030 736 1030 774 l 1032 735 l 1034 735 q 1165 765 1082 765 l 1172 765 q 1270 730 1213 765 q 1394 581 1345 694 q 1413 506 1403 566 m 1154 634 l 1150 634 q 1025 563 1064 634 q 1007 484 1007 520 q 1036 395 1020 395 q 1089 341 1036 381 l 1143 326 l 1154 329 l 1157 326 l 1159 326 q 1234 362 1189 333 q 1270 451 1270 411 l 1275 465 l 1273 467 l 1275 482 q 1207 618 1275 573 q 1154 634 1179 629 m 747 425 q 650 368 701 425 q 619 285 619 331 l 619 274 q 657 175 619 215 q 711 136 688 136 q 755 124 711 130 q 831 153 794 124 q 894 272 894 209 l 894 285 q 861 370 889 329 q 747 425 816 425 m 766 849 q 637 765 665 849 q 623 704 628 749 q 648 618 623 667 q 711 561 671 585 l 753 552 q 878 642 844 552 q 886 706 886 678 q 850 807 876 779 q 777 846 804 846 l 766 849 m 380 627 q 269 563 304 627 q 239 467 239 524 l 239 461 q 315 349 239 394 q 363 333 344 333 l 365 335 l 368 335 l 370 333 l 371 333 l 374 335 l 385 333 q 481 396 457 357 q 510 511 510 442 q 450 607 485 588 q 380 627 422 623 m 376 484 l 376 478 l 371 482 l 374 484 l 376 484 "},"Õ":{"x_min":67.640625,"x_max":766.734375,"ha":1049,"o":"m 667 294 q 629 122 667 178 q 454 -46 583 17 l 454 -44 q 379 -61 454 -48 q 170 12 244 -61 q 135 52 158 17 l 122 67 l 122 78 q 80 158 108 79 q 67 271 67 224 l 85 399 l 122 542 q 151 703 151 645 l 153 705 l 151 707 l 153 733 l 153 758 q 94 973 153 815 l 87 1056 q 153 1188 87 1122 q 276 1239 218 1239 q 416 1184 357 1239 q 473 1058 461 1127 l 478 1019 l 478 1017 l 476 1008 l 478 1006 q 439 889 472 947 q 311 810 387 824 q 285 826 285 810 q 199 960 285 859 q 168 1032 168 1011 q 164 1041 168 1041 l 161 1041 l 159 1032 l 175 984 q 234 893 197 940 q 285 784 262 862 l 305 682 l 305 678 l 302 678 l 305 656 l 305 617 l 302 604 l 305 601 l 305 599 q 283 558 299 558 l 241 533 q 193 496 198 507 l 193 494 q 315 553 281 553 q 416 567 315 562 q 560 503 507 547 q 638 406 608 459 q 663 324 643 406 l 667 294 m 379 402 l 370 402 q 283 344 334 402 q 248 234 248 287 l 248 228 l 245 219 q 274 131 245 190 q 331 94 301 101 l 355 90 q 379 94 364 94 l 379 99 l 381 99 l 384 96 q 489 280 489 135 q 379 402 473 402 m 381 19 l 377 19 l 377 12 l 381 12 l 381 19 m 276 1104 q 214 1049 236 1104 l 212 1028 q 248 962 224 962 q 271 951 258 951 q 324 975 324 960 q 344 1017 338 988 l 344 1037 l 346 1039 q 305 1098 346 1074 q 276 1104 289 1104 m 313 1056 q 348 1164 312 1121 q 450 1210 386 1210 q 565 1174 492 1210 q 629 1154 605 1154 q 678 1212 670 1154 l 766 1212 q 633 1058 762 1058 q 521 1095 591 1058 q 454 1120 475 1120 q 403 1056 401 1120 l 313 1056 "},"þ":{"x_min":91,"x_max":716,"ha":726,"o":"m 91 -276 l 91 994 l 214 994 l 214 644 q 300 713 262 696 q 411 737 349 737 q 680 555 605 737 q 716 365 716 469 q 561 31 716 127 q 403 -16 485 -16 q 299 6 346 -16 q 214 74 263 23 l 214 -276 l 91 -276 m 202 356 q 242 175 202 246 q 394 85 292 85 q 549 179 497 85 q 591 366 591 254 q 549 548 591 474 q 399 641 499 641 q 245 543 299 641 q 202 356 202 464 "},"]":{"x_min":52.90625,"x_max":910.859375,"ha":947,"o":"m 755 965 l 757 965 q 803 946 776 952 q 887 910 885 916 l 607 217 l 522 7 q 497 3 512 3 l 481 4 l 432 3 l 432 6 q 381 3 421 2 l 354 4 l 341 2 l 339 4 l 336 4 l 298 1 l 293 8 l 290 8 q 285 2 290 2 l 263 3 l 250 1 l 240 3 q 229 0 229 4 l 225 0 l 225 2 l 151 0 l 147 15 l 149 18 l 148 31 l 147 142 l 149 145 l 156 140 l 197 143 l 205 141 l 229 141 l 239 139 q 263 143 248 143 l 265 143 l 267 141 l 287 144 l 293 144 l 293 141 l 368 144 l 370 145 l 370 148 q 223 527 370 163 q 94 850 215 539 q 69 900 80 887 l 69 902 l 183 952 l 198 963 l 202 963 l 245 853 l 374 517 l 473 267 l 477 267 l 649 704 l 748 959 l 755 965 m 55 1137 l 910 1137 l 910 1245 l 52 1245 l 55 1137 "},"А":{"x_min":53,"x_max":746,"ha":785,"o":"m 53 1 l 53 588 q 124 884 53 767 q 406 1027 217 1033 q 676 900 588 1020 q 746 652 746 803 q 647 397 746 505 q 410 281 549 289 q 290 317 341 277 q 251 361 253 346 l 251 549 q 286 491 272 506 q 395 452 326 451 q 578 646 555 453 q 581 685 581 666 q 543 812 581 764 q 406 872 497 872 q 266 783 312 872 q 231 611 231 715 q 231 586 231 599 q 227 1 230 376 l 53 1 m 573 1 l 573 307 l 571 307 l 571 307 q 639 362 609 333 q 736 501 711 430 l 736 1 l 573 1 "},"Ы":{"x_min":45,"x_max":884.640625,"ha":874,"o":"m 804 1134 q 859 1112 836 1134 q 883 1061 883 1091 q 859 1010 883 1031 q 804 989 836 989 q 749 1010 772 989 q 726 1061 726 1031 q 749 1112 726 1091 q 804 1134 772 1134 m 589 1129 q 645 1107 622 1129 q 668 1056 668 1086 q 645 1005 668 1026 q 589 984 622 984 q 534 1005 557 984 q 511 1056 511 1026 q 534 1107 511 1086 q 589 1129 557 1129 m 601 942 q 696 942 603 942 q 792 942 789 942 l 792 493 q 600 611 711 581 q 601 942 602 775 m 533 1177 q 629 1163 594 1189 q 696 1073 664 1137 q 723 1125 698 1093 q 777 1172 749 1159 q 884 1190 831 1197 q 768 1210 842 1218 q 721 1181 748 1208 q 691 1140 699 1159 q 679 1178 685 1159 q 644 1221 672 1193 q 569 1255 617 1249 q 511 1257 561 1257 l 533 1177 m 82 1241 q 299 1015 209 1172 l 446 1015 l 446 898 l 350 898 q 404 602 398 766 q 198 440 257 542 q 205 660 205 566 q 188 901 205 806 l 45 901 l 45 1017 l 165 1017 q 82 1241 153 1108 m 512 598 q 735 503 640 598 q 828 299 828 411 q 741 88 828 176 q 512 -3 650 -3 q 279 86 365 -3 q 198 299 198 170 q 290 503 198 411 q 512 598 385 598 m 512 471 q 394 415 442 471 q 349 299 349 364 q 394 186 349 235 q 512 135 442 135 q 631 186 583 135 q 677 299 677 235 q 631 415 677 364 q 512 471 583 471 "},"χ":{"x_min":11,"x_max":715.671875,"ha":717,"o":"m 32 720 l 164 720 l 363 321 l 568 720 l 702 720 l 437 229 l 715 -276 l 576 -276 l 363 139 l 147 -276 l 11 -276 l 288 225 l 32 720 "},"8":{"x_min":79,"x_max":687,"ha":722,"o":"m 573 289 q 520 419 573 368 q 383 471 467 471 q 247 420 301 471 q 194 289 194 370 q 250 154 194 204 q 383 108 303 108 q 516 156 462 108 q 573 289 573 206 m 383 -3 q 168 82 257 -3 q 79 289 79 167 q 168 496 79 410 q 383 582 257 582 q 598 496 509 582 q 687 289 687 410 q 598 82 687 167 q 383 -3 509 -3 m 573 703 q 518 830 573 776 q 383 885 463 885 q 255 834 312 885 q 194 703 194 780 q 250 574 194 627 q 383 522 306 522 q 518 574 463 522 q 573 703 573 626 m 383 411 q 168 496 257 411 q 79 703 79 582 q 168 910 79 824 q 383 996 257 996 q 598 910 509 996 q 687 703 687 824 q 598 496 687 581 q 383 411 509 411 "},"ί":{"x_min":67,"x_max":317.265625,"ha":325,"o":"m 93 0 l 93 720 l 216 720 l 216 0 l 93 0 m 67 810 l 157 1000 l 317 1000 l 168 810 l 67 810 "},"Ζ":{"x_min":27.8125,"x_max":714.171875,"ha":796,"o":"m 36 989 l 43 984 l 54 986 l 96 984 l 126 984 l 135 982 l 143 984 l 153 984 l 166 982 l 175 984 l 183 982 l 195 984 l 206 982 l 223 984 l 225 982 l 227 984 l 253 984 l 256 982 l 258 984 l 276 984 l 278 982 l 280 984 l 296 984 l 297 982 l 300 984 l 630 984 l 654 986 l 656 984 l 659 984 l 678 986 l 703 986 q 709 975 708 986 l 706 962 l 709 942 l 706 916 l 709 890 l 706 887 l 709 876 l 709 855 q 691 843 703 843 q 599 765 691 840 l 509 683 l 505 672 q 569 587 552 630 q 588 505 583 554 l 585 497 l 588 494 l 588 492 q 524 338 588 409 q 451 280 502 318 q 410 246 447 280 q 293 158 405 246 q 276 143 286 158 l 276 140 l 285 140 l 296 138 l 308 140 l 320 140 l 329 138 l 335 140 l 337 138 l 340 138 l 341 140 l 344 140 l 368 138 l 384 140 l 385 138 l 387 138 l 390 140 l 401 138 l 456 138 l 465 140 l 476 138 l 491 140 l 497 138 l 500 140 l 502 140 l 505 138 l 506 138 l 514 140 l 516 138 l 517 138 l 524 140 l 526 138 l 537 140 l 557 140 l 560 138 l 561 140 l 643 140 l 651 138 l 660 140 l 706 140 l 714 136 l 711 125 l 711 101 l 709 15 q 700 4 705 5 l 693 4 l 691 6 l 689 4 l 680 4 l 678 6 l 676 4 l 623 4 l 621 6 l 619 4 l 615 4 l 605 6 l 590 4 l 379 4 l 370 2 l 368 4 l 348 2 l 36 0 l 36 21 l 38 24 l 36 26 l 38 37 l 38 83 l 41 107 l 38 109 l 38 112 l 41 125 l 41 140 q 96 180 57 140 q 252 307 151 218 l 252 309 q 175 417 186 364 q 157 488 166 417 l 157 492 l 159 507 l 157 514 q 212 639 165 581 q 293 701 240 670 q 476 843 400 778 l 476 846 l 465 848 l 401 846 l 384 846 l 363 843 l 348 846 l 344 846 l 344 843 l 335 846 l 286 843 l 286 846 l 280 843 l 278 846 l 267 843 l 242 843 l 212 846 l 183 843 l 177 843 l 175 846 l 172 843 l 159 843 l 157 846 l 155 843 l 47 843 l 32 840 l 27 851 l 29 896 l 29 907 l 32 910 l 29 912 l 29 961 q 36 989 29 989 m 357 720 l 357 722 l 337 712 l 341 712 l 373 714 q 474 687 425 714 l 494 678 l 494 686 q 421 718 463 707 l 373 725 l 357 720 m 305 489 l 307 488 l 307 486 l 305 483 l 305 481 q 375 426 326 426 l 379 426 q 436 467 407 426 l 442 501 q 384 567 442 552 l 377 567 q 305 489 312 567 m 258 297 q 362 261 288 261 q 421 272 386 261 l 421 277 l 418 277 l 399 272 l 396 274 l 370 269 q 265 303 315 269 l 258 297 "},"R":{"x_min":65.109375,"x_max":685,"ha":728,"o":"m 621 993 l 619 991 l 619 989 l 621 961 l 621 950 q 607 945 620 945 l 607 946 l 596 943 l 596 945 l 595 943 l 564 943 l 554 945 l 547 943 l 547 945 l 545 943 l 534 943 l 533 945 l 527 943 l 512 945 l 507 943 l 488 945 l 474 945 l 467 943 l 459 945 l 450 945 l 445 943 l 436 945 l 404 945 l 397 946 l 389 945 l 386 945 l 376 946 l 374 945 l 352 946 l 100 947 q 107 961 108 960 l 107 971 l 108 988 l 99 998 l 99 993 l 101 999 l 105 1007 l 105 1009 q 101 1027 107 1030 l 104 1038 l 317 1038 l 351 1038 l 370 1039 l 376 1038 l 388 1039 q 342 1071 387 1043 q 296 1123 301 1108 q 271 1167 284 1136 q 257 1232 257 1201 q 272 1298 257 1270 q 326 1331 294 1331 q 372 1306 348 1330 q 395 1189 395 1262 q 452 1089 413 1119 q 531 1053 474 1070 l 603 1039 q 616 1032 603 1037 l 621 993 m 65 0 l 65 894 l 183 894 l 183 527 l 559 527 l 559 894 l 683 894 l 685 0 l 562 0 l 562 421 l 183 421 l 183 0 l 65 0 "},"o":{"x_min":72.5625,"x_max":1093.96875,"ha":1159,"o":"m 581 1022 q 945 872 796 1022 q 1093 510 1093 722 q 944 150 1093 299 q 581 1 794 1 q 222 150 371 1 q 72 510 72 299 q 220 872 72 722 q 581 1022 368 1022 m 581 882 q 320 774 427 882 q 212 512 212 666 q 320 250 212 358 q 581 142 427 142 q 843 250 735 142 q 951 512 951 358 q 844 774 951 666 q 581 882 736 882 "},"5":{"x_min":35,"x_max":709.140625,"ha":728,"o":"m 237 50 l 273 99 q 450 123 388 96 q 589 319 562 172 q 592 354 592 337 q 477 520 592 460 q 296 567 391 565 l 306 656 q 557 610 479 648 q 709 316 713 534 q 599 88 706 179 q 379 4 501 4 q 237 50 294 4 m 72 477 q 145 448 102 448 q 227 483 195 448 q 284 644 284 544 q 279 702 284 642 q 273 790 281 718 q 183 792 183 788 q 174 655 187 771 q 79 598 138 658 q 49 535 49 569 q 72 477 49 504 m 192 575 q 182 538 206 561 q 144 529 159 514 q 154 566 130 543 q 192 575 177 590 m 41 955 q 35 921 35 938 q 56 858 35 887 q 111 819 78 830 q 203 809 145 809 q 675 897 410 809 l 675 992 q 258 915 527 953 q 239 947 251 932 q 155 1001 209 982 q 118 1008 136 1008 q 41 955 66 1008 m 182 890 q 144 883 175 872 q 119 913 112 894 q 158 920 126 931 q 182 890 189 909 m 163 306 q 240 272 209 306 q 269 194 271 238 q 212 68 265 125 q 145 12 178 40 q 87 -9 118 -9 q 58 9 72 -9 q 48 29 48 20 q 57 43 48 37 q 127 92 75 54 q 81 215 79 132 q 163 306 81 297 m 177 153 q 198 185 198 153 q 177 219 198 219 q 157 185 157 219 q 177 153 157 153 "},"Ѕ":{"x_min":62.109375,"x_max":965.5,"ha":878,"o":"m 472 -6 l 472 397 l 62 397 l 62 491 l 469 490 l 469 879 l 562 879 l 562 491 l 965 491 l 965 395 l 566 395 l 565 -6 l 472 -6 "},"õ":{"x_min":46.5625,"x_max":1067.96875,"ha":740,"o":"m 555 1022 q 919 872 770 1022 q 1067 510 1067 722 q 918 150 1067 299 q 555 1 768 1 q 196 150 345 1 q 46 510 46 299 q 194 872 46 722 q 555 1022 342 1022 m 555 882 q 294 774 401 882 q 186 512 186 666 q 294 250 186 358 q 555 142 401 142 q 817 250 709 142 q 925 512 925 358 q 818 774 925 666 q 555 882 710 882 m 134 827 q 169 935 133 892 q 271 981 207 981 q 386 945 313 981 q 450 925 426 925 q 499 983 491 925 l 587 983 q 454 829 583 829 q 342 866 412 829 q 275 891 296 891 q 224 827 222 891 l 134 827 "},",":{"x_min":112.578125,"x_max":259.765625,"ha":403,"o":"m 120 0 l 120 139 l 259 139 l 259 0 q 146 -196 259 -147 l 112 -144 q 189 0 186 -111 l 120 0 "},"d":{"x_min":55.609375,"x_max":666.6875,"ha":735,"o":"m 322 1224 q 368 1209 343 1224 q 398 1150 398 1185 l 398 1139 q 316 1074 381 1074 q 250 1133 271 1074 l 248 1146 l 248 1158 q 267 1199 252 1180 q 322 1224 293 1224 m 314 1061 l 318 1060 l 343 1061 l 362 1061 l 375 1058 l 373 1053 l 375 1049 l 373 1022 l 373 979 l 375 969 l 373 965 l 375 951 l 373 951 l 375 949 l 375 943 l 373 942 l 375 940 l 375 930 l 373 929 l 375 924 l 377 620 l 375 609 l 377 607 l 377 604 l 375 598 l 377 591 l 375 589 l 375 588 l 377 578 l 375 570 l 375 568 l 377 568 l 375 552 l 375 460 l 373 459 l 375 457 l 375 455 l 371 440 l 373 434 q 277 346 303 376 l 274 346 l 271 347 l 270 347 l 275 562 l 274 562 l 274 564 l 275 570 l 275 572 l 274 581 l 275 588 l 275 591 l 274 591 l 275 601 l 275 634 l 274 640 l 275 651 l 275 835 l 274 850 l 275 854 l 274 866 l 275 872 l 274 873 l 274 877 l 275 877 l 274 893 l 274 967 l 271 973 l 274 980 l 271 1004 l 274 1004 l 271 1005 l 271 1057 l 275 1060 l 290 1060 l 314 1061 m 604 639 l 604 639 l 661 575 l 661 572 q 496 408 604 507 l 353 280 q 189 186 246 186 l 162 184 q 83 225 130 184 q 55 289 55 265 l 55 312 q 78 375 55 335 l 102 396 q 208 430 143 430 q 262 410 252 421 l 262 385 l 261 379 l 262 377 l 261 369 l 262 362 l 259 347 l 262 340 q 239 324 246 324 q 206 338 237 330 q 164 312 164 332 l 164 303 q 192 287 173 287 q 293 349 230 287 q 588 626 432 478 l 604 639 m 390 303 q 516 181 396 303 l 565 134 l 666 36 l 600 -25 q 581 -10 590 -25 q 402 170 457 109 l 377 192 l 377 193 l 378 200 l 377 211 l 377 227 l 378 235 l 377 242 l 378 248 l 377 252 l 378 274 l 378 282 l 377 289 q 390 303 377 294 m 365 276 l 366 276 q 370 264 370 276 l 371 264 l 370 252 l 370 196 l 368 193 l 370 192 l 370 183 l 368 181 l 370 180 l 368 168 l 368 78 l 366 71 l 368 71 l 366 59 l 366 24 q 356 1 366 1 l 328 2 l 326 1 l 318 2 l 270 3 q 267 40 267 11 l 267 73 l 269 75 l 267 77 l 269 81 l 267 87 l 269 111 l 269 190 q 293 214 269 205 q 365 276 333 240 "},"\"":{"x_min":64,"x_max":428,"ha":469,"o":"m 97 642 l 64 831 l 64 994 l 203 994 l 203 831 l 172 642 l 97 642 m 322 642 l 289 831 l 289 994 l 428 994 l 428 831 l 395 642 l 322 642 "},"˙":{"x_min":155,"x_max":306,"ha":349,"o":"m 155 810 l 155 962 l 306 962 l 306 810 l 155 810 "},"ê":{"x_min":50.859375,"x_max":693.421875,"ha":733,"o":"m 353 980 l 364 979 q 554 912 489 975 q 659 790 625 876 q 689 678 690 717 l 687 641 l 689 628 q 650 512 675 552 l 641 497 q 693 288 697 402 q 665 183 691 252 q 649 146 661 183 q 585 79 613 99 q 423 4 532 29 l 421 6 l 419 6 q 371 0 411 2 q 265 20 265 15 q 128 126 213 37 q 66 303 63 219 l 67 316 q 80 399 69 382 l 78 401 l 78 404 q 120 495 92 447 q 99 529 121 501 q 73 588 77 564 q 59 663 63 600 l 61 713 q 115 846 72 793 q 284 965 210 950 q 353 980 305 972 m 190 698 q 209 593 187 617 l 262 623 q 381 648 323 650 l 383 648 q 543 601 458 645 l 544 601 q 559 646 549 604 l 558 657 l 559 656 l 558 659 l 558 666 q 457 836 562 769 l 423 849 l 420 847 l 381 852 q 269 823 343 853 q 205 743 217 779 q 190 698 198 744 m 293 501 q 375 474 343 475 q 472 499 415 472 l 472 500 q 408 522 439 521 l 385 523 l 377 526 q 295 506 319 521 l 293 505 l 293 501 m 383 353 l 375 354 q 263 377 344 354 q 227 394 263 381 l 204 417 q 185 341 186 387 l 186 317 l 183 317 q 213 218 187 267 q 339 135 273 138 l 352 132 l 352 130 l 354 132 l 364 130 l 402 128 q 483 161 458 142 q 547 230 529 189 q 567 308 554 230 l 567 325 q 551 411 569 368 l 549 411 q 383 353 474 350 m 55 1148 l 685 1148 l 685 1246 l 50 1246 l 55 1148 m 376 925 l 299 809 l 160 809 l 306 999 l 436 999 l 589 809 l 451 809 l 376 925 "},"„":{"x_min":48,"x_max":400,"ha":443,"o":"m 59 0 l 59 142 l 190 142 l 190 29 q 168 -101 190 -61 q 77 -184 139 -156 l 48 -135 q 122 0 118 -107 l 59 0 m 269 0 l 269 142 l 400 142 l 400 29 q 378 -101 400 -61 q 288 -184 349 -156 l 258 -135 q 332 0 328 -107 l 269 0 "},"ч":{"x_min":51,"x_max":585,"ha":635,"o":"m 321 636 q 383 611 357 636 q 409 551 409 586 q 383 490 409 515 q 321 466 357 466 q 258 490 284 466 q 233 551 233 515 q 258 611 233 586 q 321 636 284 636 m 51 735 l 176 735 l 176 425 l 461 425 l 461 735 l 585 735 l 585 304 l 385 304 l 385 -3 l 248 -3 l 248 304 l 51 304 l 51 735 "},"δ":{"x_min":49,"x_max":725,"ha":754,"o":"m 118 994 l 661 994 l 661 895 l 281 895 q 494 726 348 826 q 665 571 618 640 q 725 352 725 485 q 638 88 725 188 q 383 -16 546 -16 q 134 89 225 -16 q 49 350 49 189 q 123 597 49 499 q 350 710 205 705 q 118 905 287 754 l 118 994 m 174 348 q 227 168 174 242 q 390 85 287 85 q 551 168 495 85 q 600 349 600 239 q 550 532 600 459 q 387 616 493 616 q 224 531 283 616 q 174 348 174 457 "},"Į":{"x_min":67.828125,"x_max":752.15625,"ha":814,"o":"m 752 345 q 675 281 752 281 q 549 305 619 281 l 476 331 l 465 301 l 583 244 q 668 144 668 202 q 604 78 668 78 q 446 283 552 78 q 426 274 438 277 q 457 172 444 215 q 474 69 474 112 q 409 0 474 0 q 345 69 345 0 q 399 274 345 122 l 372 283 q 305 157 350 240 q 212 78 262 78 q 149 144 149 78 q 234 243 149 198 q 354 301 236 244 q 343 331 346 318 q 244 299 278 309 q 143 281 185 281 q 67 345 67 281 q 143 412 67 412 q 240 394 187 412 l 343 357 q 354 391 346 373 q 234 448 314 409 q 149 546 149 491 q 212 615 149 615 q 305 535 261 615 q 372 408 330 489 l 397 416 q 372 491 396 422 q 345 620 345 571 q 409 693 345 693 q 474 620 474 693 q 455 522 474 576 l 420 418 l 446 408 l 512 534 q 604 615 558 615 q 668 546 668 615 q 583 448 668 493 q 465 391 552 433 l 476 357 q 573 392 540 381 q 675 412 632 412 q 752 345 752 412 m 448 345 q 409 385 448 385 q 370 345 370 385 q 409 305 370 305 q 448 345 448 305 "},"ė":{"x_min":50.71875,"x_max":693.28125,"ha":735,"o":"m 353 980 l 364 979 q 553 912 488 975 q 659 790 625 876 q 688 678 690 717 l 687 641 l 689 628 q 650 512 675 552 l 641 497 q 693 288 697 402 q 665 183 691 252 q 648 146 661 183 q 585 79 612 99 q 423 4 532 29 l 421 6 l 419 6 q 371 0 411 2 q 265 20 265 15 q 128 126 213 37 q 66 303 63 219 l 67 316 q 80 399 69 382 l 77 401 l 77 404 q 120 495 92 447 q 99 529 121 501 q 73 588 77 564 q 58 663 63 600 l 60 713 q 115 846 72 793 q 284 965 210 950 q 353 980 305 972 m 190 698 q 209 593 187 617 l 262 623 q 381 648 323 650 l 383 648 q 543 601 458 645 l 544 601 q 559 646 549 604 l 558 657 l 559 656 l 558 659 l 558 666 q 456 836 562 769 l 423 849 l 420 847 l 381 852 q 269 823 343 853 q 205 743 216 779 q 190 698 197 744 m 292 501 q 374 474 343 475 q 471 499 415 472 l 471 500 q 408 522 439 521 l 385 523 l 376 526 q 295 506 319 521 l 292 505 l 292 501 m 383 353 l 374 354 q 263 377 344 354 q 227 394 263 381 l 204 417 q 185 341 186 387 l 186 317 l 183 317 q 213 218 187 267 q 339 135 273 138 l 352 132 l 352 130 l 353 132 l 364 130 l 402 128 q 483 161 458 142 q 547 230 529 189 q 567 308 554 230 l 567 325 q 551 411 569 368 l 549 411 q 383 353 473 350 m 55 1148 l 684 1148 l 684 1246 l 50 1246 l 55 1148 m 316 810 l 316 962 l 467 962 l 467 810 l 316 810 "},"ω":{"x_min":59,"x_max":1026,"ha":1062,"o":"m 166 720 l 284 720 q 183 343 183 497 q 214 176 183 249 q 337 80 255 80 q 421 115 382 80 q 469 195 457 149 q 482 328 482 242 l 482 539 l 603 539 l 603 328 q 666 113 603 168 q 748 80 704 80 q 871 177 829 80 q 902 343 902 249 q 800 720 902 497 l 918 720 q 1026 350 1026 529 q 969 104 1026 202 q 762 -16 899 -16 q 542 146 608 -16 q 322 -16 476 -16 q 116 104 185 -16 q 59 350 59 202 q 166 720 59 529 "},"´":{"x_min":150,"x_max":400.265625,"ha":429,"o":"m 150 810 l 240 1000 l 400 1000 l 251 810 l 150 810 "},"И":{"x_min":55,"x_max":585,"ha":597,"o":"m 244 776 l 244 -1 l 410 -1 l 410 776 l 244 776 m 173 1056 q 258 1023 223 1056 q 293 946 293 991 q 258 869 293 901 q 173 837 223 837 q 89 869 124 837 q 55 946 55 901 q 89 1023 55 991 q 173 1056 124 1056 m 466 1056 q 550 1023 515 1056 q 585 946 585 991 q 550 869 585 901 q 466 837 515 837 q 382 869 417 837 q 348 946 348 901 q 382 1023 348 991 q 466 1056 417 1056 "},"Љ":{"x_min":65.109375,"x_max":650.421875,"ha":723,"o":"m 379 413 l 379 603 l 333 603 l 333 413 l 379 413 m 257 479 l 452 479 l 452 523 l 257 523 l 257 479 m 547 596 q 257 216 387 385 q 223 109 223 170 q 249 21 223 52 q 295 -3 261 6 q 364 -14 329 -14 q 427 1 406 -14 q 480 115 480 40 q 423 268 480 194 l 369 195 q 401 131 400 146 q 389 76 406 93 q 354 60 372 60 q 320 79 335 60 q 307 117 307 101 q 324 160 307 137 q 642 604 450 335 q 639 606 639 607 q 547 596 550 596 m 344 352 q 164 605 225 516 q 66 598 65 602 q 195 415 145 482 q 291 284 293 285 l 344 352 m 333 796 l 333 605 l 379 605 l 379 796 l 333 796 m 257 685 l 452 685 l 452 729 l 257 729 l 257 685 m 552 600 q 585 598 550 596 q 650 607 642 599 q 324 1048 450 874 q 307 1091 307 1072 q 320 1129 307 1108 q 354 1148 335 1148 q 389 1131 372 1148 q 401 1077 406 1115 q 369 1013 400 1062 l 423 940 q 480 1093 480 1014 q 427 1207 480 1168 q 364 1223 406 1223 q 295 1213 329 1223 q 249 1188 261 1202 q 223 1099 223 1157 q 257 992 223 1038 q 552 600 387 824 m 344 855 l 291 924 q 195 793 293 923 q 65 598 145 727 q 164 605 92 604 q 344 855 225 692 "},"р":{"x_min":34,"x_max":611.15625,"ha":632,"o":"m 34 -269 q 106 -19 106 -211 q 76 215 106 81 q 47 464 47 349 q 124 654 47 573 q 310 735 202 735 q 478 690 403 735 q 611 432 606 614 q 541 222 614 299 q 411 147 491 169 q 360 137 371 137 q 246 185 294 141 l 223 375 q 345 282 283 282 q 470 432 470 282 q 416 555 470 508 q 323 595 372 595 q 238 551 281 595 q 191 449 193 505 q 208 265 189 411 q 227 68 227 115 q 34 -269 223 -152 "},"Ω":{"x_min":66,"x_max":973,"ha":1006,"o":"m 66 117 l 283 117 q 77 537 77 289 q 284 949 77 819 q 522 1011 383 1011 q 903 790 780 1011 q 963 537 963 684 q 756 117 963 289 l 973 117 l 973 0 l 586 0 l 586 109 q 829 517 829 222 q 754 777 829 670 q 522 898 669 898 q 289 780 375 898 q 213 523 213 675 q 453 109 213 225 l 453 0 l 66 0 l 66 117 "},"т":{"x_min":58,"x_max":676,"ha":686,"o":"m 58 735 l 676 735 l 676 605 l 437 605 l 437 4 l 297 4 l 297 605 l 58 605 l 58 735 "},"П":{"x_min":51,"x_max":776,"ha":819,"o":"m 51 1016 l 776 1016 l 776 -2 l 601 -2 l 601 862 l 225 862 l 225 -2 l 51 -2 l 51 1016 "},"Ö":{"x_min":67.640625,"x_max":727,"ha":1049,"o":"m 667 294 q 629 122 667 178 q 454 -46 583 17 l 454 -44 q 379 -61 454 -48 q 170 12 244 -61 q 135 52 158 17 l 122 67 l 122 78 q 80 158 108 79 q 67 271 67 224 l 85 399 l 122 542 q 151 703 151 645 l 153 705 l 151 707 l 153 733 l 153 758 q 94 973 153 815 l 87 1056 q 153 1188 87 1122 q 276 1239 218 1239 q 416 1184 357 1239 q 473 1058 461 1127 l 478 1019 l 478 1017 l 476 1008 l 478 1006 q 439 889 472 947 q 311 810 387 824 q 285 826 285 810 q 199 960 285 859 q 168 1032 168 1011 q 164 1041 168 1041 l 161 1041 l 159 1032 l 175 984 q 234 893 197 940 q 285 784 262 862 l 305 682 l 305 678 l 302 678 l 305 656 l 305 617 l 302 604 l 305 601 l 305 599 q 283 558 299 558 l 241 533 q 193 496 198 507 l 193 494 q 315 553 281 553 q 416 567 315 562 q 560 503 507 547 q 638 406 608 459 q 663 324 643 406 l 667 294 m 379 402 l 370 402 q 283 344 334 402 q 248 234 248 287 l 248 228 l 245 219 q 274 131 245 190 q 331 94 301 101 l 355 90 q 379 94 364 94 l 379 99 l 381 99 l 384 96 q 489 280 489 135 q 379 402 473 402 m 381 19 l 377 19 l 377 12 l 381 12 l 381 19 m 276 1104 q 214 1049 236 1104 l 212 1028 q 248 962 224 962 q 271 951 258 951 q 324 975 324 960 q 344 1017 338 988 l 344 1037 l 346 1039 q 305 1098 346 1074 q 276 1104 289 1104 m 347 1055 l 347 1194 l 475 1194 l 475 1055 l 347 1055 m 599 1055 l 599 1194 l 727 1194 l 727 1055 l 599 1055 "},"z":{"x_min":27.125,"x_max":664.65625,"ha":671,"o":"m 345 0 q 27 49 27 0 q 256 362 27 99 q 446 623 485 625 q 377 621 407 621 q 201 621 347 621 q 54 670 54 621 q 348 720 54 720 q 642 679 642 720 q 410 369 642 639 q 218 102 177 99 q 295 105 259 105 q 498 105 331 105 q 664 52 664 105 q 345 0 664 0 "},"™":{"x_min":152,"x_max":1209,"ha":1253,"o":"m 331 442 l 331 912 l 152 912 l 152 994 l 603 994 l 603 912 l 423 912 l 423 442 l 331 442 m 665 442 l 665 994 l 801 994 l 940 552 l 1075 994 l 1209 994 l 1209 442 l 1125 442 l 1125 905 l 982 442 l 898 442 l 750 913 l 750 442 l 665 442 "},"Θ":{"x_min":65,"x_max":1016,"ha":1047,"o":"m 65 484 q 185 858 65 714 q 541 1012 315 1012 q 891 861 760 1012 q 1016 495 1016 718 q 890 132 1016 274 q 540 -17 758 -17 q 286 52 400 -17 q 115 250 168 124 q 65 484 65 368 m 201 482 q 286 211 201 317 q 539 96 379 96 q 797 216 705 96 q 880 496 880 325 q 798 776 880 667 q 541 899 707 899 q 278 774 367 899 q 201 482 201 665 m 344 439 l 344 555 l 737 555 l 737 439 l 344 439 "},"ã":{"x_min":50.53125,"x_max":809.46875,"ha":721,"o":"m 328 470 q 192 661 330 471 q 50 857 121 759 q 167 939 106 897 q 286 754 179 918 q 410 580 402 580 l 328 470 m 435 339 q 502 231 499 255 q 484 148 508 172 q 438 125 462 125 q 378 158 404 125 q 359 227 359 195 q 386 305 359 264 q 809 857 548 543 q 754 900 806 859 q 702 940 707 940 q 702 939 702 940 q 553 746 627 843 q 299 404 375 514 q 239 220 239 316 q 284 67 239 133 q 426 7 325 7 q 532 32 488 7 q 628 182 628 88 q 508 436 628 275 l 435 339 m 450 845 l 408 845 l 408 847 l 271 847 l 269 800 l 447 800 l 450 813 l 450 800 l 577 800 l 577 847 l 450 847 l 450 845 m 402 847 l 402 982 l 445 982 l 444 847 l 402 847 m 447 666 l 401 666 l 401 800 l 447 800 l 447 666 m 136 827 q 171 935 135 892 q 273 981 209 981 q 388 945 315 981 q 452 925 428 925 q 501 983 493 925 l 589 983 q 456 829 585 829 q 344 866 414 829 q 277 891 298 891 q 226 827 224 891 l 136 827 "},"æ":{"x_min":46,"x_max":1178.625,"ha":1206,"o":"m 1175 220 q 858 -16 1105 -16 q 590 117 691 -16 q 292 -16 453 -16 q 121 34 189 -16 q 46 190 46 91 q 80 302 46 251 q 174 377 115 352 q 364 420 232 403 q 535 454 465 433 q 536 481 536 471 q 500 602 536 568 q 376 636 463 636 q 216 581 256 636 q 184 497 197 555 l 65 511 q 222 710 101 662 q 377 737 288 737 q 560 702 490 737 q 627 639 600 682 q 858 737 716 737 q 1145 542 1071 737 q 1178 369 1178 454 q 1177 328 1178 356 l 657 328 q 674 205 658 246 q 754 114 695 148 q 863 85 803 85 q 1048 236 1009 85 l 1175 220 m 657 429 l 1053 429 q 857 636 1034 636 q 713 577 766 636 q 657 429 663 521 m 537 361 q 319 311 483 337 q 215 277 244 299 q 176 193 176 246 q 219 107 176 137 q 316 80 257 80 q 444 113 386 80 q 527 214 508 151 q 537 361 537 248 "},"É":{"x_min":110.515625,"x_max":694.515625,"ha":815,"o":"m 269 434 q 285 480 270 459 q 316 515 301 502 q 362 505 327 510 q 396 509 382 504 q 409 523 411 513 q 375 543 407 548 q 305 531 314 535 q 256 434 271 511 q 253 413 253 424 q 463 200 251 303 q 607 98 536 164 q 682 -33 689 20 q 653 10 685 -21 q 479 104 598 63 q 303 168 332 156 q 181 256 221 204 q 120 421 134 316 q 118 446 118 434 q 237 600 120 545 q 394 638 327 644 q 492 605 449 632 q 553 517 549 571 q 499 425 556 461 q 379 400 446 394 q 269 434 298 408 m 118 502 q 170 578 132 548 q 275 630 192 595 q 274 657 274 659 q 433 826 276 743 q 588 902 516 869 q 638 935 615 914 q 694 1024 680 971 q 651 978 671 992 q 488 920 598 942 q 110 585 115 843 q 118 502 109 547 m 416 1056 l 506 1246 l 666 1246 l 517 1056 l 416 1056 "},"и":{"x_min":48.671875,"x_max":847.953125,"ha":864,"o":"m 128 745 l 237 696 q 175 350 169 519 q 214 167 179 220 q 312 121 244 122 q 426 168 362 119 l 500 74 q 306 -11 426 -11 q 131 87 205 -11 q 49 355 53 191 q 128 745 43 565 m 598 181 l 539 278 q 613 482 613 358 q 561 620 612 611 q 482 465 489 615 q 526 274 478 390 q 678 124 587 129 q 767 184 733 121 l 847 101 q 675 -6 787 -6 q 470 128 571 -6 q 365 419 367 266 q 418 660 362 569 q 552 745 471 745 q 678 675 627 745 q 731 511 727 608 q 598 181 739 283 "},"ŀ":{"x_min":88.6875,"x_max":808.28125,"ha":468,"o":"m 176 956 l 180 956 q 583 460 433 653 q 673 222 673 362 q 612 72 673 154 l 555 29 q 479 10 520 10 l 470 8 q 345 54 404 14 q 252 207 278 104 l 248 247 l 252 309 l 250 312 l 250 314 q 286 427 260 373 q 356 512 294 451 l 374 517 l 376 517 q 392 353 389 517 q 376 272 376 312 q 392 196 376 240 l 398 160 l 398 144 l 395 141 l 398 139 l 395 128 l 395 68 l 494 69 l 496 69 l 505 72 l 515 69 q 534 79 534 69 l 535 85 l 531 172 q 551 248 551 200 q 494 381 534 337 q 483 401 489 381 l 414 480 l 414 478 q 509 341 437 434 q 523 325 509 336 l 523 320 l 520 314 l 523 303 l 523 247 l 524 210 l 523 210 l 524 207 l 524 203 l 523 203 l 524 149 l 524 113 l 523 94 l 526 79 l 524 76 l 465 76 l 433 74 l 433 76 l 427 74 q 409 80 409 76 l 404 253 l 406 261 l 404 270 l 406 272 l 404 283 q 398 482 404 385 l 404 484 l 404 491 l 206 737 l 117 842 q 88 881 94 866 l 88 887 q 176 956 107 897 m 431 923 l 433 921 l 435 921 l 465 923 l 468 923 l 470 921 l 472 923 l 503 923 q 511 903 511 919 l 511 887 l 513 785 l 511 785 l 513 783 l 513 759 l 518 602 l 518 588 l 523 585 l 562 591 l 570 588 l 590 591 l 607 591 q 721 554 676 577 q 808 484 765 532 l 808 467 q 797 457 804 457 q 764 476 785 457 q 682 493 714 493 l 673 491 l 671 493 l 668 491 l 655 491 q 618 480 636 491 l 612 482 q 594 476 612 477 q 537 550 582 499 q 507 587 511 587 q 470 635 507 598 l 400 724 q 392 815 392 729 l 392 822 l 389 842 l 392 844 l 389 859 l 389 875 l 390 946 l 389 921 l 422 921 l 431 923 m 459 -12 q 551 -86 532 -12 l 551 -110 q 503 -177 551 -147 q 465 -187 483 -187 q 385 -135 409 -187 q 376 -99 376 -113 l 376 -94 q 431 -18 376 -46 q 459 -12 459 -14 m 351 432 l 351 571 l 490 571 l 490 432 l 351 432 "},"~":{"x_min":59,"x_max":752.828125,"ha":794,"o":"m 59 378 l 59 516 q 247 598 130 598 q 460 538 321 598 q 577 506 535 506 q 752 600 668 506 l 752 455 q 564 378 670 378 q 370 433 493 378 q 236 470 289 470 q 59 378 154 470 "},"³":{"x_min":23,"x_max":439,"ha":478,"o":"m 23 630 l 122 640 q 157 584 135 599 q 226 564 186 564 q 299 587 269 564 q 333 654 333 612 q 225 729 333 729 q 206 728 219 729 q 187 728 193 728 l 202 802 q 309 870 309 800 q 228 931 309 931 q 131 862 158 931 l 34 877 q 106 977 63 949 q 228 1006 149 1006 q 415 879 415 1006 q 321 770 415 797 q 439 641 439 741 q 371 521 439 564 q 232 485 314 485 q 23 630 52 485 "},"¡":{"x_min":157,"x_max":308,"ha":343,"o":"m 302 720 l 302 581 l 162 581 l 162 720 l 302 720 m 270 472 l 308 -53 l 308 -274 l 157 -274 l 157 -53 l 192 472 l 270 472 "},"[":{"x_min":65.78125,"x_max":799.625,"ha":834,"o":"m 308 978 l 312 978 l 419 883 l 419 876 q 312 742 350 809 q 276 688 312 737 q 198 444 198 526 l 196 425 l 198 422 l 198 421 l 196 395 q 225 250 196 331 q 324 143 263 165 l 347 134 l 350 134 q 404 147 391 134 l 413 147 q 453 124 420 147 q 522 107 493 107 l 532 109 q 554 101 554 107 l 554 99 q 520 63 539 91 q 480 38 515 63 l 394 8 l 373 12 l 370 11 l 337 15 l 322 12 q 217 69 248 33 q 126 172 138 140 q 76 366 76 284 l 75 372 l 76 375 l 75 384 l 75 410 l 72 418 l 75 426 l 75 436 q 107 628 83 552 l 145 723 q 247 895 175 792 q 308 978 247 901 m 497 558 q 608 483 565 558 q 649 372 649 427 l 646 366 l 649 352 q 627 276 649 284 q 588 257 615 265 l 556 257 q 528 263 551 261 q 514 273 514 269 l 518 280 l 516 295 l 524 356 q 490 425 520 425 l 484 425 q 463 372 463 403 l 463 338 q 539 235 463 261 l 577 235 q 665 295 639 257 l 692 319 l 696 319 l 771 240 l 768 238 l 768 235 l 771 233 q 616 130 695 147 l 569 122 q 419 168 472 122 l 398 189 q 347 345 347 259 l 347 356 q 415 524 347 453 q 482 555 450 555 l 497 558 m 65 1127 l 799 1127 l 799 1237 l 65 1237 l 65 1127 "},"ζ":{"x_min":49,"x_max":601,"ha":594,"o":"m 159 994 l 601 994 l 601 911 q 312 642 435 809 q 172 280 172 452 q 208 160 172 199 q 327 114 245 120 q 451 97 420 105 q 554 33 518 80 q 588 -69 588 -9 q 549 -188 588 -132 q 453 -269 511 -245 q 323 -292 399 -292 l 356 -179 q 471 -83 471 -166 q 407 -7 471 -22 q 307 1 379 -1 q 74 143 131 6 q 49 285 49 206 q 174 632 49 451 q 441 895 285 789 l 159 895 l 159 994 "},"К":{"x_min":54,"x_max":669.140625,"ha":679,"o":"m 669 1025 l 144 532 l 668 1 l 338 528 l 669 1025 m 54 1020 l 54 1 l 229 1 l 229 1020 l 54 1020 "},"Γ":{"x_min":111,"x_max":732.25,"ha":690,"o":"m 111 994 l 732 994 l 732 877 l 243 877 l 243 0 l 111 0 l 111 994 "},"ѳ":{"x_min":62,"x_max":710,"ha":748,"o":"m 62 497 q 386 1011 62 1011 q 710 497 710 1011 q 386 -16 710 -16 q 62 497 62 -16 m 188 546 l 584 546 q 384 910 572 910 q 188 546 195 910 m 584 448 l 188 448 q 386 85 195 85 q 584 448 577 85 "},"%":{"x_min":58.328125,"x_max":639.5625,"ha":689,"o":"m 355 987 q 609 836 514 987 q 639 708 639 774 l 639 693 q 617 582 635 629 q 502 461 559 483 q 460 441 484 446 q 355 379 426 379 l 342 379 q 304 392 304 387 q 274 381 289 390 l 265 383 q 240 352 265 373 q 210 264 210 311 q 259 172 210 219 q 349 142 301 142 l 358 142 q 406 155 381 142 q 474 270 474 187 q 444 343 465 307 l 444 345 q 526 413 457 360 q 554 429 538 429 q 626 280 626 354 l 626 249 l 629 240 q 588 129 629 198 q 447 18 539 52 q 370 0 385 0 q 189 42 248 0 q 105 119 153 60 q 58 239 72 155 l 58 247 q 115 437 58 373 q 227 518 172 504 l 250 529 q 363 609 281 609 q 413 595 379 609 l 415 595 q 466 653 448 613 q 477 707 477 681 q 413 819 477 778 q 346 832 381 832 q 255 783 281 819 q 231 697 231 752 l 231 696 l 229 693 q 257 623 236 652 l 261 619 l 141 541 l 135 541 q 82 644 111 562 l 71 701 l 71 765 q 101 848 79 805 q 263 975 155 937 q 355 987 290 987 m 314 486 q 358 450 314 457 q 402 497 393 450 q 363 535 394 535 l 353 535 q 314 497 314 524 l 314 486 m 440 -35 l 443 -37 l 443 -40 l 440 -43 l 439 -43 l 436 -40 l 436 -37 l 439 -35 l 440 -35 "},"P":{"x_min":67.828125,"x_max":745.359375,"ha":814,"o":"m 376 496 q 352 632 364 564 q 334 795 330 765 q 379 882 340 849 q 465 911 419 916 q 586 788 587 902 q 482 655 585 693 q 377 636 430 636 l 400 509 q 491 513 446 512 q 656 577 594 527 q 745 788 745 649 q 688 963 745 890 q 438 1060 609 1065 q 240 974 318 1056 q 171 840 181 911 q 171 820 171 832 q 193 655 171 772 q 223 496 221 516 q 231 410 231 427 q 225 283 231 388 q 166 88 220 184 q 90 -27 128 30 q 191 67 141 19 q 312 206 267 141 q 381 426 381 305 q 376 496 381 459 m 78 636 l 78 508 l 196 508 l 172 636 l 78 636 m 67 1135 l 67 1234 l 742 1234 l 742 1135 l 67 1135 "},"∏":{"x_min":109,"x_max":1033,"ha":1079,"o":"m 109 1011 l 1033 1011 l 1033 -292 l 903 -292 l 903 893 l 240 893 l 240 -292 l 109 -292 l 109 1011 "},"_":{"x_min":69.859375,"x_max":501.203125,"ha":550,"o":"m 183 317 l 184 317 q 197 303 190 317 q 290 166 209 288 l 290 166 q 379 286 318 202 l 402 314 l 403 314 q 441 286 427 294 q 399 229 417 251 q 356 168 396 223 q 342 147 343 151 l 347 147 l 366 147 l 370 145 l 373 147 l 381 145 l 385 147 l 407 145 l 440 145 l 446 145 l 451 145 l 451 145 l 452 145 l 453 145 l 457 145 l 459 145 l 473 145 l 473 145 l 474 145 l 478 145 l 482 145 l 487 145 q 501 142 499 145 l 499 116 l 500 113 l 499 101 l 499 93 q 495 90 499 92 l 491 92 l 355 94 l 355 95 l 354 94 l 343 95 l 340 95 l 339 93 l 339 92 l 418 -27 q 425 -38 423 -32 q 430 -46 430 -40 l 430 -48 q 415 -58 427 -51 q 391 -73 396 -73 q 291 75 349 -11 l 290 76 l 290 76 q 262 38 288 76 q 202 -41 254 29 l 179 -71 l 178 -71 l 138 -43 l 138 -41 l 222 73 q 238 96 238 94 l 238 97 l 230 97 l 224 98 l 216 97 l 200 97 l 187 98 l 186 97 l 181 98 l 162 98 l 162 99 l 160 98 l 157 98 l 147 99 l 143 98 l 143 99 l 141 99 l 141 98 l 136 99 l 118 99 l 118 100 l 116 99 l 96 100 l 83 100 l 69 101 l 69 149 l 71 151 l 77 151 l 78 150 l 78 151 l 115 150 l 157 150 l 170 149 l 170 150 l 181 149 l 214 149 l 217 148 l 221 149 l 222 149 l 231 148 l 239 149 l 239 150 l 168 255 q 145 291 145 287 l 145 292 l 183 317 m 162 167 l 164 166 l 162 164 l 160 166 l 162 167 m 140 164 l 141 163 l 140 161 l 138 163 l 140 164 m 287 150 l 287 149 l 288 147 l 293 148 l 293 150 l 291 153 l 290 153 l 287 150 m 250 139 l 250 137 q 257 128 257 128 l 261 126 l 263 126 l 263 131 l 259 137 l 261 139 l 268 139 l 272 139 l 272 141 l 257 143 q 250 139 250 141 m 280 142 q 266 120 266 125 q 277 106 272 111 q 283 101 277 101 q 295 85 288 89 q 307 101 307 98 l 304 106 l 314 120 q 297 141 301 141 l 280 142 m 310 141 l 309 141 l 307 139 l 309 137 l 311 137 l 318 139 l 321 137 q 316 126 316 129 l 317 125 l 318 125 l 329 139 l 329 140 l 328 142 l 310 141 m 280 131 l 282 130 l 282 130 l 285 131 q 294 114 294 119 l 294 113 q 283 98 288 101 l 277 98 q 261 112 267 112 l 261 116 l 269 130 l 280 131 m 252 103 l 252 103 l 271 103 l 271 103 l 269 105 l 268 105 l 262 104 l 260 107 l 263 112 l 263 115 l 262 117 q 252 103 252 109 m 316 113 l 316 111 l 320 106 l 320 104 l 318 103 l 318 103 l 312 103 l 309 103 q 317 101 309 101 l 320 101 l 324 101 l 325 103 l 320 113 l 316 113 m 297 101 l 299 99 l 294 92 q 288 101 290 96 l 290 101 l 297 101 "},"ñ":{"x_min":91.546875,"x_max":1040.375,"ha":726,"o":"m 138 642 q 131 681 138 642 q 128 742 128 706 q 182 868 128 803 q 347 949 248 949 q 488 922 434 949 q 572 845 531 899 q 657 732 615 788 q 766 663 686 696 q 964 611 853 628 q 813 598 879 598 q 563 676 630 598 q 478 777 521 727 q 348 822 427 824 q 224 765 293 820 q 138 642 149 706 m 343 621 q 349 639 344 621 q 354 676 354 658 q 337 717 354 708 q 287 729 316 729 q 247 721 264 729 q 286 760 258 740 q 354 786 321 786 q 398 771 377 786 q 408 741 408 763 q 389 670 408 708 q 343 621 370 630 m 195 649 q 153 598 174 624 q 121 524 131 568 q 108 370 108 467 q 187 106 108 206 q 413 -1 269 3 q 507 22 450 -2 q 557 49 557 44 q 614 17 575 32 q 709 -2 663 -2 q 885 30 832 -2 q 1009 333 994 102 q 1010 366 1010 349 q 996 513 1010 431 q 983 582 983 594 l 851 553 q 872 343 874 469 q 847 198 870 243 q 716 127 812 132 q 607 163 659 124 q 566 202 566 194 q 505 164 545 184 q 410 135 452 137 q 299 200 349 133 q 245 370 245 270 q 263 512 245 463 q 299 577 269 532 l 195 649 m 91 1101 l 1040 1101 l 1040 1233 l 91 1233 l 91 1101 m 219 827 q 254 935 218 892 q 356 981 292 981 q 471 945 398 981 q 535 925 511 925 q 584 983 576 925 l 672 983 q 539 829 668 829 q 427 866 497 829 q 360 891 381 891 q 309 827 307 891 l 219 827 "},"‚":{"x_min":73,"x_max":215,"ha":258,"o":"m 84 0 l 84 142 l 215 142 l 215 29 q 193 -101 215 -61 q 102 -184 164 -156 l 73 -135 q 147 0 143 -107 l 84 0 "},"Ρ":{"x_min":106.828125,"x_max":784.359375,"ha":853,"o":"m 415 496 q 391 632 403 564 q 373 795 369 765 q 418 882 379 849 q 504 911 458 916 q 625 788 626 902 q 521 655 624 693 q 416 636 469 636 l 439 509 q 530 513 485 512 q 695 577 633 527 q 784 788 784 649 q 727 963 784 890 q 477 1060 648 1065 q 279 974 357 1056 q 210 840 220 911 q 210 820 210 832 q 232 655 210 772 q 262 496 260 516 q 270 410 270 427 q 264 283 270 388 q 205 88 259 184 q 129 -27 167 30 q 230 67 180 19 q 351 206 306 141 q 420 426 420 305 q 415 496 420 459 m 117 636 l 117 508 l 235 508 l 211 636 l 117 636 m 106 1135 l 106 1234 l 781 1234 l 781 1135 l 106 1135 "},"Æ":{"x_min":0,"x_max":1312.375,"ha":1289,"o":"m 0 0 l 478 994 l 1294 994 l 1294 877 l 794 877 l 794 571 l 1258 571 l 1258 455 l 794 455 l 794 117 l 1312 117 l 1312 0 l 662 0 l 662 287 l 277 287 l 142 0 l 0 0 m 332 403 l 662 403 l 662 877 l 562 877 l 332 403 "},"ы":{"x_min":0,"x_max":586,"ha":627,"o":"m 501 934 q 554 913 533 934 q 576 865 576 893 q 555 811 576 834 q 501 786 533 786 q 449 810 470 786 q 428 865 428 834 q 448 913 428 893 q 501 934 469 934 m 436 734 l 572 734 l 572 350 q 436 465 507 450 l 436 734 m 0 941 q 184 753 107 886 q 273 487 257 628 q 117 381 189 466 q 123 488 123 433 q 90 740 123 619 q 0 941 57 864 m 342 471 q 514 396 440 471 q 586 236 586 325 q 518 69 586 139 q 342 -2 448 -2 q 161 68 227 -2 q 98 236 98 134 q 169 396 98 325 q 342 471 243 471 m 342 362 q 250 320 287 362 q 217 229 217 281 q 250 142 217 179 q 342 102 287 102 q 433 142 397 102 q 467 229 467 179 q 433 320 467 281 q 342 362 396 362 "},"ª":{"x_min":33,"x_max":488.09375,"ha":545,"o":"m 372 578 q 199 506 290 506 q 81 543 127 506 q 33 654 33 584 q 76 754 33 716 q 131 785 98 774 q 198 799 154 792 l 298 814 q 363 828 325 818 q 357 882 362 868 q 321 920 349 906 q 256 932 296 932 q 144 847 157 932 l 51 870 q 125 979 60 943 q 257 1011 178 1011 q 403 978 355 1011 q 460 846 460 939 l 460 642 q 488 518 458 554 l 387 518 q 372 578 374 545 m 362 748 q 232 724 325 739 q 134 654 134 708 q 162 602 134 620 q 222 587 186 587 q 305 611 268 587 q 357 678 343 635 q 362 748 361 693 "},"ї":{"x_min":6.109375,"x_max":386.59375,"ha":403,"o":"m 134 0 l 134 720 l 256 720 l 256 0 l 134 0 m 6 861 l 6 1000 l 133 1000 l 133 861 l 6 861 m 259 861 l 259 1000 l 386 1000 l 386 861 l 259 861 "},"Œ":{"x_min":87,"x_max":1344.4375,"ha":1325,"o":"m 1344 117 l 1344 0 l 760 0 l 760 143 q 488 -17 668 -17 q 179 140 283 -17 q 87 498 87 278 q 175 853 87 719 q 488 1011 279 1011 q 760 859 667 1011 l 760 994 l 1323 994 l 1323 877 l 883 877 l 883 573 l 1288 573 l 1288 457 l 883 457 l 883 117 l 1344 117 m 488 905 q 344 853 408 905 q 256 727 285 805 q 223 488 223 637 q 276 226 223 332 q 488 89 346 89 q 702 233 635 89 q 753 505 753 340 q 699 767 753 662 q 488 905 630 905 "},"T":{"x_min":57.65625,"x_max":746.046875,"ha":806,"o":"m 221 329 l 221 196 l 322 196 l 322 -2 l 481 -2 l 481 828 l 607 828 l 607 536 l 746 536 l 746 991 l 57 991 l 58 535 l 196 536 l 196 828 l 322 828 l 322 329 l 221 329 m 482 327 l 581 327 l 581 196 l 482 196 l 482 327 "},"Њ":{"x_min":56.96875,"x_max":887.796875,"ha":952,"o":"m 887 722 l 562 722 l 562 1017 l 399 1017 l 399 719 l 56 719 l 56 0 l 211 0 l 211 574 l 396 574 l 396 307 l 562 307 l 562 574 l 728 574 l 728 1 l 887 1 l 887 722 "},"Þ":{"x_min":107,"x_max":866,"ha":854,"o":"m 107 0 l 107 994 l 239 994 l 239 792 l 482 792 q 634 782 580 792 q 836 639 779 756 q 866 503 866 577 q 493 202 866 202 l 239 202 l 239 0 l 107 0 m 239 319 l 495 319 q 730 499 730 319 q 701 602 730 558 q 616 665 670 649 q 492 675 582 675 l 239 675 l 239 319 "},"j":{"x_min":61.71875,"x_max":1367.96875,"ha":1412,"o":"m 1367 574 l 1367 551 q 1317 411 1367 486 q 1227 339 1252 339 q 1154 313 1222 327 q 1096 308 1133 308 q 1022 324 1068 308 q 927 385 985 333 q 865 489 884 430 l 861 489 q 716 438 794 438 q 639 473 643 443 l 642 473 l 638 486 l 639 489 l 627 567 l 623 567 l 623 562 l 636 457 l 634 457 q 639 360 638 457 l 636 307 l 634 307 l 636 305 q 607 155 636 262 q 529 -2 590 99 q 504 -35 523 -4 l 496 -42 l 492 -37 q 523 59 507 -7 q 539 208 532 105 l 537 214 l 539 231 l 539 256 l 537 264 l 539 265 l 537 275 q 523 396 537 326 l 520 396 q 313 299 436 299 q 182 339 250 299 q 75 473 105 388 l 64 520 l 66 520 q 61 541 61 529 l 61 549 l 64 570 l 61 572 l 61 574 q 90 670 69 630 q 137 733 107 704 q 235 802 192 791 q 341 821 281 821 q 459 777 390 821 l 470 767 l 486 828 q 520 901 500 868 q 647 1003 571 975 q 734 1012 683 1012 l 738 1012 l 749 1013 q 846 976 817 1001 q 956 823 921 927 q 967 777 959 817 l 968 777 q 1031 812 968 789 q 1112 826 1051 820 l 1124 824 l 1125 826 l 1127 826 l 1190 815 l 1226 800 q 1246 789 1226 797 q 1317 719 1283 762 q 1367 574 1367 651 m 1117 702 q 1056 695 1081 702 q 996 634 1004 662 q 980 558 980 599 q 1045 446 980 489 q 1117 428 1079 428 q 1205 469 1159 428 q 1239 572 1239 509 q 1205 658 1230 629 q 1117 702 1155 702 m 744 884 l 742 882 l 734 884 q 647 849 693 884 l 623 813 q 604 704 604 770 q 642 604 607 657 q 708 572 682 572 l 719 572 q 794 605 748 572 q 840 721 840 654 q 819 821 840 763 q 749 882 790 872 l 744 884 m 318 698 l 311 696 l 303 698 q 221 639 240 676 q 196 548 196 596 q 226 458 206 476 q 311 413 269 413 l 334 413 q 388 432 374 421 q 445 543 445 480 q 415 647 445 609 q 318 698 383 698 m 368 548 l 364 543 l 362 545 l 362 548 l 366 551 l 368 549 l 368 548 "},"Ѱ":{"x_min":86,"x_max":1074,"ha":1086,"o":"m 86 994 l 218 994 l 218 726 q 289 499 218 570 q 514 420 356 432 l 514 994 l 646 994 l 646 420 q 872 506 803 429 q 942 742 942 584 l 942 994 l 1074 994 l 1074 713 q 646 307 1074 313 l 646 0 l 514 0 l 514 307 q 86 701 86 314 l 86 994 "},"Σ":{"x_min":100,"x_max":804,"ha":791,"o":"m 776 994 l 776 877 l 242 877 l 581 516 l 242 117 l 804 117 l 804 0 l 100 0 l 100 137 l 424 516 l 100 862 l 100 994 l 776 994 "},"1":{"x_min":100.96875,"x_max":517.421875,"ha":532,"o":"m 121 451 q 101 467 103 451 q 114 485 100 475 q 152 522 136 501 q 254 647 204 590 l 254 539 q 192 495 228 522 q 121 451 162 459 m 417 680 q 480 737 447 681 q 517 864 517 797 q 487 967 517 930 q 424 1000 460 1000 q 329 945 377 1000 q 266 752 266 873 l 266 46 q 280 9 266 18 q 331 0 293 1 q 358 -1 342 0 q 380 -3 374 -3 q 406 28 406 -3 l 406 838 q 420 862 406 862 q 426 849 426 862 q 417 817 426 826 l 417 680 "},"›":{"x_min":62,"x_max":369.234375,"ha":394,"o":"m 241 359 l 62 667 l 163 667 l 369 363 l 163 49 l 62 49 l 241 359 "},"ћ":{"x_min":67.828125,"x_max":818.65625,"ha":882,"o":"m 394 1220 q 537 1135 479 1219 q 564 1069 557 1098 l 563 1037 q 503 912 562 969 q 485 898 491 898 l 485 893 l 487 893 l 644 893 l 661 893 l 670 895 l 677 893 l 697 893 l 699 891 l 701 891 l 704 503 l 706 495 l 704 485 l 704 481 l 701 481 q 617 518 685 499 l 598 518 q 592 531 594 518 l 594 533 l 594 535 l 590 554 l 592 562 l 590 564 l 590 567 l 593 586 l 591 610 l 593 612 l 593 614 l 592 621 l 594 639 l 592 641 l 592 643 l 594 645 l 592 665 l 593 707 l 591 718 l 593 720 l 593 722 l 591 731 l 592 734 l 594 734 l 592 744 l 592 750 l 594 770 l 590 770 l 590 772 l 588 770 l 541 771 l 501 769 l 499 558 l 499 552 l 501 540 l 499 538 l 499 536 l 501 524 l 499 522 l 501 512 l 500 495 q 464 474 493 486 l 440 446 l 440 442 q 472 470 444 442 q 506 486 477 470 q 575 499 555 499 l 615 499 q 713 461 689 480 q 744 437 713 458 q 781 385 781 393 q 818 236 819 309 l 817 206 q 773 63 817 154 q 693 -4 731 6 q 628 -29 692 -11 l 576 -35 l 568 -33 l 566 -35 q 448 -2 485 -25 q 368 69 418 12 q 311 179 318 134 q 305 191 307 180 l 307 191 q 287 295 295 224 l 289 295 l 280 374 l 282 380 l 277 530 l 279 532 l 278 546 l 278 592 l 277 609 l 279 611 l 277 625 l 278 655 l 276 663 l 278 665 l 276 685 l 276 702 l 274 710 l 276 712 l 275 732 l 276 765 l 271 766 l 271 768 l 269 766 l 218 767 l 210 765 l 208 767 l 198 765 l 185 765 l 184 761 l 182 746 l 184 733 l 182 720 q 186 421 183 432 l 181 417 l 153 417 l 145 420 l 143 418 l 129 420 l 127 420 l 73 419 l 71 421 l 71 423 l 71 468 l 72 468 l 71 470 l 71 510 l 70 543 l 71 543 l 70 550 l 71 694 l 69 700 l 71 710 l 69 856 l 67 858 l 67 860 l 69 866 l 67 874 q 82 887 68 888 q 238 889 138 891 l 240 891 l 242 891 l 250 889 l 256 889 q 262 896 262 889 q 221 1015 246 956 l 202 1060 q 136 1156 177 1103 l 89 1206 l 89 1212 q 230 1123 130 1199 l 232 1123 q 259 1159 240 1127 q 358 1215 316 1216 l 394 1220 m 330 1047 q 349 1009 332 1028 q 394 991 366 997 q 452 1034 435 990 l 455 1053 q 396 1116 448 1115 q 330 1063 343 1117 l 330 1047 m 236 1117 q 223 1071 224 1096 l 223 1067 l 225 1058 l 227 1057 l 240 1098 l 240 1112 l 236 1117 m 494 244 q 567 98 492 127 l 590 94 l 598 95 l 610 93 q 662 126 650 103 q 693 191 678 139 l 697 218 l 695 220 l 695 224 l 697 234 q 666 341 698 290 q 591 377 639 375 q 509 316 548 377 q 494 244 494 273 "},"<":{"x_min":73.25,"x_max":731.796875,"ha":748,"o":"m 73 375 l 73 597 l 731 1139 l 731 902 l 209 484 l 731 63 l 731 -172 l 73 375 "},"Ц":{"x_min":52,"x_max":668.515625,"ha":712,"o":"m 52 1021 l 52 566 l 211 566 l 211 1021 l 52 1021 m 510 1017 l 510 5 l 668 5 l 668 1017 l 510 1017 m 52 459 l 638 459 l 638 615 l 52 615 l 52 459 "},"t":{"x_min":72.5625,"x_max":759.609375,"ha":819,"o":"m 336 660 l 336 162 l 210 162 l 210 457 l 73 454 l 72 0 l 759 0 l 759 454 l 621 454 l 621 162 l 495 162 l 495 992 l 336 992 l 336 792 l 236 792 l 236 660 l 336 660 m 496 792 l 594 792 l 594 662 l 496 662 l 496 792 "},"¬":{"x_min":77,"x_max":734,"ha":784,"o":"m 734 288 l 619 288 l 619 585 l 77 585 l 77 699 l 734 699 l 734 288 "},"ù":{"x_min":44.03125,"x_max":1017.359375,"ha":1085,"o":"m 543 1208 q 621 1167 579 1209 q 639 1120 639 1134 l 640 1091 q 590 1015 630 1042 q 531 1001 562 1002 q 436 1072 467 1000 l 431 1094 q 519 1207 430 1184 l 543 1208 m 521 970 q 535 962 521 966 q 541 953 535 953 l 548 955 l 548 958 q 539 962 548 962 l 537 964 l 537 966 l 543 969 q 790 894 655 971 q 933 747 901 813 q 1007 577 988 676 l 1017 498 q 968 293 1018 426 q 700 37 883 111 q 529 0 583 0 q 226 99 365 -2 q 121 219 137 180 q 44 478 46 337 q 127 750 42 609 q 226 864 159 803 q 521 970 358 967 m 482 944 l 476 902 l 478 900 l 478 897 l 474 884 q 484 912 485 884 q 495 930 484 930 l 546 927 l 548 929 l 559 927 l 568 927 l 577 934 q 595 890 587 890 l 597 891 l 594 912 l 596 914 l 594 916 l 594 919 l 596 921 l 596 923 q 588 943 596 943 l 574 940 l 561 942 l 559 940 l 556 940 l 554 942 l 552 942 l 545 940 l 515 942 l 504 942 l 495 939 l 482 944 m 137 476 q 222 238 139 349 q 326 145 279 172 q 455 99 379 115 q 481 95 455 94 l 484 95 l 486 102 l 483 137 l 482 145 l 484 159 l 482 170 l 482 174 l 484 177 l 482 179 l 484 205 l 483 227 l 485 238 l 483 253 l 482 394 l 485 394 l 482 396 l 484 418 l 484 471 q 487 508 484 508 l 484 535 l 484 596 l 485 620 l 483 622 l 485 638 l 484 724 l 485 748 l 483 750 l 485 765 l 483 862 l 485 864 l 481 877 q 326 824 375 859 q 170 643 219 756 q 137 476 134 564 m 580 870 l 581 831 l 579 640 l 581 637 l 579 626 l 581 565 l 579 562 l 581 560 l 581 539 l 579 530 l 581 527 l 579 501 l 580 468 l 579 433 l 581 431 l 581 429 l 579 408 l 579 402 l 581 392 l 579 378 l 579 284 l 577 281 l 577 279 l 579 277 l 579 275 l 578 211 l 576 202 l 579 193 l 579 189 l 577 187 l 579 185 l 577 169 l 578 103 l 582 99 l 613 104 l 613 102 q 735 152 668 115 q 923 505 926 286 q 824 754 920 640 q 699 846 754 824 q 591 877 653 867 q 580 870 580 874 m 464 80 l 464 77 l 467 57 l 464 55 l 465 53 q 474 35 467 35 l 482 40 l 498 36 l 541 39 l 541 37 l 548 39 q 588 44 588 40 l 590 71 l 587 73 l 587 75 l 590 77 l 590 80 l 587 86 l 580 86 q 574 55 575 86 l 563 50 l 552 52 l 537 52 l 517 50 l 511 54 l 508 52 l 489 51 q 482 75 482 51 l 482 86 l 470 86 l 464 80 "},"Ф":{"x_min":78,"x_max":1038,"ha":1062,"o":"m 558 958 q 897 823 756 958 q 1038 498 1038 688 q 897 173 1038 308 q 558 39 756 39 q 218 173 359 39 q 78 498 78 308 q 218 823 78 688 q 558 958 359 958 m 559 809 q 337 719 424 809 q 250 497 250 630 q 336 278 250 365 q 559 192 423 192 q 782 278 695 192 q 869 497 869 365 q 782 719 869 630 q 559 809 694 809 m 299 1179 q 326 1182 311 1182 q 473 1144 377 1182 q 607 1106 569 1106 q 857 1134 727 1106 q 770 1049 813 1092 q 613 995 699 995 q 445 1026 535 995 q 314 1062 348 1060 q 278 1064 296 1064 q 113 1030 183 1064 q 193 1124 145 1081 q 299 1179 249 1171 m 857 1134 q 782 1035 783 1037 q 688 830 723 944 q 638 483 641 676 q 603 144 633 271 q 484 -98 567 -4 q 404 -148 458 -126 q 256 -176 336 -176 q 204 -172 231 -176 q 349 -112 302 -164 q 412 -1 365 -94 q 449 203 432 39 q 466 476 464 350 q 546 881 469 735 q 708 1047 600 984 q 857 1134 855 1132 "},"ï":{"x_min":6.109375,"x_max":386.59375,"ha":403,"o":"m 134 0 l 134 720 l 256 720 l 256 0 l 134 0 m 6 861 l 6 1000 l 133 1000 l 133 861 l 6 861 m 259 861 l 259 1000 l 386 1000 l 386 861 l 259 861 "},"О":{"x_min":51,"x_max":1073.078125,"ha":1086,"o":"m 84 699 q 77 742 84 699 q 73 807 73 767 q 134 945 73 874 q 322 1032 210 1032 q 481 1002 421 1032 q 577 919 529 977 q 672 797 625 858 q 796 722 706 758 q 1020 664 894 683 q 849 651 925 651 q 566 736 642 651 q 469 846 518 791 q 323 895 411 897 q 182 833 260 892 q 84 699 96 769 m 316 676 q 325 697 319 676 q 330 736 330 717 q 310 781 330 770 q 253 795 286 795 q 208 784 227 795 q 252 827 221 805 q 329 854 292 854 q 379 838 356 854 q 391 806 391 830 q 370 730 391 770 q 316 676 347 687 m 150 706 q 102 651 126 679 q 65 570 77 618 q 51 403 51 509 q 140 118 51 226 q 396 0 233 6 q 502 26 438 -1 q 559 56 559 51 q 624 21 580 38 q 732 0 680 0 q 930 36 870 0 q 1071 364 1055 113 q 1073 400 1073 381 q 1057 558 1073 470 q 1041 634 1041 647 l 893 602 q 917 375 919 512 q 888 218 915 267 q 740 141 849 146 q 616 181 675 137 q 569 223 569 214 q 501 181 546 203 q 394 149 440 151 q 266 219 324 147 q 206 403 206 296 q 226 558 206 504 q 268 628 234 579 l 150 706 "},"ξ":{"x_min":62,"x_max":596,"ha":576,"o":"m 523 1011 l 523 910 l 423 910 q 213 783 213 910 q 415 667 213 667 l 515 667 l 515 566 q 239 444 333 566 q 186 289 186 376 q 244 154 186 199 q 388 108 291 119 q 492 85 457 100 q 570 15 541 63 q 596 -75 596 -26 q 507 -239 596 -178 q 323 -292 431 -290 l 354 -178 q 435 -154 402 -175 q 477 -83 477 -127 q 361 -1 477 -14 q 62 284 62 31 q 124 472 62 387 q 282 595 183 553 q 151 657 201 605 q 99 792 99 712 q 200 962 99 902 q 402 1011 284 1011 l 523 1011 "},"&":{"x_min":61.046875,"x_max":200.078125,"ha":275,"o":"m 92 642 l 61 828 l 61 994 l 200 994 l 200 828 l 167 642 l 92 642 "},"˝":{"x_min":39,"x_max":517.140625,"ha":547,"o":"m 39 810 l 121 1000 l 279 1000 l 136 810 l 39 810 m 274 810 l 360 1000 l 517 1000 l 376 810 l 274 810 "},"I":{"x_min":37.984375,"x_max":277.390625,"ha":326,"o":"m 240 1 l 75 1 l 75 737 l 240 737 l 240 1 m 151 1025 q 234 991 200 1025 q 267 911 267 958 q 234 832 267 864 q 151 799 200 799 q 71 832 105 799 q 37 911 37 864 q 71 991 37 958 q 151 1025 104 1025 m 151 997 q 93 973 117 997 q 69 915 69 950 q 93 857 69 881 q 151 832 117 832 q 211 857 187 832 q 236 915 236 881 q 211 973 236 950 q 151 997 187 997 m 42 1139 l 277 1139 l 277 1247 l 39 1247 l 42 1139 "},"G":{"x_min":46.796875,"x_max":682.296875,"ha":751,"o":"m 65 988 q 84 982 73 982 l 90 984 l 90 982 l 97 984 l 99 982 l 109 984 l 112 984 l 125 982 l 127 984 l 141 982 l 191 982 l 198 980 l 208 982 l 268 982 l 301 980 l 304 982 l 347 980 l 545 980 l 554 982 l 562 980 l 573 980 l 579 982 l 590 980 l 605 980 l 637 982 l 643 967 l 641 954 l 641 949 l 643 949 l 641 935 l 641 909 l 643 888 l 641 869 l 641 855 l 637 851 l 545 851 l 536 849 l 535 851 l 532 851 l 518 849 l 494 851 l 481 849 l 475 851 l 467 849 l 464 851 l 461 851 l 460 849 l 457 849 l 456 851 l 445 849 l 443 849 l 421 851 l 402 849 l 400 851 l 398 851 l 396 849 l 394 849 l 387 851 l 381 849 l 370 851 l 368 849 l 366 849 l 354 851 l 347 851 l 334 849 l 332 851 l 317 849 l 301 849 l 283 851 l 280 849 l 279 849 l 272 851 l 268 851 l 268 849 l 253 851 l 215 851 l 212 845 l 210 704 l 210 625 q 163 582 176 600 q 144 560 152 575 l 147 557 l 148 557 q 287 649 219 630 q 355 661 307 655 l 385 661 l 394 659 l 396 661 l 398 661 q 511 628 511 643 q 674 416 617 576 l 675 401 l 674 394 q 682 318 680 394 q 648 175 682 261 l 617 126 q 547 70 569 70 q 453 15 547 52 q 375 2 396 2 l 366 5 l 364 2 q 233 32 314 2 q 131 120 155 81 q 97 190 113 130 q 63 330 73 228 l 65 330 l 63 333 l 63 373 l 61 389 l 63 408 l 63 514 l 61 522 l 63 531 l 63 550 l 61 561 l 63 561 l 61 564 l 61 565 l 63 568 l 61 582 l 61 625 l 63 628 l 61 629 l 61 638 l 63 640 l 61 647 l 63 655 l 61 674 l 61 681 l 63 682 l 61 685 l 61 720 l 63 721 l 61 724 l 61 881 l 59 890 l 61 898 l 59 960 l 61 971 l 59 977 q 65 988 61 988 m 133 546 l 133 544 l 136 544 l 141 550 l 141 553 l 140 553 l 133 546 m 119 525 l 123 525 q 129 531 123 531 l 131 533 l 131 536 l 129 538 l 129 540 q 119 525 119 537 m 217 337 l 217 322 q 223 297 221 318 q 287 190 239 237 l 328 170 l 377 165 l 394 165 q 471 205 429 165 q 528 329 528 268 q 504 427 528 365 q 440 493 497 447 q 375 510 395 510 l 370 510 q 293 484 319 503 q 217 337 217 432 m 46 1069 l 653 1069 l 653 1180 l 46 1180 l 46 1069 "},"ΰ":{"x_min":92.234375,"x_max":668.734375,"ha":711,"o":"m 92 720 l 214 720 l 214 293 q 251 149 214 204 q 379 84 295 84 q 471 112 429 84 q 531 187 514 141 q 547 303 547 227 l 547 720 l 668 720 l 668 298 q 597 69 668 151 q 377 -16 522 -16 q 225 20 293 -16 q 118 132 150 60 q 92 293 92 191 l 92 720 m 384 1022 l 510 1022 l 375 834 l 295 834 l 384 1022 m 510 964 l 627 964 l 627 834 l 510 834 l 510 964 m 134 964 l 251 964 l 251 834 l 134 834 l 134 964 "},"`":{"x_min":34.59375,"x_max":670.078125,"ha":695,"o":"m 61 981 q 244 813 178 922 l 251 788 l 269 756 l 286 709 q 330 505 326 606 q 162 382 210 459 q 153 712 175 600 l 152 734 l 140 782 l 135 815 q 61 981 127 866 m 399 490 q 581 417 505 490 q 656 240 656 343 q 581 64 656 137 q 399 -8 505 -8 q 217 64 293 -8 q 141 240 141 137 q 217 417 141 343 q 399 490 293 490 m 399 362 q 310 328 346 362 q 274 240 274 294 q 308 153 274 185 q 399 120 342 120 q 487 153 451 120 q 523 240 523 187 q 489 329 523 297 q 399 362 454 362 m 34 1124 l 670 1124 l 670 1245 l 34 1245 l 34 1124 "},"·":{"x_min":337,"x_max":476,"ha":520,"o":"m 337 432 l 337 571 l 476 571 l 476 432 l 337 432 "},"¿":{"x_min":107,"x_max":747.921875,"ha":698,"o":"m 497 720 l 497 581 l 358 581 l 358 720 l 497 720 m 488 475 q 489 440 489 452 q 469 314 489 367 q 420 234 453 274 q 330 149 403 213 q 250 61 269 95 q 232 -11 232 28 q 290 -139 232 -87 q 424 -190 346 -190 q 623 10 591 -190 l 747 -4 q 647 -216 730 -141 q 426 -291 564 -291 q 205 -222 295 -291 q 107 -19 107 -146 q 151 122 107 56 q 256 233 181 167 q 319 293 304 276 q 362 369 351 330 q 371 475 370 402 l 488 475 "},"Ђ":{"x_min":25.765625,"x_max":775.203125,"ha":839,"o":"m 250 933 q 398 933 326 935 l 435 931 l 442 768 l 437 692 q 440 491 440 585 q 280 341 338 445 q 282 693 279 583 l 282 817 l 25 817 l 25 931 q 250 933 161 929 m 523 489 q 701 417 627 489 q 775 244 775 345 q 701 72 775 143 q 523 0 627 0 q 344 72 418 0 q 270 244 270 143 q 344 417 270 345 q 523 489 418 489 m 523 363 q 435 330 470 363 q 400 244 400 297 q 434 158 400 190 q 523 126 467 126 q 609 159 573 126 q 644 244 644 192 q 610 331 644 299 q 523 363 576 363 m 50 1125 l 735 1125 l 735 1236 l 44 1236 l 50 1125 "},"º":{"x_min":31,"x_max":476,"ha":512,"o":"m 253 1011 q 421 935 360 1011 q 476 756 476 865 q 420 577 476 647 q 254 502 360 502 q 86 575 147 502 q 31 753 31 643 q 85 934 31 864 q 253 1011 145 1011 m 253 921 q 131 756 131 921 q 253 592 131 592 q 376 759 376 592 q 253 921 376 921 "},"∞":{"x_min":104,"x_max":888,"ha":925,"o":"m 466 550 q 578 668 537 639 q 692 708 633 708 q 837 644 784 708 q 888 490 888 583 q 793 290 888 345 q 692 263 744 263 q 578 301 631 263 q 466 420 538 330 q 270 305 374 305 q 150 359 198 305 q 104 486 104 412 q 151 613 104 559 q 270 667 198 667 q 466 550 374 667 m 514 485 q 621 360 572 394 q 691 338 653 338 q 783 382 750 338 q 813 483 813 422 q 783 586 813 546 q 688 631 749 631 q 626 612 655 631 q 514 485 587 586 m 420 485 q 270 592 334 592 q 202 560 227 592 q 179 487 179 532 q 203 413 179 443 q 272 382 229 382 q 420 485 340 382 "},"я":{"x_min":51,"x_max":693.96875,"ha":704,"o":"m 329 306 l 329 -2 l 402 -2 l 402 306 l 329 306 m 208 115 l 523 115 l 523 188 l 208 188 l 208 115 m 598 -6 q 644 24 601 -6 q 693 59 690 58 q 329 520 480 310 q 308 573 308 549 q 323 619 308 593 q 365 642 341 642 q 407 621 386 642 q 422 555 427 601 q 382 478 419 537 l 447 389 q 517 575 517 479 q 453 713 517 666 q 377 732 428 732 q 293 719 335 732 q 238 689 252 706 q 206 581 206 651 q 248 453 206 508 q 598 -6 405 248 m 352 288 l 289 370 q 172 211 291 368 q 51 50 112 131 q 141 -7 50 50 q 352 288 209 89 "},"Ё":{"x_min":53,"x_max":1006.578125,"ha":1036,"o":"m 722 1242 q 635 1206 671 1242 q 600 1120 600 1170 q 635 1033 600 1069 q 722 998 671 998 q 808 1033 772 998 q 844 1120 844 1069 q 808 1206 844 1170 q 722 1242 772 1242 m 318 1242 q 232 1206 268 1242 q 196 1120 196 1170 q 232 1033 196 1069 q 318 998 268 998 q 405 1033 369 998 q 441 1120 441 1069 q 405 1206 441 1170 q 318 1242 369 1242 m 209 489 q 299 717 209 624 q 529 809 389 809 q 760 721 670 809 q 849 489 849 633 q 761 253 849 349 q 529 155 668 155 q 295 255 386 155 q 209 489 209 351 m 529 -1 q 866 144 725 -1 q 1006 489 1006 290 q 866 827 1006 687 q 529 967 727 967 q 192 827 331 967 q 53 489 53 687 q 193 144 53 290 q 529 -1 333 -1 "},"φ":{"x_min":49,"x_max":853,"ha":887,"o":"m 338 735 l 314 629 q 174 383 174 582 q 229 194 174 272 q 395 89 288 112 l 395 537 q 401 633 395 604 q 452 712 413 686 q 550 737 487 737 q 810 573 729 737 q 853 390 853 488 q 711 77 853 207 q 516 -16 637 8 l 516 -276 l 395 -276 l 395 -16 q 144 109 247 -16 q 49 378 49 227 q 122 620 49 516 q 338 735 205 738 m 516 94 q 675 208 618 113 q 725 403 725 291 q 696 550 725 486 q 585 636 659 636 q 523 589 537 636 q 516 502 516 565 l 516 94 "},";":{"x_min":115,"x_max":262,"ha":289,"o":"m 123 581 l 123 720 l 262 720 l 262 581 l 123 581 m 123 0 l 123 139 l 262 139 l 262 0 q 148 -197 262 -147 l 115 -144 q 192 0 188 -112 l 123 0 "},"Г":{"x_min":52.875,"x_max":1016.390625,"ha":949,"o":"m 54 780 q 75 869 47 780 q 163 1033 106 971 q 369 1116 244 1120 q 568 1100 487 1112 q 677 1089 640 1089 q 719 1091 696 1089 q 859 1119 778 1094 q 1016 1190 948 1148 q 870 1042 958 1111 q 635 947 742 941 q 477 961 538 950 q 396 968 432 970 q 247 945 296 963 q 54 780 145 905 m 688 904 q 585 885 688 916 q 390 769 467 849 q 273 472 282 655 q 239 139 264 254 q 180 -4 218 41 q 99 -63 159 -29 q 323 31 228 -50 q 464 424 474 161 q 517 707 458 581 q 629 860 559 796 q 688 904 658 882 "},"6":{"x_min":59,"x_max":677.53125,"ha":692,"o":"m 530 772 l 661 766 q 640 824 668 772 q 548 932 606 888 q 358 1002 469 992 q 335 1004 347 1004 q 134 876 210 1004 q 59 525 59 748 q 358 -3 59 -9 q 642 138 569 0 q 677 297 677 202 q 630 449 677 373 q 370 580 550 580 q 227 529 288 580 q 181 473 181 490 q 212 723 181 614 q 358 882 259 883 q 530 772 479 879 m 385 459 q 508 409 457 459 q 560 289 560 359 q 508 168 560 218 q 385 119 457 119 q 262 168 313 119 q 211 289 211 218 q 262 409 211 359 q 385 459 313 459 "},"Ь":{"x_min":49,"x_max":780,"ha":781,"o":"m 49 1109 q 375 619 335 964 q 174 483 267 592 q 185 651 185 571 q 49 1109 185 930 m 464 598 q 687 503 592 598 q 780 299 780 411 q 693 88 780 176 q 464 -3 602 -3 q 231 86 317 -3 q 150 299 150 170 q 242 503 150 411 q 464 598 337 598 m 464 471 q 346 415 394 471 q 301 299 301 364 q 346 186 301 235 q 464 135 394 135 q 583 186 535 135 q 629 299 629 235 q 583 415 629 364 q 464 471 535 471 "},"ϊ":{"x_min":-31,"x_max":349,"ha":364,"o":"m 93 0 l 93 720 l 216 720 l 216 0 l 93 0 m -31 861 l -31 1000 l 97 1000 l 97 861 l -31 861 m 221 861 l 221 1000 l 349 1000 l 349 861 l 221 861 "},"ά":{"x_min":49,"x_max":750.96875,"ha":768,"o":"m 626 720 l 750 720 q 663 360 703 570 q 750 0 710 98 l 629 0 q 585 131 600 67 q 350 -16 529 -16 q 119 102 200 -16 q 49 361 49 204 q 118 621 49 521 q 352 737 198 737 q 490 702 434 737 q 590 598 542 670 q 626 720 594 621 m 372 636 q 220 545 269 636 q 183 362 183 474 q 218 179 183 252 q 365 85 266 85 q 519 179 467 85 q 562 367 562 256 q 522 547 562 477 q 372 636 473 636 m 315 810 l 405 1000 l 565 1000 l 416 810 l 315 810 "},"n":{"x_min":51.546875,"x_max":1000.375,"ha":1035,"o":"m 98 642 q 91 681 98 642 q 88 742 88 706 q 142 868 88 803 q 307 949 208 949 q 448 922 394 949 q 532 845 491 899 q 617 732 575 788 q 726 663 646 696 q 924 611 813 628 q 773 598 839 598 q 523 676 590 598 q 438 777 481 727 q 308 822 387 824 q 184 765 253 820 q 98 642 109 706 m 303 621 q 309 639 304 621 q 314 676 314 658 q 297 717 314 708 q 247 729 276 729 q 207 721 224 729 q 246 760 218 740 q 314 786 281 786 q 358 771 337 786 q 368 741 368 763 q 349 670 368 708 q 303 621 330 630 m 155 649 q 113 598 134 624 q 81 524 91 568 q 68 370 68 467 q 147 106 68 206 q 373 -1 229 3 q 467 22 410 -2 q 517 49 517 44 q 574 17 535 32 q 669 -2 623 -2 q 845 30 792 -2 q 969 333 954 102 q 970 366 970 349 q 956 513 970 431 q 943 582 943 594 l 811 553 q 832 343 834 469 q 807 198 830 243 q 676 127 772 132 q 567 163 619 124 q 526 202 526 194 q 465 164 505 184 q 370 135 412 137 q 259 200 309 133 q 205 370 205 270 q 223 512 205 463 q 259 577 229 532 l 155 649 m 51 1101 l 1000 1101 l 1000 1233 l 51 1233 l 51 1101 "},"¤":{"x_min":50.28125,"x_max":716.71875,"ha":754,"o":"m 143 651 l 50 744 l 128 825 l 222 730 q 383 779 294 779 q 543 730 472 779 l 638 825 l 716 744 l 622 651 q 671 492 671 577 q 622 332 671 407 l 716 240 l 638 159 l 543 254 q 383 205 472 205 q 222 254 294 205 l 128 159 l 50 239 l 144 332 q 96 492 96 406 q 143 651 96 576 m 207 492 q 258 367 207 419 q 382 316 309 316 q 506 367 455 316 q 558 492 558 419 q 506 616 558 565 q 382 668 455 668 q 258 616 309 668 q 207 492 207 565 "},"∂":{"x_min":39,"x_max":660.921875,"ha":709,"o":"m 289 771 l 198 812 q 442 1011 287 1011 q 598 922 545 1011 q 660 627 660 819 q 614 315 660 458 q 443 55 557 138 q 247 -17 344 -17 q 91 51 146 -17 q 39 218 39 115 q 142 480 39 371 q 582 626 276 620 q 573 766 580 719 q 520 892 559 853 q 443 924 487 924 q 289 771 346 924 m 580 539 q 370 506 440 531 q 212 374 268 469 q 162 205 162 290 q 193 116 162 153 q 277 76 226 76 q 385 113 327 76 q 580 539 547 219 "},"κ":{"x_min":91,"x_max":693.75,"ha":703,"o":"m 91 720 l 212 720 l 212 437 l 504 720 l 665 720 l 343 421 l 693 0 l 537 0 l 256 339 l 212 298 l 212 0 l 91 0 l 91 720 "},"p":{"x_min":70.53125,"x_max":961.71875,"ha":1015,"o":"m 515 835 q 286 735 380 835 q 192 492 192 635 q 286 249 192 349 q 515 148 380 148 q 744 249 649 148 q 838 492 838 349 q 745 735 838 635 q 515 835 651 835 m 309 5 q 242 -20 269 5 q 214 -84 214 -46 q 242 -146 214 -120 q 309 -172 269 -172 q 378 -146 349 -172 q 406 -84 406 -120 q 378 -20 406 -46 q 309 5 349 5 m 740 4 q 672 -21 700 4 q 644 -84 644 -46 q 672 -147 644 -121 q 740 -172 700 -172 q 807 -147 779 -172 q 835 -84 835 -121 q 808 -21 835 -46 q 740 4 780 4 m 515 965 q 832 826 703 965 q 961 490 961 687 q 831 155 961 294 q 515 17 701 17 q 201 155 332 17 q 70 490 70 294 q 200 826 70 687 q 515 965 330 965 m 74 1222 l 933 1222 l 933 1109 l 74 1109 l 74 1222 "},"‡":{"x_min":49,"x_max":718,"ha":724,"o":"m 322 -235 l 322 16 l 49 16 l 49 125 l 322 125 l 322 617 l 49 617 l 49 726 l 322 726 l 322 981 l 445 981 l 445 726 l 718 726 l 718 617 l 445 617 l 445 125 l 718 125 l 718 16 l 445 16 l 445 -235 l 322 -235 "},"√":{"x_min":57,"x_max":762.359375,"ha":731,"o":"m 711 1268 l 762 1268 l 550 -53 l 214 639 l 80 577 l 57 621 l 261 724 l 535 166 l 711 1268 "},"Ю":{"x_min":33,"x_max":869.921875,"ha":884,"o":"m 133 1251 q 203 1217 173 1251 q 234 1144 234 1184 q 203 1071 234 1104 q 133 1038 173 1038 q 62 1071 92 1038 q 33 1144 33 1104 q 62 1217 33 1184 q 133 1251 92 1251 m 525 651 l 619 545 l 869 933 l 758 1029 l 525 651 m 57 1015 l 212 1015 q 439 729 282 913 q 644 472 592 549 q 733 251 734 340 q 663 52 730 119 q 520 -5 608 -3 q 380 61 445 -5 q 311 224 314 131 q 429 501 311 329 l 511 390 q 445 240 453 308 q 528 144 457 144 q 583 174 563 144 q 601 238 601 200 q 599 257 601 248 q 208 800 577 394 l 208 2 l 57 2 l 57 1015 "},"S":{"x_min":65.109375,"x_max":968.5,"ha":1035,"o":"m 475 -6 l 475 397 l 65 397 l 65 491 l 472 490 l 472 879 l 565 879 l 565 491 l 968 491 l 968 395 l 569 395 l 568 -6 l 475 -6 "},"ο":{"x_min":46.5625,"x_max":1067.96875,"ha":759,"o":"m 555 1022 q 919 872 770 1022 q 1067 510 1067 722 q 918 150 1067 299 q 555 1 768 1 q 196 150 345 1 q 46 510 46 299 q 194 872 46 722 q 555 1022 342 1022 m 555 882 q 294 774 401 882 q 186 512 186 666 q 294 250 186 358 q 555 142 401 142 q 817 250 709 142 q 925 512 925 358 q 818 774 925 666 q 555 882 710 882 "},"/":{"x_min":0.609375,"x_max":386.90625,"ha":397,"o":"m 0 -17 l 289 1011 l 386 1011 l 99 -17 l 0 -17 "},"Τ":{"x_min":32.65625,"x_max":721.046875,"ha":806,"o":"m 196 329 l 196 196 l 297 196 l 297 -2 l 456 -2 l 456 828 l 582 828 l 582 536 l 721 536 l 721 991 l 32 991 l 33 535 l 171 536 l 171 828 l 297 828 l 297 329 l 196 329 m 457 327 l 556 327 l 556 196 l 457 196 l 457 327 "},"ђ":{"x_min":59,"x_max":933.234375,"ha":937,"o":"m 613 505 l 518 627 q 661 818 528 627 q 798 1021 785 997 q 933 930 868 975 q 769 717 851 823 q 613 505 610 507 m 490 362 l 406 470 q 267 191 267 292 q 379 26 267 88 q 499 -1 428 -1 q 663 65 616 -1 q 715 232 715 137 q 646 433 715 338 q 354 809 558 555 q 183 1020 268 914 q 182 1021 183 1021 q 122 977 177 1021 q 59 929 63 932 q 545 326 360 587 q 577 240 577 280 q 555 164 577 204 q 486 128 525 128 q 433 153 458 128 q 413 244 406 181 q 490 362 416 269 "},"y":{"x_min":63.75,"x_max":575.140625,"ha":618,"o":"m 80 980 q 227 852 105 976 q 302 762 302 770 q 362 683 313 755 q 387 642 362 679 q 421 516 421 552 l 423 511 l 421 511 q 427 461 424 507 l 426 452 l 426 448 q 380 277 426 373 q 358 242 363 246 l 356 242 q 345 265 353 243 q 317 335 343 265 l 316 342 q 339 452 332 387 l 339 464 l 341 465 l 339 467 l 341 494 q 322 602 341 529 l 305 646 l 289 678 q 274 710 274 703 l 254 744 q 227 787 250 745 q 154 884 183 849 q 137 908 154 891 q 75 976 128 927 l 75 977 q 80 980 75 980 m 545 974 l 549 969 l 549 967 q 523 942 549 965 q 389 779 404 814 l 349 722 l 347 722 q 335 744 344 722 l 317 765 l 317 768 q 408 863 330 793 q 545 974 529 974 m 263 701 l 265 701 q 270 691 270 701 q 307 603 285 676 q 284 514 284 560 l 282 505 l 280 505 l 282 495 l 282 476 q 313 314 282 393 q 328 271 313 303 q 395 139 351 208 q 457 56 437 77 q 533 -25 480 23 l 533 -28 l 522 -28 q 428 35 484 -12 q 362 103 384 75 q 290 197 319 151 q 231 311 261 246 q 200 442 211 365 l 197 455 l 198 455 l 197 457 q 213 594 197 537 q 263 701 233 668 m 256 212 l 285 166 q 293 152 293 159 q 256 112 290 152 q 70 -28 134 -3 l 67 -22 q 105 12 67 -19 q 202 130 179 86 q 252 208 230 165 l 256 212 m 69 1238 l 575 1238 l 575 1131 l 63 1131 l 69 1238 "},"≈":{"x_min":35,"x_max":728.8125,"ha":773,"o":"m 35 502 l 35 640 q 223 721 106 721 q 436 661 300 721 q 553 630 510 630 q 728 723 644 630 l 728 579 q 540 502 646 502 q 346 557 467 502 q 212 593 265 593 q 35 502 130 593 m 35 255 l 35 393 q 223 475 106 475 q 436 415 298 475 q 553 383 511 383 q 728 477 644 383 l 728 332 q 540 255 646 255 q 346 310 469 255 q 212 347 265 347 q 35 255 130 347 "},"Π":{"x_min":111,"x_max":891,"ha":935,"o":"m 111 0 l 111 994 l 891 994 l 891 0 l 759 0 l 759 877 l 243 877 l 243 0 l 111 0 "},"g":{"x_min":57.65625,"x_max":681.609375,"ha":743,"o":"m 277 1051 l 278 1051 l 335 999 l 335 994 l 267 923 l 266 915 q 311 870 276 910 q 423 729 394 784 q 461 663 442 710 q 485 550 478 630 l 485 540 q 446 415 474 461 q 406 356 431 383 q 326 308 362 316 q 291 301 326 305 q 196 356 225 301 q 185 400 189 370 l 187 408 l 187 429 q 223 511 191 473 q 322 583 288 577 q 354 598 332 590 l 361 598 q 372 540 372 598 l 372 532 l 373 521 l 322 492 q 270 418 270 461 q 291 390 273 390 l 293 389 q 333 408 323 396 q 387 543 387 466 q 369 636 387 585 q 288 766 366 670 q 202 851 241 820 l 196 851 q 135 784 196 847 q 75 833 86 833 l 75 834 l 141 906 q 107 936 140 912 l 57 976 l 57 983 q 111 1046 82 1016 l 115 1046 q 199 973 120 1037 l 202 973 q 277 1051 266 1043 m 498 597 q 598 537 530 593 q 671 379 671 444 q 676 309 676 379 l 676 301 q 645 158 667 209 q 587 22 629 104 q 560 -24 563 -23 l 556 -24 l 487 16 q 479 22 482 16 l 479 27 q 537 132 492 42 q 582 322 582 235 l 582 327 q 561 418 575 376 q 508 487 549 451 l 490 500 l 497 534 l 495 536 l 497 547 l 497 560 l 492 594 l 498 597 m 69 1144 l 69 1228 l 681 1228 l 681 1144 l 69 1144 "},"²":{"x_min":18,"x_max":440.53125,"ha":477,"o":"m 18 497 q 190 703 27 585 q 306 794 288 774 q 332 851 332 822 q 238 926 332 926 q 170 909 192 926 q 134 849 148 892 l 32 859 q 239 1006 70 1006 q 372 977 319 1006 q 438 868 438 941 q 397 760 438 810 q 258 644 369 724 q 178 579 204 605 l 440 579 l 440 497 l 18 497 "},"–":{"x_min":-1,"x_max":771.5,"ha":813,"o":"m -1 311 l -1 409 l 771 409 l 771 311 l -1 311 "},"ë":{"x_min":58,"x_max":576.15625,"ha":587,"o":"m 187 1024 q 255 996 227 1024 q 284 929 284 968 q 255 861 284 889 q 187 834 227 834 q 119 861 147 834 q 91 929 91 889 q 119 996 91 968 q 187 1024 147 1024 m 461 1024 q 529 996 501 1024 q 558 929 558 968 q 529 861 558 889 q 461 834 501 834 q 393 861 421 834 q 365 929 365 889 q 393 996 365 968 q 461 1024 421 1024 m 576 778 l 59 778 l 58 -3 l 574 -2 l 574 126 l 204 126 l 204 312 l 574 312 l 574 450 l 204 450 l 204 653 l 574 653 l 576 778 "},"б":{"x_min":24,"x_max":567.625,"ha":594,"o":"m 115 322 l 235 322 l 235 213 q 340 118 247 127 q 456 239 455 123 q 416 310 451 285 q 338 334 384 334 l 24 334 l 24 452 l 343 452 q 495 394 433 452 q 567 240 559 335 q 506 75 573 151 q 338 -3 436 -2 q 180 65 247 -3 q 115 214 116 131 l 115 322 m 115 735 l 527 735 l 527 619 l 235 619 l 235 462 q 115 462 157 463 l 115 735 "},"ƒ":{"x_min":31,"x_max":735.671875,"ha":734,"o":"m 31 -274 l 54 -169 q 158 -184 123 -184 q 223 -154 203 -184 q 245 -81 236 -134 l 365 625 l 228 625 l 244 720 l 381 720 l 397 810 q 427 922 411 890 q 589 1012 473 1012 q 735 986 644 1012 l 711 882 q 607 899 642 899 q 540 867 560 899 q 518 790 529 847 l 505 720 l 644 720 l 627 625 l 489 625 l 359 -115 q 308 -244 343 -204 q 182 -292 266 -292 q 31 -274 119 -292 "},"у":{"x_min":54,"x_max":709.15625,"ha":724,"o":"m 469 375 l 398 464 q 505 606 405 464 q 608 756 598 739 q 709 688 661 722 q 587 530 648 610 q 469 375 467 376 m 377 268 l 314 348 q 216 141 216 233 q 294 20 216 63 q 384 0 331 0 q 507 49 471 0 q 545 173 545 102 q 494 321 545 251 q 275 599 429 411 q 146 756 211 677 q 104 726 125 741 q 54 688 57 690 q 418 241 279 434 q 442 178 442 208 q 425 122 442 152 q 374 95 403 95 q 334 115 353 95 q 319 181 314 134 q 377 268 321 200 "},"J":{"x_min":45.4375,"x_max":1096.015625,"ha":1154,"o":"m 563 1050 l 563 1047 l 566 1050 l 568 1050 q 861 958 724 1050 q 893 937 861 954 l 940 897 q 1044 744 1030 797 q 1089 592 1073 697 l 1096 532 l 1093 518 q 983 200 1093 349 q 859 87 914 122 q 714 19 801 47 q 583 0 628 0 l 561 0 q 219 130 379 0 q 120 250 149 202 q 48 489 48 385 l 45 491 l 45 493 l 48 495 l 48 498 l 45 514 l 48 529 l 45 536 l 48 538 l 48 541 l 45 554 q 97 752 60 678 q 187 883 122 807 q 255 944 250 944 q 431 1030 347 1009 l 471 1041 l 473 1039 l 476 1039 q 563 1050 476 1043 m 293 912 l 304 910 l 307 910 l 307 912 l 301 916 l 297 916 l 293 912 m 559 897 l 548 899 q 421 870 477 893 q 304 788 343 834 q 205 617 231 711 l 200 608 l 203 606 l 203 604 q 194 526 194 557 q 211 408 194 451 q 241 333 211 393 q 311 245 274 280 q 383 191 347 212 q 417 177 383 186 l 478 153 l 480 155 l 482 155 l 530 146 l 532 149 l 555 146 l 566 146 l 568 143 l 571 146 l 581 146 q 741 189 647 146 q 920 392 862 254 q 946 516 946 480 l 944 532 l 946 533 l 946 536 q 913 678 946 590 q 792 829 885 745 q 703 876 737 863 q 588 901 672 887 l 559 897 m 555 779 l 563 777 l 579 777 l 581 775 l 583 777 l 590 777 l 593 775 l 594 777 q 717 732 650 774 q 786 647 772 680 q 818 552 802 628 l 818 529 l 820 511 q 793 408 807 430 q 640 281 746 318 q 575 270 632 277 l 566 273 l 559 270 q 435 308 504 270 q 338 423 368 351 q 320 480 328 446 l 322 486 l 318 522 q 342 623 318 581 q 451 746 365 691 q 555 779 516 779 m 478 619 l 476 622 l 473 622 q 459 600 472 611 q 435 500 435 561 q 496 410 459 429 q 563 389 530 389 q 692 469 649 389 l 703 516 q 672 608 703 573 q 579 656 621 656 l 572 653 l 566 656 q 484 626 510 647 l 478 619 m 1064 623 l 1064 619 l 1070 619 l 1070 623 l 1064 623 m 48 1127 l 1089 1127 l 1089 1249 l 45 1249 l 48 1127 "},"Ã":{"x_min":-0.484375,"x_max":832.390625,"ha":918,"o":"m 373 295 l 373 -3 l 445 -3 l 445 295 l 373 295 m 253 122 l 559 122 l 559 191 l 253 191 l 253 122 m 708 7 q 767 48 713 7 q 832 94 828 91 q 359 689 555 417 q 331 758 331 728 q 352 817 331 784 q 405 847 376 847 q 460 821 434 847 q 479 736 486 795 q 429 636 477 712 l 514 521 q 603 761 603 638 q 520 940 603 878 q 422 964 487 964 q 314 948 367 964 q 242 909 261 931 q 200 769 200 859 q 254 603 200 675 q 708 7 457 338 m 390 388 l 307 495 q 156 290 310 494 q 0 83 78 186 q 116 8 -1 83 q 390 388 204 132 m 166 1056 q 201 1164 165 1121 q 303 1210 239 1210 q 418 1174 345 1210 q 482 1154 458 1154 q 531 1212 523 1154 l 619 1212 q 486 1058 615 1058 q 374 1095 444 1058 q 307 1120 328 1120 q 256 1056 254 1120 l 166 1056 "},"Ј":{"x_min":40.4375,"x_max":1091.015625,"ha":640,"o":"m 558 1050 l 558 1047 l 561 1050 l 563 1050 q 856 958 719 1050 q 888 937 856 954 l 935 897 q 1039 744 1025 797 q 1084 592 1068 697 l 1091 532 l 1088 518 q 978 200 1088 349 q 854 87 909 122 q 709 19 796 47 q 578 0 623 0 l 556 0 q 214 130 374 0 q 115 250 144 202 q 43 489 43 385 l 40 491 l 40 493 l 43 495 l 43 498 l 40 514 l 43 529 l 40 536 l 43 538 l 43 541 l 40 554 q 92 752 55 678 q 182 883 117 807 q 250 944 245 944 q 426 1030 342 1009 l 466 1041 l 468 1039 l 471 1039 q 558 1050 471 1043 m 288 912 l 299 910 l 302 910 l 302 912 l 296 916 l 292 916 l 288 912 m 554 897 l 543 899 q 416 870 472 893 q 299 788 338 834 q 200 617 226 711 l 195 608 l 198 606 l 198 604 q 189 526 189 557 q 206 408 189 451 q 236 333 206 393 q 306 245 269 280 q 378 191 342 212 q 412 177 378 186 l 473 153 l 475 155 l 477 155 l 525 146 l 527 149 l 550 146 l 561 146 l 563 143 l 566 146 l 576 146 q 736 189 642 146 q 915 392 857 254 q 941 516 941 480 l 939 532 l 941 533 l 941 536 q 908 678 941 590 q 787 829 880 745 q 698 876 732 863 q 583 901 667 887 l 554 897 m 550 779 l 558 777 l 574 777 l 576 775 l 578 777 l 585 777 l 588 775 l 589 777 q 712 732 645 774 q 781 647 767 680 q 813 552 797 628 l 813 529 l 815 511 q 788 408 802 430 q 635 281 741 318 q 570 270 627 277 l 561 273 l 554 270 q 430 308 499 270 q 333 423 363 351 q 315 480 323 446 l 317 486 l 313 522 q 337 623 313 581 q 446 746 360 691 q 550 779 511 779 m 473 619 l 471 622 l 468 622 q 454 600 467 611 q 430 500 430 561 q 491 410 454 429 q 558 389 525 389 q 687 469 644 389 l 698 516 q 667 608 698 573 q 574 656 616 656 l 567 653 l 561 656 q 479 626 505 647 l 473 619 m 1059 623 l 1059 619 l 1065 619 l 1065 623 l 1059 623 m 43 1127 l 1084 1127 l 1084 1249 l 40 1249 l 43 1127 "},"‐":{"x_min":44,"x_max":419,"ha":463,"o":"m 44 298 l 44 421 l 419 421 l 419 298 l 44 298 "},"©":{"x_min":3,"x_max":1026,"ha":1053,"o":"m 514 1011 q 771 942 651 1011 q 957 756 891 873 q 1026 499 1026 632 q 956 241 1026 362 q 769 55 887 120 q 514 -12 647 -12 q 257 56 377 -12 q 70 244 136 126 q 3 499 3 366 q 73 758 3 636 q 263 945 143 880 q 514 1011 386 1011 m 514 926 q 300 868 401 926 q 145 713 200 811 q 88 499 88 610 q 145 284 88 384 q 302 129 203 184 q 514 73 404 73 q 729 130 628 73 q 885 288 829 188 q 941 499 941 388 q 882 715 941 614 q 724 871 823 816 q 514 926 621 926 m 679 416 l 762 391 q 673 254 741 304 q 515 206 607 206 q 315 289 388 206 q 247 497 247 368 q 377 753 247 683 q 521 787 440 787 q 752 626 705 787 l 671 607 q 518 711 629 711 q 381 645 429 711 q 339 495 339 587 q 378 348 339 404 q 510 285 423 285 q 618 320 572 285 q 679 416 664 356 "},"˘":{"x_min":32,"x_max":432.828125,"ha":467,"o":"m 349 993 l 432 993 q 232 817 411 817 q 32 993 53 817 l 115 993 q 228 901 134 901 q 349 993 331 901 "},"ώ":{"x_min":59,"x_max":1026,"ha":1041,"o":"m 166 720 l 284 720 q 183 343 183 497 q 214 176 183 249 q 337 80 255 80 q 421 115 382 80 q 469 195 457 149 q 482 328 482 242 l 482 539 l 603 539 l 603 328 q 666 113 603 168 q 748 80 704 80 q 871 177 829 80 q 902 343 902 249 q 800 720 902 497 l 918 720 q 1026 350 1026 529 q 969 104 1026 202 q 762 -16 899 -16 q 542 146 608 -16 q 322 -16 476 -16 q 116 104 185 -16 q 59 350 59 202 q 166 720 59 529 m 476 810 l 566 1000 l 726 1000 l 577 810 l 476 810 "},"≥":{"x_min":52,"x_max":710.5625,"ha":707,"o":"m 710 516 l 52 235 l 52 357 l 573 573 l 52 787 l 52 909 l 710 630 l 710 516 m 709 72 l 52 72 l 52 185 l 709 185 l 709 72 "},"D":{"x_min":59,"x_max":1007.15625,"ha":1023,"o":"m 75 4 l 75 311 q 178 312 87 311 q 295 314 269 314 q 314 311 318 314 q 305 311 312 311 q 312 314 307 311 q 397 253 330 291 q 502 193 445 226 q 368 168 454 183 q 238 161 293 164 l 238 4 l 75 4 m 281 149 q 412 156 309 148 q 537 183 486 166 q 679 153 576 172 q 789 143 767 143 q 543 122 577 122 q 281 149 521 122 m 985 2 l 828 2 l 828 155 q 181 666 209 179 q 282 908 173 809 q 543 1001 389 1006 q 812 897 710 996 q 908 659 909 800 q 841 432 905 520 q 738 338 811 392 l 579 392 q 674 485 661 469 q 734 649 734 560 q 659 798 734 740 q 548 841 601 841 q 448 822 497 841 q 352 669 352 779 q 485 406 354 499 q 758 311 585 336 q 984 293 813 303 l 985 2 m 61 1106 l 1007 1106 l 1007 1241 l 59 1241 l 61 1106 "},"ÿ":{"x_min":22.75,"x_max":534.140625,"ha":688,"o":"m 39 980 q 186 852 64 976 q 261 762 261 770 q 321 683 272 755 q 346 642 321 679 q 380 516 380 552 l 382 511 l 380 511 q 386 461 383 507 l 385 452 l 385 448 q 339 277 385 373 q 317 242 322 246 l 315 242 q 304 265 312 243 q 276 335 302 265 l 275 342 q 298 452 291 387 l 298 464 l 300 465 l 298 467 l 300 494 q 281 602 300 529 l 264 646 l 248 678 q 233 710 233 703 l 213 744 q 186 787 209 745 q 113 884 142 849 q 96 908 113 891 q 34 976 87 927 l 34 977 q 39 980 34 980 m 504 974 l 508 969 l 508 967 q 482 942 508 965 q 348 779 363 814 l 308 722 l 306 722 q 294 744 303 722 l 276 765 l 276 768 q 367 863 289 793 q 504 974 488 974 m 222 701 l 224 701 q 229 691 229 701 q 266 603 244 676 q 243 514 243 560 l 241 505 l 239 505 l 241 495 l 241 476 q 272 314 241 393 q 287 271 272 303 q 354 139 310 208 q 416 56 396 77 q 492 -25 439 23 l 492 -28 l 481 -28 q 387 35 443 -12 q 321 103 343 75 q 249 197 278 151 q 190 311 220 246 q 159 442 170 365 l 156 455 l 157 455 l 156 457 q 172 594 156 537 q 222 701 192 668 m 215 212 l 244 166 q 252 152 252 159 q 215 112 249 152 q 29 -28 93 -3 l 26 -22 q 64 12 26 -19 q 161 130 138 86 q 211 208 189 165 l 215 212 m 28 1238 l 534 1238 l 534 1131 l 22 1131 l 28 1238 m 127 861 l 127 1000 l 255 1000 l 255 861 l 127 861 m 379 861 l 379 1000 l 507 1000 l 507 861 l 379 861 "},"ł":{"x_min":2,"x_max":304,"ha":334,"o":"m 91 388 l 2 314 l 2 422 l 91 496 l 91 994 l 212 994 l 212 599 l 304 677 l 304 570 l 212 492 l 212 0 l 91 0 l 91 388 "},"ц":{"x_min":56,"x_max":547.71875,"ha":613,"o":"m 56 735 l 56 405 l 176 405 l 176 735 l 56 735 m 428 731 l 428 1 l 547 1 l 547 731 l 428 731 m 56 326 l 523 326 l 523 445 l 56 445 l 56 326 "},"Ł":{"x_min":0,"x_max":723.65625,"ha":692,"o":"m 98 382 l 0 299 l 0 413 l 98 497 l 98 994 l 230 994 l 230 609 l 455 799 l 455 687 l 230 495 l 230 117 l 723 117 l 723 0 l 98 0 l 98 382 "},"Л":{"x_min":55,"x_max":723.71875,"ha":684,"o":"m 55 0 l 723 0 l 723 133 l 237 133 l 237 1021 l 58 1021 l 55 0 "},"$":{"x_min":31.203125,"x_max":755.546875,"ha":817,"o":"m 42 1121 l 745 1121 l 745 1238 l 40 1238 l 42 1121 m 186 358 q 178 332 183 366 q 184 225 172 298 l 184 206 q 253 72 194 134 q 450 -12 330 -8 q 699 84 620 -17 q 755 257 755 155 q 667 467 755 396 q 503 531 604 517 q 93 537 457 533 l 99 400 q 493 389 425 400 q 597 257 596 352 q 477 134 598 144 q 411 139 430 130 q 362 162 391 147 q 322 213 328 198 q 311 270 316 229 q 303 281 305 311 q 308 318 314 257 q 297 362 308 346 q 278 362 294 356 q 265 351 281 366 q 272 365 271 356 q 249 366 269 374 q 186 358 216 367 m 85 537 l 93 392 l 86 538 l 86 397 l 85 537 m 440 278 l 440 278 m 171 547 l 311 544 l 320 591 l 315 710 l 267 808 l 223 889 l 144 960 l 94 1004 l 31 1049 l 69 988 l 110 929 l 165 828 l 177 729 l 180 674 l 177 588 l 171 547 "},"w":{"x_min":71.890625,"x_max":775.203125,"ha":817,"o":"m 82 451 q 97 516 78 451 q 162 639 120 592 q 310 700 220 704 q 452 689 394 698 q 531 681 505 681 q 561 683 545 681 q 775 752 669 689 q 670 650 735 698 q 501 584 578 580 q 388 594 431 587 q 329 599 355 600 q 82 451 191 594 m 452 564 q 385 551 452 573 q 259 470 309 526 q 184 265 189 392 q 146 -27 172 44 q 71 -106 129 -74 q 218 -40 158 -97 q 305 231 311 48 q 339 427 301 340 q 413 533 367 489 q 452 564 433 549 m 438 475 l 437 8 l 549 8 l 549 474 l 438 475 m 453 1163 l 382 1163 l 382 1244 l 453 1244 l 453 1163 m 448 714 l 377 714 l 377 1130 l 448 1130 l 448 714 "},"∫":{"x_min":0,"x_max":379.8125,"ha":355,"o":"m 136 643 l 147 1003 q 181 1175 150 1100 q 294 1264 217 1264 q 352 1242 326 1264 q 379 1191 379 1221 q 362 1141 379 1162 q 317 1121 345 1121 q 265 1145 293 1121 q 238 1158 250 1158 q 211 1115 211 1158 q 217 1016 211 1084 q 242 565 242 736 q 232 167 242 535 q 170 -103 225 -34 q 80 -149 135 -149 q 22 -125 44 -149 q 0 -67 0 -102 q 61 0 0 0 q 107 -21 85 0 q 141 -43 130 -43 q 167 -2 167 -43 q 161 79 167 27 q 134 525 134 310 q 136 643 134 584 "},"\\":{"x_min":65.109375,"x_max":645.671875,"ha":699,"o":"m 535 1013 l 549 1013 q 596 989 586 1005 q 617 937 617 969 l 617 932 q 581 871 617 901 q 535 860 560 860 q 478 897 493 872 q 467 940 467 916 q 524 1012 467 988 l 535 1013 m 464 832 l 476 830 l 509 830 l 520 828 l 521 830 l 522 830 l 524 828 l 526 828 l 532 830 l 567 827 l 579 827 q 596 819 594 827 l 596 805 l 598 793 l 596 793 l 598 791 l 598 788 l 596 786 l 598 784 l 598 779 l 596 768 l 598 750 l 598 659 l 600 640 l 598 630 l 600 623 l 598 622 l 600 604 l 600 440 l 601 424 l 600 414 l 601 408 l 600 403 l 601 366 l 601 360 l 600 358 l 601 357 l 601 269 l 602 262 l 601 255 l 601 248 l 602 232 l 601 229 l 602 214 l 606 48 l 604 44 q 609 24 609 36 l 609 16 q 590 6 606 10 l 575 7 l 569 6 l 567 7 l 566 7 q 491 2 556 2 l 489 4 l 487 4 l 482 2 l 469 4 l 452 2 l 446 4 l 436 2 q 261 34 360 2 q 185 78 191 65 q 158 96 174 78 q 124 132 139 107 q 93 183 107 149 l 96 189 q 80 266 80 221 q 96 334 85 326 l 93 339 q 154 427 124 400 q 341 522 244 507 l 391 533 l 391 531 l 443 540 l 452 538 l 467 540 l 486 538 l 487 538 q 492 547 490 538 l 489 586 l 491 588 l 489 596 l 489 602 l 487 722 l 486 724 l 483 724 l 446 725 l 415 724 l 415 725 l 414 724 l 402 724 l 394 725 q 240 677 307 718 q 172 554 172 626 q 197 493 185 493 l 200 483 q 143 440 173 473 l 124 419 q 81 481 92 446 q 67 541 67 526 l 67 550 q 108 680 67 633 q 170 744 108 692 q 371 822 291 813 q 464 830 371 826 l 464 832 m 480 437 q 414 432 432 437 l 414 434 l 392 430 l 389 434 l 383 427 l 379 427 l 377 430 q 245 367 273 396 q 199 303 210 339 q 191 266 191 279 l 191 246 q 236 168 191 214 q 438 113 318 113 l 476 113 q 497 116 489 113 l 492 139 l 494 158 l 494 248 l 492 273 l 494 278 q 487 293 494 293 l 469 290 q 279 311 384 290 q 256 317 279 313 q 246 321 256 321 q 231 334 231 330 q 265 362 250 360 q 359 412 307 395 q 432 403 359 407 l 436 403 l 489 404 l 492 408 l 491 411 l 491 426 l 492 435 l 489 438 l 480 437 m 65 1231 l 645 1231 l 645 1134 l 65 1134 l 65 1231 "},"о":{"x_min":44,"x_max":934.203125,"ha":973,"o":"m 859 724 q 877 684 859 727 q 912 579 898 633 q 934 427 932 503 q 859 148 938 276 q 605 -3 765 -4 q 422 71 498 -2 q 332 214 364 126 q 309 313 306 281 q 348 460 313 402 q 484 538 394 538 q 623 467 574 538 q 669 315 666 406 q 645 204 670 247 q 590 145 630 177 q 526 169 537 159 q 487 207 511 182 q 558 316 558 260 q 544 387 558 356 q 493 430 526 430 q 420 312 426 430 q 461 197 416 257 q 603 124 515 124 q 748 241 690 124 q 794 421 795 338 q 754 600 792 508 q 718 675 724 675 l 859 724 m 448 29 q 417 55 447 29 q 390 77 404 66 q 353 131 377 97 q 339 122 346 126 q 314 120 327 116 q 237 169 271 129 q 176 368 178 237 q 227 561 174 439 q 282 670 274 670 l 154 732 q 87 592 99 624 q 44 357 44 478 q 111 110 44 210 q 296 0 182 5 q 448 29 406 -6 "},"Д":{"x_min":51,"x_max":989,"ha":1018,"o":"m 51 4 l 51 316 q 156 317 61 316 q 276 319 250 319 q 296 319 301 319 q 287 319 294 319 q 295 319 289 319 q 381 258 313 297 q 490 197 431 230 q 353 172 441 186 q 219 164 275 167 l 219 4 l 51 4 m 262 151 q 398 159 291 150 q 527 187 474 169 q 673 156 566 175 q 787 146 765 146 q 533 124 569 124 q 262 151 510 124 m 989 2 l 827 2 l 827 158 q 160 677 188 182 q 263 924 151 824 q 533 1019 374 1023 q 810 912 705 1014 q 909 670 911 814 q 839 440 906 529 q 734 343 809 398 l 570 399 q 668 493 655 476 q 730 660 730 570 q 653 812 730 753 q 538 857 593 856 q 435 835 484 857 q 336 681 335 793 q 473 413 337 508 q 754 316 575 342 q 989 299 812 308 l 989 2 "},"Ç":{"x_min":69.59375,"x_max":696,"ha":935,"o":"m 675 453 l 674 876 l 69 876 l 69 453 l 189 451 l 191 733 l 302 733 l 302 2 l 442 2 l 442 733 l 552 733 l 552 453 l 675 453 m 369 1255 q 502 1200 448 1255 q 557 1068 557 1146 q 502 936 557 991 q 369 882 447 882 q 238 936 292 882 q 183 1068 183 991 q 237 1200 183 1146 q 369 1255 292 1255 m 374 1180 q 294 1147 326 1180 q 261 1068 261 1115 q 294 989 261 1022 q 374 956 326 956 q 454 989 421 956 q 487 1068 487 1022 q 454 1147 487 1115 q 374 1180 421 1180 m 475 -104 l 511 16 l 601 16 l 579 -56 q 658 -85 626 -62 q 696 -156 696 -113 q 627 -258 696 -224 q 499 -286 573 -286 q 402 -277 444 -286 l 409 -198 q 473 -201 453 -201 q 583 -149 583 -201 q 546 -111 583 -123 q 475 -104 525 -105 "},"ъ":{"x_min":66,"x_max":702,"ha":713,"o":"m 221 341 q 221 341 221 341 l 221 341 l 221 626 l 66 626 l 66 737 l 344 737 l 344 449 q 277 412 312 441 q 221 330 235 377 l 221 341 m 460 -3 q 289 64 360 -3 q 219 228 219 132 q 289 392 219 324 q 460 460 360 460 q 631 392 560 460 q 702 228 702 324 q 631 64 702 132 q 460 -3 560 -3 m 584 228 q 454 346 584 346 q 375 317 407 346 q 338 228 338 284 q 460 110 338 110 q 584 228 584 110 "},"ς":{"x_min":58,"x_max":654.828125,"ha":639,"o":"m 654 713 l 626 611 q 474 636 550 636 q 263 557 348 636 q 177 353 177 477 q 239 194 177 252 q 397 118 290 146 q 509 83 477 97 q 599 10 572 55 q 623 -79 623 -28 q 538 -239 623 -180 q 359 -292 464 -292 q 256 -282 314 -292 l 286 -170 q 355 -179 325 -179 q 446 -157 408 -179 q 495 -82 495 -131 q 445 -13 495 -37 q 355 10 423 -3 q 143 115 220 39 q 58 331 58 200 q 185 626 58 512 q 490 737 307 737 q 654 713 573 737 "},"C":{"x_min":15.59375,"x_max":621.9375,"ha":683,"o":"m 621 453 l 620 876 l 15 876 l 15 453 l 135 451 l 137 733 l 248 733 l 248 2 l 388 2 l 388 733 l 498 733 l 498 453 l 621 453 m 315 1255 q 448 1200 394 1255 q 503 1068 503 1146 q 448 936 503 991 q 315 882 393 882 q 184 936 238 882 q 129 1068 129 991 q 183 1200 129 1146 q 315 1255 238 1255 m 320 1180 q 240 1147 272 1180 q 207 1068 207 1115 q 240 989 207 1022 q 320 956 272 956 q 400 989 367 956 q 433 1068 433 1022 q 400 1147 433 1115 q 320 1180 367 1180 "},"Ē":{"x_min":110.515625,"x_max":739,"ha":815,"o":"m 269 434 q 285 480 270 459 q 316 515 301 502 q 362 505 327 510 q 396 509 382 504 q 409 523 411 513 q 375 543 407 548 q 305 531 314 535 q 256 434 271 511 q 253 413 253 424 q 463 200 251 303 q 607 98 536 164 q 682 -33 689 20 q 653 10 685 -21 q 479 104 598 63 q 303 168 332 156 q 181 256 221 204 q 120 421 134 316 q 118 446 118 434 q 237 600 120 545 q 394 638 327 644 q 492 605 449 632 q 553 517 549 571 q 499 425 556 461 q 379 400 446 394 q 269 434 298 408 m 118 502 q 170 578 132 548 q 275 630 192 595 q 274 657 274 659 q 433 826 276 743 q 588 902 516 869 q 638 935 615 914 q 694 1024 680 971 q 651 978 671 992 q 488 920 598 942 q 110 585 115 843 q 118 502 109 547 m 316 1078 l 316 1179 l 739 1179 l 739 1078 l 316 1078 "},"!":{"x_min":119,"x_max":270,"ha":309,"o":"m 156 246 l 119 773 l 119 994 l 270 994 l 270 773 l 235 246 l 156 246 m 124 0 l 124 139 l 264 139 l 264 0 l 124 0 "},"ç":{"x_min":54,"x_max":348,"ha":690,"o":"m 57 5 l 57 999 l 180 999 l 180 5 l 57 5 m 127 -90 l 163 30 l 253 30 l 231 -42 q 310 -71 278 -48 q 348 -142 348 -99 q 279 -244 348 -210 q 151 -272 225 -272 q 54 -263 96 -272 l 61 -184 q 125 -187 105 -187 q 235 -135 235 -187 q 198 -97 235 -109 q 127 -90 177 -91 "},"Ĵ":{"x_min":40.015625,"x_max":1090.578125,"ha":701,"o":"m 558 1050 l 558 1047 l 560 1050 l 562 1050 q 855 958 718 1050 q 887 937 855 954 l 934 897 q 1039 744 1024 797 q 1083 592 1068 697 l 1090 532 l 1087 518 q 978 200 1087 349 q 853 87 909 122 q 709 19 796 47 q 578 0 623 0 l 556 0 q 213 130 374 0 q 114 250 143 202 q 42 489 42 385 l 40 491 l 40 493 l 42 495 l 42 498 l 40 514 l 42 529 l 40 536 l 42 538 l 42 541 l 40 554 q 92 752 54 678 q 182 883 117 807 q 249 944 244 944 q 425 1030 341 1009 l 465 1041 l 467 1039 l 470 1039 q 558 1050 470 1043 m 288 912 l 299 910 l 301 910 l 301 912 l 296 916 l 292 916 l 288 912 m 554 897 l 542 899 q 416 870 472 893 q 299 788 338 834 q 200 617 225 711 l 195 608 l 198 606 l 198 604 q 189 526 189 557 q 206 408 189 451 q 236 333 206 393 q 305 245 268 280 q 378 191 341 212 q 411 177 378 186 l 472 153 l 475 155 l 476 155 l 524 146 l 526 149 l 550 146 l 560 146 l 562 143 l 565 146 l 576 146 q 735 189 641 146 q 914 392 857 254 q 941 516 941 480 l 939 532 l 941 533 l 941 536 q 908 678 941 590 q 786 829 880 745 q 697 876 731 863 q 583 901 666 887 l 554 897 m 550 779 l 558 777 l 573 777 l 576 775 l 578 777 l 585 777 l 588 775 l 589 777 q 712 732 644 774 q 781 647 767 680 q 813 552 796 628 l 813 529 l 815 511 q 788 408 802 430 q 634 281 741 318 q 569 270 626 277 l 560 273 l 554 270 q 430 308 499 270 q 333 423 362 351 q 314 480 322 446 l 317 486 l 313 522 q 337 623 313 581 q 445 746 360 691 q 550 779 511 779 m 472 619 l 470 622 l 467 622 q 454 600 466 611 q 430 500 430 561 q 491 410 453 429 q 558 389 524 389 q 687 469 643 389 l 697 516 q 666 608 697 573 q 573 656 616 656 l 567 653 l 560 656 q 479 626 504 647 l 472 619 m 1058 623 l 1058 619 l 1065 619 l 1065 623 l 1058 623 m 42 1127 l 1084 1127 l 1084 1249 l 40 1249 l 42 1127 m 530 1170 l 453 1055 l 314 1055 l 460 1245 l 590 1245 l 743 1055 l 604 1055 l 530 1170 "},"Й":{"x_min":48,"x_max":581,"ha":594,"o":"m 240 779 l 240 0 l 406 0 l 406 779 l 240 779 m 169 1020 q 252 988 217 1020 q 288 918 288 956 q 253 844 288 879 q 169 807 216 807 q 85 844 121 807 q 50 918 50 879 q 85 988 50 956 q 169 1020 121 1020 m 462 1020 q 545 988 510 1020 q 581 918 581 956 q 546 844 581 879 q 462 807 509 807 q 378 844 415 807 q 344 918 344 879 q 379 988 344 956 q 462 1020 414 1020 m 48 1128 q 115 1113 81 1121 q 205 1068 163 1102 q 319 958 298 991 q 385 1038 329 1017 q 516 1049 453 1062 q 482 1083 499 1066 q 415 1108 454 1106 q 306 1087 338 1112 q 227 1187 278 1147 q 136 1251 185 1219 l 48 1128 "},"X":{"x_min":62.390625,"x_max":853.875,"ha":933,"o":"m 166 975 q 350 904 246 975 q 445 779 438 815 q 512 622 512 649 q 586 680 522 622 l 769 834 l 771 837 l 773 837 q 853 733 853 748 q 792 685 837 724 q 754 653 786 685 l 540 467 q 590 234 564 282 q 676 103 607 191 q 807 31 731 46 q 847 23 847 29 l 847 18 q 786 4 847 8 l 769 4 q 540 142 659 20 q 455 274 476 222 q 420 364 432 344 l 288 246 l 149 133 l 140 133 l 65 223 l 65 228 l 376 497 q 392 520 392 509 l 392 523 q 364 703 392 580 q 238 910 317 854 q 145 948 172 948 l 117 948 l 71 941 l 62 955 q 166 975 74 975 "},"ô":{"x_min":46.125,"x_max":1067.515625,"ha":741,"o":"m 555 1022 q 918 872 769 1022 q 1067 510 1067 722 q 917 150 1067 299 q 555 1 768 1 q 195 150 345 1 q 46 510 46 299 q 194 872 46 722 q 555 1022 342 1022 m 555 882 q 293 774 401 882 q 185 512 185 666 q 293 250 185 358 q 555 142 401 142 q 816 250 708 142 q 925 512 925 358 q 817 774 925 666 q 555 882 710 882 m 361 925 l 284 809 l 145 809 l 291 999 l 421 999 l 574 809 l 436 809 l 361 925 "},"Б":{"x_min":56,"x_max":814.25,"ha":832,"o":"m 173 447 l 341 447 l 341 298 q 400 195 352 225 q 495 168 432 174 q 592 196 552 170 q 658 334 658 239 q 604 431 652 396 q 495 464 559 464 l 56 464 l 56 625 l 501 625 q 724 536 633 625 q 814 315 814 447 q 722 102 814 197 q 496 3 625 3 q 270 96 367 2 q 176 299 177 187 l 173 447 m 173 1017 l 759 1019 l 759 857 l 343 857 l 343 637 q 173 637 232 638 l 173 1017 "},"г":{"x_min":56,"x_max":502,"ha":496,"o":"m 56 741 l 502 741 l 502 617 l 187 617 l 187 -3 l 56 -3 l 56 741 "},"Ā":{"x_min":-0.484375,"x_max":832.390625,"ha":918,"o":"m 373 295 l 373 -3 l 445 -3 l 445 295 l 373 295 m 253 122 l 559 122 l 559 191 l 253 191 l 253 122 m 708 7 q 767 48 713 7 q 832 94 828 91 q 359 689 555 417 q 331 758 331 728 q 352 817 331 784 q 405 847 376 847 q 460 821 434 847 q 479 736 486 795 q 429 636 477 712 l 514 521 q 603 761 603 638 q 520 940 603 878 q 422 964 487 964 q 314 948 367 964 q 242 909 261 931 q 200 769 200 859 q 254 603 200 675 q 708 7 457 338 m 390 388 l 307 495 q 156 290 310 494 q 0 83 78 186 q 116 8 -1 83 q 390 388 204 132 m 172 1070 l 172 1171 l 595 1171 l 595 1070 l 172 1070 "},"х":{"x_min":51,"x_max":693.28125,"ha":688,"o":"m 693 -92 q 350 54 502 -94 q 198 394 198 203 q 284 647 198 530 l 359 511 q 335 387 335 451 q 435 130 335 259 q 693 -92 528 11 m 672 887 q 375 739 454 811 l 448 670 q 672 887 491 741 m 51 859 q 385 711 229 860 q 546 366 546 558 q 459 119 546 235 l 384 255 q 410 379 410 315 q 308 636 410 506 q 51 859 215 755 m 60 -121 q 357 21 287 -43 l 285 95 q 60 -121 241 24 "},"}":{"x_min":71.21875,"x_max":773.859375,"ha":845,"o":"m 517 0 l 501 0 q 403 33 458 0 q 383 48 390 48 l 347 92 q 315 153 322 136 q 301 204 301 196 q 288 271 288 254 l 288 302 q 299 354 293 307 q 339 437 302 373 q 415 492 382 492 q 482 459 438 492 q 543 335 522 421 l 550 284 l 550 280 l 545 241 l 545 223 q 495 119 526 172 l 491 119 q 486 113 491 113 l 474 113 q 448 135 448 131 l 423 164 q 452 233 452 219 l 464 269 l 464 288 q 440 366 458 339 q 419 380 427 380 q 383 316 400 380 l 379 290 l 379 245 l 383 229 l 383 215 q 399 174 395 197 q 448 119 433 124 q 458 115 448 115 q 503 96 478 96 l 521 92 q 611 131 554 92 l 635 162 l 663 221 q 682 354 678 269 l 682 366 q 661 474 682 440 q 550 661 650 513 q 436 817 515 704 q 313 1044 319 980 q 309 1058 309 1044 l 309 1091 q 333 1156 314 1127 q 425 1209 382 1209 q 436 1213 425 1213 l 460 1213 q 541 1172 497 1213 q 578 1101 576 1129 l 578 1052 q 533 934 578 1013 q 507 899 510 899 l 456 973 l 480 1024 q 489 1074 489 1045 q 446 1121 480 1121 q 407 1072 419 1121 l 407 1060 q 511 878 407 1006 l 619 738 q 751 508 713 610 q 771 413 771 463 l 773 400 l 773 360 q 749 210 766 246 l 731 158 q 716 129 731 150 l 704 105 q 659 54 704 97 q 600 19 625 25 q 517 0 600 7 m 299 1 q 207 33 259 1 q 164 66 188 44 q 140 94 160 66 q 130 111 134 94 q 97 174 121 111 l 83 221 l 71 308 l 71 333 q 152 571 71 463 q 227 667 185 621 q 385 876 360 851 l 438 799 l 438 797 l 268 573 l 227 526 q 179 447 214 513 q 156 326 171 447 l 156 320 q 187 196 173 196 q 233 129 190 173 q 293 96 272 96 l 323 103 l 323 101 q 373 44 369 44 q 381 31 381 44 q 354 13 381 24 q 299 1 354 7 "},"â":{"x_min":50.1875,"x_max":809.125,"ha":721,"o":"m 328 470 q 192 661 330 471 q 50 857 120 759 q 166 939 105 897 q 286 754 179 918 q 409 580 402 580 l 328 470 m 434 339 q 501 231 499 255 q 484 148 507 172 q 438 125 462 125 q 378 158 404 125 q 358 227 358 195 q 385 305 358 264 q 809 857 548 543 q 754 900 805 859 q 701 940 706 940 q 701 939 701 940 q 553 746 627 843 q 299 404 375 514 q 239 220 239 316 q 284 67 239 133 q 426 7 324 7 q 531 32 488 7 q 628 182 628 88 q 507 436 628 275 l 434 339 m 449 845 l 408 845 l 408 847 l 271 847 l 269 800 l 447 800 l 449 813 l 449 800 l 577 800 l 577 847 l 449 847 l 449 845 m 402 847 l 402 982 l 445 982 l 444 847 l 402 847 m 447 666 l 400 666 l 400 800 l 447 800 l 447 666 m 363 925 l 286 809 l 147 809 l 293 999 l 423 999 l 576 809 l 438 809 l 363 925 "},"ø":{"x_min":87,"x_max":762,"ha":803,"o":"m 622 677 l 689 764 l 755 716 l 682 623 q 740 517 725 563 q 762 359 762 451 q 647 60 762 155 q 423 -16 555 -16 q 233 37 316 -16 l 161 -54 l 97 -5 l 171 89 q 114 182 131 136 q 87 350 87 256 q 166 623 87 520 q 420 737 255 737 q 622 677 520 737 m 554 588 q 424 636 492 636 q 259 548 315 636 q 212 360 212 474 q 247 189 212 258 l 554 588 m 605 522 l 300 126 q 420 85 353 85 q 588 170 531 85 q 637 361 637 244 q 628 451 637 411 q 605 522 622 480 "},"‰":{"x_min":25,"x_max":1364,"ha":1333,"o":"m 216 -37 l 624 1011 l 712 1011 l 306 -37 l 216 -37 m 25 745 q 218 1003 25 1003 q 372 923 322 1003 q 414 747 414 857 q 220 480 414 480 q 25 745 25 480 m 125 739 q 222 565 125 565 q 314 741 314 565 q 220 919 314 919 q 125 739 125 919 m 517 227 q 710 486 517 486 q 864 406 814 486 q 907 230 907 340 q 712 -37 907 -37 q 517 227 517 -37 m 617 222 q 715 47 617 47 q 807 223 807 47 q 712 402 807 402 q 617 222 617 402 m 975 227 q 1168 486 975 486 q 1322 406 1272 486 q 1364 230 1364 340 q 1170 -37 1364 -37 q 975 227 975 -37 m 1075 222 q 1172 47 1075 47 q 1264 223 1264 47 q 1170 402 1264 402 q 1075 222 1075 402 "},"Ä":{"x_min":-0.484375,"x_max":832.390625,"ha":918,"o":"m 373 295 l 373 -3 l 445 -3 l 445 295 l 373 295 m 253 122 l 559 122 l 559 191 l 253 191 l 253 122 m 708 7 q 767 48 713 7 q 832 94 828 91 q 359 689 555 417 q 331 758 331 728 q 352 817 331 784 q 405 847 376 847 q 460 821 434 847 q 479 736 486 795 q 429 636 477 712 l 514 521 q 603 761 603 638 q 520 940 603 878 q 422 964 487 964 q 314 948 367 964 q 242 909 261 931 q 200 769 200 859 q 254 603 200 675 q 708 7 457 338 m 390 388 l 307 495 q 156 290 310 494 q 0 83 78 186 q 116 8 -1 83 q 390 388 204 132 m 186 1055 l 186 1194 l 314 1194 l 314 1055 l 186 1055 m 438 1055 l 438 1194 l 566 1194 l 566 1055 l 438 1055 "},"Ч":{"x_min":55,"x_max":756,"ha":781,"o":"m 410 869 q 488 839 456 869 q 520 763 520 810 q 488 686 520 715 q 410 657 456 657 q 332 686 364 657 q 301 763 301 715 q 332 839 301 810 q 410 869 364 869 m 55 1019 l 217 1019 l 217 579 l 596 579 l 596 1019 l 756 1019 l 756 432 l 490 432 l 490 -5 l 320 -5 l 320 432 l 55 432 l 55 1019 "},"—":{"x_min":1,"x_max":1390,"ha":1432,"o":"m 1 311 l 1 409 l 1390 409 l 1390 311 l 1 311 "},"N":{"x_min":33.90625,"x_max":893.890625,"ha":944,"o":"m 348 507 l 442 387 q 301 199 432 387 q 166 0 179 23 q 33 89 97 45 q 195 299 113 194 q 348 507 351 505 m 470 648 l 552 542 q 689 817 689 718 q 579 979 689 918 q 460 1005 531 1005 q 299 940 345 1005 q 248 776 248 869 q 316 577 248 672 q 604 208 402 458 q 771 0 688 105 q 773 0 771 0 q 832 42 778 0 q 893 90 889 87 q 415 685 598 427 q 383 768 383 728 q 405 843 383 803 q 473 878 435 878 q 526 853 501 878 q 545 765 552 826 q 470 648 541 739 "},"⁄":{"x_min":-307.3125,"x_max":546.203125,"ha":508,"o":"m -307 -39 l 439 1011 l 546 1011 l -200 -39 l -307 -39 "},"2":{"x_min":39,"x_max":914.578125,"ha":926,"o":"m 209 948 l 266 1002 q 295 990 279 999 q 380 910 333 966 q 438 748 438 840 q 414 646 438 699 q 330 577 383 577 q 238 623 272 577 q 209 717 208 664 q 282 867 209 839 l 209 948 m 322 676 q 354 720 354 676 q 322 767 354 767 q 292 720 292 767 q 322 676 292 676 m 401 931 l 453 860 q 506 880 488 881 q 574 847 541 879 q 630 686 627 796 q 579 459 631 593 q 436 218 522 313 q 226 108 336 106 q 210 107 219 107 q 155 163 155 107 q 182 198 155 185 q 228 209 203 209 q 278 201 265 209 q 296 190 295 190 q 343 190 317 187 l 403 245 q 223 317 329 317 q 88 266 142 317 q 39 165 39 220 q 89 63 39 111 q 217 12 143 12 q 443 96 315 12 q 646 284 563 175 q 789 684 789 470 q 728 887 789 798 q 523 994 654 994 q 401 931 450 994 m 483 80 l 574 151 q 712 110 649 110 q 820 137 752 110 q 890 165 888 165 q 914 126 914 165 q 873 54 914 92 q 704 0 814 0 q 483 80 543 0 "},"М":{"x_min":1,"x_max":1062,"ha":1103,"o":"m 1 -241 q 175 -65 119 -177 q 263 403 254 90 q 392 891 272 736 q 615 1016 479 1003 l 739 576 l 888 1016 l 1062 1016 l 1062 4 l 892 4 l 892 731 l 722 239 l 529 879 q 441 747 463 815 q 408 406 410 646 q 1 -241 401 -188 "},"ü":{"x_min":88.75,"x_max":973.15625,"ha":699,"o":"m 973 554 q 969 510 969 541 l 968 510 l 969 508 l 969 506 q 928 377 949 406 q 729 204 857 257 l 682 188 q 608 115 655 132 l 604 115 q 541 167 579 123 l 535 174 l 535 183 l 571 212 q 594 271 594 240 q 568 302 587 302 l 564 302 q 520 246 532 302 l 519 227 l 520 225 l 520 223 l 519 221 q 562 132 519 160 q 666 96 589 96 l 688 96 q 790 126 765 111 l 813 72 l 824 37 q 747 2 824 29 l 682 -6 l 675 -4 l 664 -4 l 657 -6 q 529 27 572 3 l 490 53 l 452 90 l 429 132 q 412 185 425 132 l 415 187 l 411 221 q 425 284 418 276 q 487 371 440 334 q 558 402 511 389 q 630 388 630 397 q 664 360 653 379 q 697 301 686 341 l 706 301 l 752 327 q 761 336 752 331 q 810 384 788 358 q 876 563 876 474 l 874 573 l 876 575 q 840 704 865 663 q 788 774 822 739 q 703 836 749 816 q 663 849 703 841 q 630 904 645 889 q 605 931 630 912 q 571 950 597 942 l 571 953 q 598 961 571 959 l 616 959 l 630 961 q 754 924 709 950 q 863 841 810 897 q 925 751 910 793 q 966 628 950 714 q 971 557 971 589 l 973 556 l 973 554 m 700 296 l 699 296 l 697 286 l 700 253 q 693 220 697 220 l 693 217 l 697 212 q 711 262 707 212 q 700 296 703 296 m 661 779 q 605 657 642 691 q 520 615 556 615 l 501 615 q 417 657 454 621 q 388 701 391 683 l 386 704 l 383 704 q 291 651 341 693 q 199 422 199 562 q 237 278 199 358 q 327 194 282 219 q 386 163 356 173 l 404 163 l 410 159 l 406 153 q 461 65 418 105 l 463 64 l 463 56 q 444 51 463 51 q 246 112 345 51 q 147 214 187 160 q 128 249 142 219 q 106 302 119 261 l 108 308 q 90 401 98 321 l 92 401 l 90 402 l 90 421 l 88 434 q 119 570 97 522 q 168 654 151 634 l 192 686 q 278 759 227 723 q 350 794 278 765 q 377 802 358 798 q 406 864 382 836 q 428 881 421 878 l 431 881 q 519 830 467 881 q 505 812 519 817 l 490 786 q 484 754 484 769 q 516 721 489 721 l 518 721 q 549 765 549 731 l 549 786 q 469 881 522 856 q 419 895 446 895 l 417 894 l 408 895 l 401 895 l 393 894 l 392 895 l 389 895 l 383 894 l 381 895 l 379 895 q 304 876 351 891 l 300 872 l 290 872 q 263 944 286 873 l 255 971 q 408 1001 341 1001 l 419 1001 q 526 971 488 992 q 610 907 547 966 q 661 779 661 838 m 381 727 l 383 727 l 375 765 l 377 765 l 375 767 l 377 788 l 377 793 l 374 793 l 374 794 q 361 779 361 790 q 374 709 361 747 q 385 714 383 709 l 381 727 m 116 1139 l 939 1139 l 939 1234 l 118 1234 l 116 1139 m 216 861 l 216 1000 l 344 1000 l 344 861 l 216 861 m 468 861 l 468 1000 l 596 1000 l 596 861 l 468 861 "},"ь":{"x_min":5,"x_max":584,"ha":585,"o":"m 5 928 q 186 746 112 873 q 271 487 255 628 q 115 381 187 466 q 122 497 122 438 q 5 928 122 771 m 340 471 q 512 396 439 471 q 584 236 584 325 q 516 69 584 139 q 340 -2 447 -2 q 159 68 226 -2 q 97 236 97 134 q 168 396 97 325 q 340 471 242 471 m 340 362 q 249 320 286 362 q 216 229 216 281 q 249 142 216 179 q 340 102 286 102 q 431 142 395 102 q 465 229 465 179 q 431 320 465 281 q 340 362 394 362 "},"":{"x_min":16,"x_max":599,"ha":642,"o":"m 125 0 l 125 626 l 16 626 l 16 720 l 125 720 l 125 789 q 316 1011 125 1011 q 440 995 383 1011 l 421 892 q 356 898 386 898 q 266 866 288 898 q 248 766 248 839 l 248 720 l 386 720 l 386 626 l 248 626 l 248 0 l 125 0 m 476 0 l 476 994 l 599 994 l 599 0 l 476 0 "},"˜":{"x_min":5.984375,"x_max":459.734375,"ha":498,"o":"m 6 827 q 41 935 5 892 q 143 981 79 981 q 258 945 185 981 q 322 925 298 925 q 371 983 363 925 l 459 983 q 326 829 455 829 q 214 866 284 829 q 147 891 168 891 q 96 827 94 891 l 6 827 "},"ˇ":{"x_min":27,"x_max":456.3125,"ha":484,"o":"m 243 884 l 317 1000 l 456 1000 l 303 810 l 173 810 l 27 1000 l 166 1000 l 243 884 "},"Ÿ":{"x_min":3.78125,"x_max":786.453125,"ha":903,"o":"m 734 1239 l 735 1237 l 733 1233 q 773 1078 754 1175 l 779 1033 l 777 1032 l 777 1030 l 786 967 l 784 966 l 786 950 l 786 940 q 757 767 786 836 q 688 653 730 695 q 637 608 682 639 q 508 569 574 569 l 508 570 l 506 569 q 412 588 460 569 q 389 600 412 590 q 332 652 354 627 l 331 653 l 329 653 l 327 652 l 327 650 l 332 643 l 329 640 l 329 638 l 334 638 l 332 636 l 332 634 q 401 581 361 600 q 492 558 437 566 l 499 560 l 513 558 q 528 564 522 558 l 530 564 q 542 511 538 558 q 481 341 542 419 l 477 339 l 475 339 q 424 407 469 351 l 415 405 l 413 407 l 413 408 q 450 505 450 467 q 401 568 450 568 l 396 568 q 364 533 374 568 l 363 510 q 413 398 363 461 l 539 236 l 630 118 q 683 46 683 55 l 605 -12 l 600 -12 q 490 137 571 19 l 308 385 q 264 505 268 448 l 264 511 q 310 630 264 583 l 310 633 l 308 633 q 273 600 290 633 q 260 566 266 589 l 256 562 q 215 572 253 566 q 134 622 152 596 q 80 685 98 655 q 31 776 51 725 q 11 853 11 836 l 12 853 q 3 933 7 874 l 3 936 q 64 1226 3 1079 l 64 1231 l 66 1231 q 123 1201 75 1231 l 144 1193 l 145 1195 l 150 1184 q 106 1070 132 1184 l 92 985 l 94 983 l 92 960 l 92 920 l 94 913 l 92 912 l 92 910 q 138 763 103 821 q 229 659 165 692 q 283 645 266 645 l 327 653 q 310 684 327 659 q 283 734 293 713 q 259 874 259 807 q 294 1008 259 944 l 320 1039 q 371 1066 348 1062 l 371 1064 l 397 1069 q 448 1053 429 1064 q 539 922 509 1018 l 549 874 l 547 872 l 549 865 l 549 855 l 550 834 l 549 829 l 550 824 q 541 763 545 763 l 542 757 q 496 673 517 691 l 485 673 q 422 710 422 695 l 422 710 q 455 845 455 771 l 455 855 l 457 865 q 401 982 438 982 q 368 956 378 975 q 354 908 354 930 l 352 899 l 351 899 l 352 897 l 351 870 q 415 692 351 758 q 497 659 454 659 l 502 657 l 502 656 l 504 657 l 509 657 q 619 706 581 657 q 696 967 696 769 q 667 1158 696 1025 q 650 1211 661 1171 l 734 1239 m 343 654 l 348 649 q 397 657 366 657 l 415 656 l 420 657 q 483 633 455 651 q 530 577 519 609 l 532 577 l 536 580 q 492 636 519 626 q 424 666 477 655 l 394 667 q 343 656 343 664 l 343 654 m 338 313 l 341 313 q 355 293 346 311 q 405 232 401 232 l 405 231 l 383 201 l 226 -19 l 222 -19 l 146 36 l 340 309 l 338 313 m 205 1055 l 205 1194 l 333 1194 l 333 1055 l 205 1055 m 457 1055 l 457 1194 l 585 1194 l 585 1055 l 457 1055 "},"в":{"x_min":59,"x_max":519,"ha":575,"o":"m 400 216 q 365 295 400 267 q 289 321 335 321 q 217 296 250 321 q 178 216 178 267 q 206 143 178 173 q 289 112 237 112 q 369 139 338 112 q 400 216 400 167 m 59 216 q 127 369 59 304 q 289 435 196 435 q 450 369 381 435 q 519 216 519 304 q 450 63 519 128 q 289 -2 381 -2 q 127 63 196 -2 q 59 216 59 128 m 400 517 q 379 583 400 555 q 289 622 350 622 q 212 594 244 622 q 178 517 178 564 q 289 413 178 413 q 400 517 400 413 m 59 517 q 127 670 59 605 q 289 736 196 736 q 450 670 381 736 q 519 517 519 605 q 450 364 519 429 q 289 299 381 299 q 127 364 196 299 q 59 517 59 429 "},"Η":{"x_min":110.78125,"x_max":799.859375,"ha":935,"o":"m 110 0 l 110 994 l 242 994 l 242 585 l 660 585 l 660 994 l 797 994 l 799 0 l 662 0 l 662 468 l 242 468 l 242 0 l 110 0 "},"С":{"x_min":51,"x_max":687.1875,"ha":661,"o":"m 51 0 l 51 1012 l 687 1012 l 687 863 l 214 863 l 214 147 l 687 147 l 687 0 l 51 0 "},"ß":{"x_min":104,"x_max":805,"ha":823,"o":"m 104 0 l 104 677 q 125 846 104 785 q 234 973 155 930 q 393 1011 305 1011 q 562 963 491 1011 q 645 816 645 909 q 589 654 645 751 q 542 540 542 570 q 638 431 542 494 q 761 334 731 371 q 805 211 805 282 q 731 45 805 110 q 557 -17 659 -17 q 410 26 475 -17 q 311 146 344 70 l 416 195 q 555 84 476 84 q 642 118 605 84 q 680 201 680 152 q 658 266 680 239 q 582 326 644 283 q 475 406 502 381 q 417 521 417 463 q 470 661 417 570 q 526 803 526 758 q 481 883 526 853 q 391 910 442 910 q 254 836 291 910 q 227 671 227 783 l 227 0 l 104 0 "},"њ":{"x_min":67.828125,"x_max":744.6875,"ha":814,"o":"m 691 1016 q 705 1005 705 1012 q 615 957 705 996 q 463 803 539 906 q 384 654 392 702 q 362 566 376 654 l 360 541 l 362 535 l 360 513 l 360 511 l 370 509 l 386 509 l 399 511 l 401 509 l 404 509 l 413 511 l 415 509 l 423 511 l 491 513 q 505 502 499 513 l 505 498 l 503 498 l 507 430 q 439 412 507 414 l 436 415 l 395 410 l 393 412 l 390 412 l 388 410 l 386 410 l 373 412 q 364 403 366 410 q 373 373 370 394 q 443 238 400 300 l 480 188 q 647 34 621 38 l 737 -22 q 744 -35 744 -24 q 729 -42 736 -42 l 725 -42 q 569 6 690 -42 l 448 73 q 278 247 328 171 q 202 401 237 299 l 160 397 l 160 399 l 158 397 l 92 394 l 78 394 q 67 449 67 394 l 67 495 q 103 502 67 501 l 142 500 l 162 502 l 162 500 l 164 502 l 179 502 q 197 516 197 502 l 197 529 q 358 858 197 684 q 491 955 421 914 q 630 1007 549 988 q 691 1016 652 1007 "},"s":{"x_min":43,"x_max":641,"ha":690,"o":"m 43 215 l 163 233 q 350 85 184 85 q 460 109 415 85 q 516 199 516 139 q 480 264 516 240 q 355 305 455 280 q 209 346 242 334 q 90 433 122 380 q 63 529 63 476 q 145 686 63 627 q 328 737 214 737 q 571 646 505 737 q 614 534 602 604 l 494 518 q 337 636 477 636 q 181 543 181 636 q 242 467 181 492 q 350 436 260 461 q 492 396 470 404 q 611 316 577 364 q 641 211 641 274 q 502 13 641 74 q 350 -16 435 -16 q 43 215 84 -16 "},"?":{"x_min":61,"x_max":703,"ha":711,"o":"m 320 244 q 319 281 319 269 q 339 405 319 352 q 388 484 355 445 q 478 570 405 505 q 558 658 539 624 q 578 731 578 691 q 520 858 578 807 q 385 910 462 910 q 186 709 218 910 l 61 724 q 161 936 77 862 q 383 1011 244 1011 q 603 941 513 1011 q 703 739 703 866 q 658 597 703 663 q 552 486 626 551 q 489 425 505 444 q 447 350 458 390 q 437 244 438 318 l 320 244 m 313 0 l 313 139 l 452 139 l 452 0 l 313 0 "},"c":{"x_min":210.921875,"x_max":333,"ha":544,"o":"m 210 5 l 210 999 l 333 999 l 333 5 l 210 5 "},"¶":{"x_min":1,"x_max":751.125,"ha":764,"o":"m 275 -276 l 275 432 q 77 511 152 439 q 1 707 1 585 q 91 924 1 849 q 321 994 176 994 l 751 994 l 751 877 l 653 877 l 653 -276 l 538 -276 l 538 877 l 387 877 l 387 -276 l 275 -276 "},"Μ":{"x_min":105.671875,"x_max":903.78125,"ha":1095,"o":"m 268 626 l 176 592 q 148 533 153 547 q 120 429 129 482 q 110 323 110 377 q 170 105 110 193 q 333 6 234 11 q 468 33 430 0 q 451 43 462 33 q 428 67 441 53 q 404 96 415 80 q 384 124 392 111 q 367 115 374 119 q 348 114 360 111 q 294 141 316 120 q 257 190 272 161 q 233 257 241 220 q 226 333 226 295 q 236 391 226 347 q 263 482 247 435 q 294 565 278 529 q 321 602 310 602 l 268 626 m 730 621 l 836 657 q 860 710 855 695 q 898 918 898 812 q 838 1136 898 1047 q 675 1235 774 1230 q 540 1207 578 1241 q 552 1203 540 1217 q 579 1171 563 1190 q 611 1137 595 1152 q 637 1126 628 1121 q 660 1128 645 1131 q 752 1051 721 1112 q 783 907 783 989 q 737 737 783 843 q 688 640 694 640 l 730 621 m 836 657 q 852 621 836 662 q 903 396 900 511 q 836 147 907 261 q 612 13 753 11 q 449 78 517 13 q 413 124 431 96 q 380 182 394 151 q 357 241 366 212 q 348 293 348 270 q 384 424 354 375 q 504 491 422 491 q 626 429 584 491 q 653 378 642 408 q 666 317 663 348 q 666 253 670 285 q 647 197 662 221 q 628 172 640 185 q 598 144 616 159 q 542 166 552 156 q 526 180 536 172 q 506 200 517 189 q 569 297 569 246 q 565 330 569 312 q 555 362 562 347 q 537 387 547 377 q 511 396 526 396 q 447 292 451 396 q 457 232 444 262 q 493 178 470 202 q 547 140 516 155 q 610 125 578 125 q 737 229 687 125 q 769 312 759 273 q 778 388 778 351 q 771 446 778 408 q 753 522 763 484 q 732 587 743 559 q 711 614 721 614 l 783 640 q 836 657 821 628 m 176 592 l 173 592 q 161 614 168 598 q 147 649 154 630 q 134 687 140 668 q 125 720 128 706 q 111 787 116 753 q 106 854 106 822 q 120 984 103 922 q 173 1103 137 1047 q 396 1237 255 1239 q 559 1171 493 1237 q 596 1126 578 1153 q 628 1069 614 1100 q 651 1009 642 1038 q 660 955 660 980 q 624 826 654 874 q 504 757 584 757 q 382 821 426 757 q 356 872 367 843 q 342 933 346 901 q 343 996 338 965 q 361 1051 347 1027 q 411 1104 377 1079 q 446 1095 433 1100 q 467 1084 458 1090 q 482 1070 475 1078 q 502 1050 489 1062 q 439 953 439 1003 q 443 919 439 937 q 454 886 447 901 q 472 862 461 871 q 497 852 483 852 q 562 958 556 852 q 551 1019 564 989 q 514 1072 538 1048 q 461 1110 491 1096 q 399 1125 431 1125 q 271 1020 321 1125 q 240 937 249 977 q 230 860 230 897 q 237 804 230 841 q 255 729 245 767 q 276 664 265 692 q 297 636 288 636 l 268 626 l 243 607 q 176 592 188 619 m 291 637 l 308 606 l 274 626 l 245 606 l 226 606 l 291 637 m 695 639 l 715 617 l 730 623 l 695 639 m 835 655 l 830 649 l 819 639 l 807 637 l 789 639 l 835 655 "},"•":{"x_min":74,"x_max":418,"ha":454,"o":"m 74 487 q 124 608 74 558 q 245 659 174 659 q 367 609 317 659 q 418 487 418 559 q 367 365 418 415 q 245 315 317 315 q 124 365 174 315 q 74 487 74 416 "},"н":{"x_min":43,"x_max":752.421875,"ha":785,"o":"m 43 58 l 199 332 l 311 289 l 156 -3 l 43 58 m 247 464 l 354 438 q 367 537 367 509 q 192 732 367 732 q 80 674 119 732 q 51 576 50 630 q 96 417 52 467 q 312 312 150 357 q 453 288 362 298 q 556 266 526 281 q 625 182 601 243 q 632 152 632 166 q 600 116 632 115 q 554 144 574 118 q 534 208 534 170 q 544 260 534 233 l 427 283 q 411 197 411 237 q 464 57 411 117 q 599 -3 520 -4 q 739 134 739 -2 q 737 159 739 148 q 692 293 719 251 q 416 419 612 415 q 273 432 313 423 q 214 462 249 438 q 172 524 188 479 q 160 576 159 560 q 172 603 161 589 q 207 619 187 621 q 250 587 238 614 q 261 540 251 585 q 262 530 262 536 q 253 488 262 515 q 247 464 246 465 m 483 442 l 605 397 l 752 674 l 633 729 l 483 442 "},"(":{"x_min":67.140625,"x_max":395.40625,"ha":437,"o":"m 307 -244 q 67 498 67 101 q 307 1239 67 874 l 395 1239 q 286 1010 314 1080 q 192 497 192 766 q 395 -244 192 126 l 307 -244 "},"◊":{"x_min":32,"x_max":655.96875,"ha":675,"o":"m 372 964 l 655 480 l 372 0 l 297 0 l 32 480 l 297 964 l 372 964 m 335 898 l 105 480 l 336 64 l 579 480 l 335 898 "},"α":{"x_min":49,"x_max":750.96875,"ha":783,"o":"m 626 720 l 750 720 q 663 360 703 570 q 750 0 710 98 l 629 0 q 585 131 600 67 q 350 -16 529 -16 q 119 102 200 -16 q 49 361 49 204 q 118 621 49 521 q 352 737 198 737 q 490 702 434 737 q 590 598 542 670 q 626 720 594 621 m 372 636 q 220 545 269 636 q 183 362 183 474 q 218 179 183 252 q 365 85 266 85 q 519 179 467 85 q 562 367 562 256 q 522 547 562 477 q 372 636 473 636 "},"γ":{"x_min":16.984375,"x_max":677.59375,"ha":695,"o":"m 16 720 l 146 720 l 346 154 l 552 720 l 677 720 l 408 0 l 408 -276 l 284 -276 l 284 0 l 16 720 "},"м":{"x_min":43.796875,"x_max":933.828125,"ha":977,"o":"m 119 3 q 100 44 119 0 q 65 148 79 94 q 44 300 46 225 q 118 580 39 452 q 372 732 212 733 q 555 657 479 730 q 645 514 613 601 q 669 414 671 447 q 629 268 664 325 q 494 190 583 190 q 354 261 404 190 q 309 412 311 322 q 332 522 307 480 q 387 582 347 550 q 450 558 440 569 q 490 520 466 545 q 420 411 420 467 q 434 340 420 372 q 484 298 451 298 q 558 415 551 298 q 517 531 561 471 q 374 605 462 605 q 229 486 288 605 q 184 306 182 390 q 223 126 185 219 q 259 52 254 52 l 119 3 m 529 698 q 560 672 530 699 q 587 651 574 661 q 624 596 601 630 q 639 605 631 601 q 664 607 649 611 q 740 558 706 598 q 802 359 799 490 q 750 166 803 289 q 696 58 703 58 l 823 -3 q 890 135 878 104 q 933 371 933 249 q 866 617 933 516 q 680 729 795 722 q 529 698 570 734 "},"­":{"x_min":77,"x_max":733.53125,"ha":778,"o":"m 733 433 l 77 433 l 77 547 l 733 547 l 733 433 "},"з":{"x_min":67,"x_max":635.015625,"ha":672,"o":"m 72 675 q 138 705 106 693 q 301 739 220 736 q 518 675 418 742 q 635 460 636 595 q 523 258 633 332 q 390 210 443 206 q 217 357 217 220 q 271 476 217 433 q 388 514 318 511 q 520 447 469 516 q 501 394 509 402 q 472 360 491 381 q 387 420 431 420 q 346 406 365 420 q 322 359 322 389 q 391 303 322 307 q 480 338 433 300 q 537 459 537 384 q 446 579 537 532 q 307 615 372 615 q 168 584 239 613 q 111 556 111 560 l 72 675 m 609 327 q 589 301 610 326 q 572 278 581 289 q 530 247 556 267 q 534 220 537 232 q 347 103 511 106 q 198 143 292 101 q 114 186 114 180 l 67 79 q 174 22 150 32 q 356 -14 263 -14 q 547 42 469 -14 q 633 199 628 103 q 609 327 637 292 "},":":{"x_min":125,"x_max":264,"ha":292,"o":"m 125 581 l 125 720 l 264 720 l 264 581 l 125 581 m 125 0 l 125 139 l 264 139 l 264 0 l 125 0 "},"і":{"x_min":92.359375,"x_max":567.796875,"ha":255,"o":"m 361 1171 l 287 1171 l 287 1256 l 361 1256 l 361 1171 m 361 699 l 287 699 l 287 1137 l 361 1137 l 361 699 m 566 355 l 567 690 l 92 690 l 92 358 l 187 356 l 187 577 l 275 577 l 275 2 l 386 2 l 386 577 l 472 577 l 474 356 l 566 355 "},"V":{"x_min":51.546875,"x_max":1000.375,"ha":1055,"o":"m 456 -2 l 71 991 l 242 991 l 482 345 q 527 219 501 290 q 569 337 546 281 l 812 991 l 980 991 l 591 -2 l 456 -2 m 51 1112 l 1000 1112 l 1000 1233 l 51 1233 l 51 1112 "},"У":{"x_min":175,"x_max":1125.859375,"ha":1137,"o":"m 188 941 l 357 1017 l 687 175 l 956 1029 l 1125 997 l 800 3 l 175 3 l 175 162 l 510 162 l 188 941 "},"@":{"x_min":66.46875,"x_max":797.59375,"ha":884,"o":"m 708 962 q 797 892 794 901 q 693 760 793 877 q 534 554 693 754 q 517 541 526 541 l 513 548 l 514 596 l 512 610 l 514 610 l 512 612 l 514 682 l 512 712 q 588 812 512 716 l 706 962 l 708 962 m 148 944 l 155 944 q 405 645 282 800 q 615 349 590 435 q 633 259 630 311 l 631 259 l 633 257 l 632 253 q 604 141 632 203 q 540 69 570 86 q 471 42 522 53 l 438 38 q 306 107 358 40 q 254 224 268 145 l 253 282 q 280 400 254 317 q 357 515 318 473 l 359 515 l 359 517 q 162 758 307 585 l 66 869 l 66 875 l 148 944 m 486 931 q 496 893 497 912 l 498 766 l 496 764 l 498 756 l 499 681 l 501 679 l 501 677 l 499 670 l 501 571 l 495 567 q 375 716 379 695 l 375 718 l 373 922 l 370 928 l 373 930 l 375 930 l 486 931 m 369 503 l 368 484 l 370 476 l 368 467 l 375 398 l 373 386 l 377 353 l 375 347 l 377 345 q 361 268 361 288 q 378 185 360 250 l 379 141 l 377 124 l 377 110 l 420 109 l 433 111 l 435 109 l 460 111 l 510 109 l 514 113 l 514 134 l 512 147 l 515 160 l 513 166 l 515 180 l 514 207 l 522 230 l 518 265 l 520 265 q 505 328 514 307 l 501 328 l 499 320 l 501 318 l 501 311 l 499 311 l 500 286 l 500 263 l 498 261 l 500 259 l 499 247 l 499 122 l 493 118 l 485 118 l 478 120 l 468 119 l 439 119 l 421 118 l 415 120 l 394 118 l 389 126 l 388 280 l 386 282 l 386 284 l 388 286 l 386 307 l 387 340 l 385 353 l 387 355 l 383 478 l 385 486 q 373 503 378 501 l 369 503 m 400 467 l 400 465 q 489 335 436 406 l 495 341 q 430 433 482 375 l 400 467 m 439 5 q 524 -49 500 4 l 527 -70 l 527 -84 q 463 -158 526 -139 l 438 -162 q 387 -139 413 -162 q 363 -88 364 -113 l 363 -65 q 429 3 364 -19 l 439 5 "},"¾":{"x_min":22,"x_max":1138,"ha":1147,"o":"m 170 -39 l 916 1011 l 1023 1011 l 276 -39 l 170 -39 m 22 630 l 121 640 q 156 584 134 599 q 225 564 185 564 q 298 587 268 564 q 332 654 332 612 q 226 729 332 731 q 200 728 212 729 q 186 728 187 728 l 201 802 q 308 870 308 800 q 227 931 308 931 q 130 862 157 931 l 33 877 q 105 977 62 949 q 227 1006 148 1006 q 414 879 414 1006 q 320 770 414 797 q 438 641 438 741 q 370 521 438 564 q 231 485 313 485 q 22 630 51 485 m 969 -21 l 969 83 l 710 83 l 710 166 l 982 488 l 1067 488 l 1067 156 l 1138 156 l 1138 83 l 1067 83 l 1067 -21 l 969 -21 m 969 156 l 969 335 l 813 156 l 969 156 "},"i":{"x_min":60.359375,"x_max":535.796875,"ha":601,"o":"m 329 1171 l 255 1171 l 255 1256 l 329 1256 l 329 1171 m 329 699 l 255 699 l 255 1137 l 329 1137 l 329 699 m 534 355 l 535 690 l 60 690 l 60 358 l 155 356 l 155 577 l 243 577 l 243 2 l 354 2 l 354 577 l 440 577 l 442 356 l 534 355 "},"≤":{"x_min":52,"x_max":710.5625,"ha":730,"o":"m 52 516 l 52 630 l 710 909 l 710 787 l 188 573 l 710 357 l 710 235 l 52 516 m 709 72 l 52 72 l 52 185 l 709 185 l 709 72 "},"ё":{"x_min":55,"x_max":548.75,"ha":578,"o":"m 150 949 q 202 927 181 949 q 224 876 224 906 q 202 824 224 845 q 150 803 181 803 q 98 824 119 803 q 77 876 77 845 q 98 927 77 906 q 150 949 119 949 m 449 949 q 501 927 479 949 q 523 876 523 906 q 501 824 523 845 q 449 803 479 803 q 397 824 419 803 q 376 876 376 845 q 397 927 376 906 q 449 949 419 949 m 548 734 l 56 734 l 55 -2 l 546 -2 l 546 118 l 193 118 l 193 305 l 546 305 l 546 428 l 193 428 l 193 617 l 548 617 l 548 734 "},"υ":{"x_min":92,"x_max":669,"ha":731,"o":"m 92 720 l 215 720 l 215 294 q 252 149 215 205 q 380 85 295 85 q 472 113 429 85 q 532 187 514 141 q 548 303 548 228 l 548 720 l 669 720 l 669 298 q 597 70 669 151 q 377 -16 522 -16 q 225 20 293 -16 q 118 133 150 60 q 92 293 92 192 l 92 720 "},"m":{"x_min":65.109375,"x_max":1083.796875,"ha":1160,"o":"m 151 6 q 130 52 151 4 q 90 167 107 108 q 67 335 69 252 q 151 646 63 503 q 431 813 255 815 q 634 731 550 812 q 735 572 699 670 q 760 463 763 499 q 716 299 754 364 q 565 214 666 214 q 412 292 466 214 q 361 461 364 359 q 387 583 360 535 q 448 649 404 613 q 518 621 506 633 q 562 579 535 608 q 484 459 484 520 q 499 379 484 415 q 556 333 520 333 q 638 463 630 333 q 592 592 641 524 q 434 673 532 673 q 274 541 337 673 q 223 343 221 436 q 265 144 223 246 q 307 61 300 61 l 151 6 m 604 776 q 640 748 607 777 q 670 724 655 736 q 710 664 685 701 q 727 674 718 669 q 754 677 739 680 q 840 621 802 666 q 908 401 905 547 q 851 187 910 322 q 790 67 798 67 l 931 0 q 1005 154 992 118 q 1053 413 1053 280 q 978 687 1053 576 q 773 810 900 803 q 604 776 651 817 m 65 923 l 1083 923 l 1083 1053 l 65 1053 l 65 923 "},"ĕ":{"x_min":50.71875,"x_max":693.28125,"ha":735,"o":"m 353 980 l 364 979 q 553 912 488 975 q 659 790 625 876 q 688 678 690 717 l 687 641 l 689 628 q 650 512 675 552 l 641 497 q 693 288 697 402 q 665 183 691 252 q 648 146 661 183 q 585 79 612 99 q 423 4 532 29 l 421 6 l 419 6 q 371 0 411 2 q 265 20 265 15 q 128 126 213 37 q 66 303 63 219 l 67 316 q 80 399 69 382 l 77 401 l 77 404 q 120 495 92 447 q 99 529 121 501 q 73 588 77 564 q 58 663 63 600 l 60 713 q 115 846 72 793 q 284 965 210 950 q 353 980 305 972 m 190 698 q 209 593 187 617 l 262 623 q 381 648 323 650 l 383 648 q 543 601 458 645 l 544 601 q 559 646 549 604 l 558 657 l 559 656 l 558 659 l 558 666 q 456 836 562 769 l 423 849 l 420 847 l 381 852 q 269 823 343 853 q 205 743 216 779 q 190 698 197 744 m 292 501 q 374 474 343 475 q 471 499 415 472 l 471 500 q 408 522 439 521 l 385 523 l 376 526 q 295 506 319 521 l 292 505 l 292 501 m 383 353 l 374 354 q 263 377 344 354 q 227 394 263 381 l 204 417 q 185 341 186 387 l 186 317 l 183 317 q 213 218 187 267 q 339 135 273 138 l 352 132 l 352 130 l 353 132 l 364 130 l 402 128 q 483 161 458 142 q 547 230 529 189 q 567 308 554 230 l 567 325 q 551 411 569 368 l 549 411 q 383 353 473 350 m 55 1148 l 684 1148 l 684 1246 l 50 1246 l 55 1148 m 506 993 l 589 993 q 389 817 568 817 q 189 993 210 817 l 272 993 q 385 901 291 901 q 506 993 488 901 "},"Е":{"x_min":57,"x_max":718.3125,"ha":681,"o":"m 244 379 q 256 455 244 433 q 286 499 270 481 q 360 483 337 483 q 395 513 400 483 q 357 539 391 539 q 347 537 352 539 q 274 509 290 524 q 227 384 239 478 q 227 367 227 375 q 304 246 227 298 q 474 161 340 221 q 630 57 555 125 q 718 -88 720 -23 q 657 -43 718 -81 q 442 49 570 11 q 194 163 270 101 q 72 383 99 240 q 67 431 67 408 q 198 632 67 558 q 359 685 293 687 q 480 626 423 682 q 538 506 538 569 q 484 394 538 441 q 364 349 430 347 q 244 379 278 351 m 67 514 q 124 613 80 568 q 180 647 137 627 q 234 674 206 661 q 232 694 232 686 q 416 898 232 771 q 570 1015 537 981 q 615 1071 592 1043 q 648 1133 643 1103 q 650 1169 649 1151 q 411 1031 609 1093 q 119 830 208 967 q 57 610 57 733 q 67 514 57 557 "},"Э":{"x_min":33.71875,"x_max":723.078125,"ha":749,"o":"m 532 604 q 513 549 531 574 q 478 507 496 523 q 423 519 465 512 q 383 514 400 520 q 368 497 367 508 q 409 473 371 467 q 491 490 480 484 q 548 605 531 514 q 550 629 550 617 q 297 877 550 760 q 127 994 211 917 q 34 1149 28 1085 q 71 1097 32 1134 q 277 989 137 1035 q 487 916 453 931 q 632 816 583 876 q 707 623 689 746 q 710 593 710 608 q 573 408 710 475 q 390 362 468 355 q 272 397 324 367 q 199 500 204 436 q 261 609 194 567 q 402 642 322 647 q 532 604 497 635 m 712 527 q 651 436 695 473 q 529 372 626 416 q 531 340 531 339 q 347 139 531 240 q 164 45 249 85 q 106 5 134 30 q 43 -101 57 -38 q 93 -46 69 -63 q 284 26 154 -2 q 723 429 723 125 q 712 527 723 474 "},"ю":{"x_min":54,"x_max":987.90625,"ha":1019,"o":"m 604 691 l 540 772 q 633 908 553 798 q 686 988 661 940 q 713 1028 705 1024 q 736 1024 722 1032 q 777 994 745 1016 q 808 978 787 993 q 811 963 816 971 q 692 806 791 929 q 625 712 669 771 q 604 691 607 690 m 507 575 l 443 662 q 413 630 426 647 q 379 543 383 589 q 378 510 378 527 q 441 290 378 347 q 528 258 478 258 q 621 297 586 258 q 669 459 669 349 q 635 594 669 536 q 556 712 598 656 q 479 813 518 762 q 341 1034 374 956 q 335 1039 340 1039 q 295 1012 330 1039 q 255 982 259 985 q 245 966 247 974 q 415 721 244 953 q 485 634 450 677 q 552 532 529 577 q 568 430 568 501 q 557 371 568 384 q 530 361 548 362 q 497 371 510 360 q 474 446 481 385 q 472 526 468 499 q 507 575 475 542 m 431 678 q 417 656 423 672 q 407 636 411 640 q 366 577 392 613 q 316 584 341 590 q 241 552 265 573 q 175 368 184 501 q 205 166 169 297 q 244 49 238 49 l 132 0 q 54 341 54 172 q 55 385 54 362 q 140 615 62 529 q 340 701 218 701 q 416 689 392 701 q 431 678 434 680 m 589 671 q 633 636 606 659 q 675 577 649 613 q 725 584 699 590 q 799 552 776 573 q 867 368 857 501 q 835 166 872 297 q 796 49 803 49 l 909 0 q 987 340 987 172 q 986 385 987 362 q 901 615 979 529 q 701 701 823 701 q 614 686 649 701 q 589 671 587 673 "},"á":{"x_min":50.53125,"x_max":809.46875,"ha":719,"o":"m 328 470 q 192 661 330 471 q 50 857 121 759 q 167 939 106 897 q 286 754 179 918 q 410 580 402 580 l 328 470 m 435 339 q 502 231 499 255 q 484 148 508 172 q 438 125 462 125 q 378 158 404 125 q 359 227 359 195 q 386 305 359 264 q 809 857 548 543 q 754 900 806 859 q 702 940 707 940 q 702 939 702 940 q 553 746 627 843 q 299 404 375 514 q 239 220 239 316 q 284 67 239 133 q 426 7 325 7 q 532 32 488 7 q 628 182 628 88 q 508 436 628 275 l 435 339 m 450 845 l 408 845 l 408 847 l 271 847 l 269 800 l 447 800 l 450 813 l 450 800 l 577 800 l 577 847 l 450 847 l 450 845 m 402 847 l 402 982 l 445 982 l 444 847 l 402 847 m 447 666 l 401 666 l 401 800 l 447 800 l 447 666 m 293 810 l 383 1000 l 543 1000 l 394 810 l 293 810 "},"×":{"x_min":109,"x_max":700.40625,"ha":728,"o":"m 109 277 l 322 491 l 109 704 l 192 787 l 405 574 l 617 786 l 698 704 l 487 492 l 700 278 l 618 195 l 404 409 l 190 195 l 109 277 "},"п":{"x_min":54,"x_max":864.46875,"ha":856,"o":"m 66 510 q 83 586 61 510 q 157 726 109 674 q 328 798 224 801 q 492 785 425 795 q 583 776 553 776 q 618 778 599 776 q 864 857 741 784 q 743 739 817 794 q 549 664 637 659 q 418 676 468 667 q 350 682 380 683 q 66 510 191 675 m 492 640 q 415 626 492 651 q 270 532 328 596 q 182 295 189 442 q 140 -41 170 41 q 54 -132 119 -96 q 223 -56 153 -122 q 323 257 331 46 q 362 482 318 383 q 447 605 394 554 q 492 640 469 623 m 476 537 l 476 0 l 604 0 l 604 537 l 476 537 "},"K":{"x_min":52.21875,"x_max":883.046875,"ha":952,"o":"m 387 1035 q 461 1007 431 1035 q 491 939 491 978 q 461 870 491 899 q 387 842 431 842 q 316 870 345 842 q 286 939 286 899 q 316 1007 286 978 q 387 1035 345 1035 m 318 824 l 456 824 l 456 613 l 318 484 q 318 824 324 826 m 777 879 l 873 766 l 335 300 q 213 269 265 269 q 118 297 164 269 q 52 426 52 339 q 202 591 52 591 q 247 587 216 591 q 294 583 278 583 l 294 458 q 227 474 252 474 q 177 438 177 474 q 219 396 177 396 q 303 435 256 396 q 777 879 339 465 m 318 1 l 455 1 l 456 381 q 398 326 427 354 q 317 269 354 287 q 318 132 316 269 q 318 1 318 67 m 790 -25 l 883 65 l 521 436 l 480 410 l 480 287 l 790 -25 "},"7":{"x_min":46,"x_max":916.15625,"ha":920,"o":"m 570 878 l 500 786 q 237 877 329 877 q 158 853 194 877 q 98 829 123 829 q 46 872 52 829 q 242 1003 52 1003 q 570 878 408 1003 m 665 739 l 771 841 q 821 873 817 842 q 805 892 824 892 q 789 889 799 892 q 780 887 780 887 q 741 855 775 887 q 607 696 638 758 q 565 565 574 630 q 555 471 560 518 l 447 482 q 445 514 445 497 q 476 676 445 594 q 542 796 496 728 q 614 885 585 862 q 690 950 652 918 q 816 993 749 993 q 886 959 857 993 q 916 881 916 925 q 787 744 916 782 l 665 739 m 812 558 l 812 452 q 512 359 746 359 q 222 444 222 359 q 303 499 222 503 q 389 466 333 497 q 311 462 331 460 q 294 456 297 462 q 292 449 292 454 q 505 441 373 441 q 812 558 635 441 m 605 321 q 628 278 605 320 q 643 185 642 251 q 594 33 643 88 q 500 -11 553 -11 q 420 53 457 -9 q 386 185 383 116 q 428 325 388 277 l 551 325 q 526 281 535 303 q 504 189 510 243 q 502 149 502 165 q 522 107 502 109 q 542 134 531 106 q 553 186 553 162 q 536 221 553 219 l 605 321 "},"¨":{"x_min":42,"x_max":422,"ha":465,"o":"m 42 861 l 42 1000 l 170 1000 l 170 861 l 42 861 m 294 861 l 294 1000 l 422 1000 l 422 861 l 294 861 "},"Y":{"x_min":65.78125,"x_max":848.453125,"ha":907,"o":"m 796 1239 l 797 1237 l 795 1233 q 835 1078 816 1175 l 841 1033 l 839 1032 l 839 1030 l 848 967 l 846 966 l 848 950 l 848 940 q 819 767 848 836 q 750 653 792 695 q 699 608 744 639 q 570 569 636 569 l 570 570 l 568 569 q 474 588 522 569 q 451 600 474 590 q 394 652 416 627 l 393 653 l 391 653 l 389 652 l 389 650 l 394 643 l 391 640 l 391 638 l 396 638 l 394 636 l 394 634 q 463 581 423 600 q 554 558 499 566 l 561 560 l 575 558 q 590 564 584 558 l 592 564 q 604 511 600 558 q 543 341 604 419 l 539 339 l 537 339 q 486 407 531 351 l 477 405 l 475 407 l 475 408 q 512 505 512 467 q 463 568 512 568 l 458 568 q 426 533 436 568 l 425 510 q 475 398 425 461 l 601 236 l 692 118 q 745 46 745 55 l 667 -12 l 662 -12 q 552 137 633 19 l 370 385 q 326 505 330 448 l 326 511 q 372 630 326 583 l 372 633 l 370 633 q 335 600 352 633 q 322 566 328 589 l 318 562 q 277 572 315 566 q 196 622 214 596 q 142 685 160 655 q 93 776 113 725 q 73 853 73 836 l 74 853 q 65 933 69 874 l 65 936 q 126 1226 65 1079 l 126 1231 l 128 1231 q 185 1201 137 1231 l 206 1193 l 207 1195 l 212 1184 q 168 1070 194 1184 l 154 985 l 156 983 l 154 960 l 154 920 l 156 913 l 154 912 l 154 910 q 200 763 165 821 q 291 659 227 692 q 345 645 328 645 l 389 653 q 372 684 389 659 q 345 734 355 713 q 321 874 321 807 q 356 1008 321 944 l 382 1039 q 433 1066 410 1062 l 433 1064 l 459 1069 q 510 1053 491 1064 q 601 922 571 1018 l 611 874 l 609 872 l 611 865 l 611 855 l 612 834 l 611 829 l 612 824 q 603 763 607 763 l 604 757 q 558 673 579 691 l 547 673 q 484 710 484 695 l 484 710 q 517 845 517 771 l 517 855 l 519 865 q 463 982 500 982 q 430 956 440 975 q 416 908 416 930 l 414 899 l 413 899 l 414 897 l 413 870 q 477 692 413 758 q 559 659 516 659 l 564 657 l 564 656 l 566 657 l 571 657 q 681 706 643 657 q 758 967 758 769 q 729 1158 758 1025 q 712 1211 723 1171 l 796 1239 m 405 654 l 410 649 q 459 657 428 657 l 477 656 l 482 657 q 545 633 517 651 q 592 577 581 609 l 594 577 l 598 580 q 554 636 581 626 q 486 666 539 655 l 456 667 q 405 656 405 664 l 405 654 m 400 313 l 403 313 q 417 293 408 311 q 467 232 463 232 l 467 231 l 445 201 l 288 -19 l 284 -19 l 208 36 l 402 309 l 400 313 "},"E":{"x_min":72.515625,"x_max":656.515625,"ha":711,"o":"m 231 434 q 247 480 232 459 q 278 515 263 502 q 324 505 289 510 q 358 509 344 504 q 371 523 373 513 q 337 543 369 548 q 267 531 276 535 q 218 434 233 511 q 215 413 215 424 q 425 200 213 303 q 569 98 498 164 q 644 -33 651 20 q 615 10 647 -21 q 441 104 560 63 q 265 168 294 156 q 143 256 183 204 q 82 421 96 316 q 80 446 80 434 q 199 600 82 545 q 356 638 289 644 q 454 605 411 632 q 515 517 511 571 q 461 425 518 461 q 341 400 408 394 q 231 434 260 408 m 80 502 q 132 578 94 548 q 237 630 154 595 q 236 657 236 659 q 395 826 238 743 q 550 902 478 869 q 600 935 577 914 q 656 1024 642 971 q 613 978 633 992 q 450 920 560 942 q 72 585 77 843 q 80 502 71 547 "},"‹":{"x_min":62,"x_max":376.703125,"ha":404,"o":"m 196 357 l 376 49 l 275 49 l 62 357 l 275 667 l 376 667 l 196 357 "},"Є":{"x_min":74.8125,"x_max":947.875,"ha":943,"o":"m 580 572 l 580 455 l 211 455 q 292 204 217 302 q 523 94 376 94 q 820 345 760 94 l 947 312 q 532 -17 861 -17 q 182 134 297 -17 q 75 507 70 282 q 126 755 77 650 q 292 944 182 877 q 535 1011 399 1011 q 788 938 685 1011 q 934 721 897 862 l 806 687 q 534 895 749 895 q 304 805 388 895 q 216 572 224 719 l 580 572 "},"έ":{"x_min":66,"x_max":587.546875,"ha":590,"o":"m 561 639 l 474 568 q 318 632 391 632 q 238 606 269 632 q 204 531 204 579 q 257 444 204 473 q 363 421 300 421 q 397 421 373 421 l 397 319 q 365 319 375 319 q 193 198 193 319 q 233 116 193 148 q 321 85 270 85 q 500 172 416 85 l 587 99 q 317 -16 479 -16 q 141 36 211 -16 q 66 198 66 94 q 185 372 66 321 q 86 528 86 429 q 157 684 86 627 q 325 737 223 737 q 561 639 465 737 m 248 810 l 338 1000 l 498 1000 l 349 810 l 248 810 "},"±":{"x_min":53,"x_max":710,"ha":711,"o":"m 324 177 l 324 450 l 53 450 l 53 563 l 324 563 l 324 834 l 439 834 l 439 563 l 710 563 l 710 450 l 439 450 l 439 177 l 324 177 m 710 0 l 53 0 l 53 114 l 710 114 l 710 0 "},"ì":{"x_min":23.734375,"x_max":659.234375,"ha":314,"o":"m 162 0 l 162 720 l 284 720 l 284 0 l 162 0 m 50 981 q 233 813 167 922 l 240 788 l 259 756 l 275 709 q 320 505 316 606 q 151 382 200 459 q 142 712 164 600 l 141 734 l 129 782 l 124 815 q 50 981 116 866 m 388 490 q 570 417 495 490 q 645 240 645 343 q 570 64 645 137 q 388 -8 495 -8 q 206 64 282 -8 q 130 240 130 137 q 206 417 130 343 q 388 490 282 490 m 388 362 q 299 328 335 362 q 263 240 263 294 q 297 153 263 185 q 388 120 331 120 q 476 153 440 120 q 512 240 512 187 q 478 329 512 297 q 388 362 443 362 m 23 1124 l 659 1124 l 659 1245 l 23 1245 l 23 1124 "},"|":{"x_min":63.75,"x_max":727.734375,"ha":788,"o":"m 727 919 l 726 902 l 727 897 l 726 888 l 727 843 l 723 832 l 698 833 l 630 832 l 628 834 l 626 832 l 622 832 l 612 833 l 610 832 l 602 833 l 577 832 l 559 830 l 558 832 l 556 832 l 554 830 l 552 830 l 523 833 l 515 832 l 489 831 l 475 832 l 461 831 l 439 832 l 438 830 l 438 829 l 439 820 l 438 809 l 438 808 l 440 801 l 438 800 l 438 794 l 440 794 l 438 783 l 439 748 l 438 741 l 439 735 l 438 733 l 439 731 l 439 729 l 438 720 l 438 718 l 439 718 l 438 706 l 439 655 l 437 652 l 439 651 l 439 629 l 438 623 l 440 615 l 440 603 l 438 571 l 441 569 l 439 557 l 439 531 l 438 529 q 446 507 438 507 q 518 448 447 503 l 523 440 l 485 392 l 481 392 l 443 427 l 436 418 l 440 400 l 438 394 l 440 386 l 439 341 l 442 339 l 442 338 l 439 331 l 442 330 l 440 321 l 440 290 l 439 256 l 441 254 l 444 254 q 508 302 493 275 q 525 324 521 323 l 537 324 l 541 321 l 541 309 q 488 199 542 258 q 437 172 451 172 l 439 151 l 440 107 l 438 97 l 440 92 l 438 75 l 441 68 l 438 10 l 440 4 q 436 -21 438 -18 l 398 -18 l 385 -20 l 385 -18 l 382 -20 l 381 -20 l 359 -19 l 352 -21 l 348 -16 l 347 44 l 349 46 l 347 48 l 348 94 l 347 176 q 268 234 317 175 q 244 319 244 274 q 248 326 246 326 l 250 326 q 297 278 253 326 q 342 258 329 258 l 345 258 l 347 266 l 347 278 l 348 293 l 346 302 l 347 304 l 347 305 l 346 307 l 347 319 l 346 391 l 348 393 l 346 394 l 347 404 l 347 499 l 266 560 l 259 569 q 300 619 293 617 l 345 584 l 348 584 l 347 604 l 349 612 l 347 618 l 349 641 l 349 644 l 347 644 l 348 656 l 347 704 l 349 719 l 347 727 l 348 758 l 348 762 l 347 762 l 348 774 l 347 815 l 349 826 l 347 830 l 315 830 l 313 832 l 311 830 l 234 830 l 219 830 l 217 832 l 212 830 l 183 831 l 178 829 l 162 830 l 77 831 l 65 829 l 63 830 l 63 832 l 63 919 l 65 921 l 67 921 l 111 920 l 118 921 l 120 918 l 122 921 l 123 921 l 130 918 l 132 921 l 144 919 l 229 921 l 240 919 l 242 921 l 262 919 l 347 921 l 349 929 l 348 952 l 349 971 l 348 972 l 348 974 l 349 1001 l 349 1026 l 345 1029 l 315 1028 l 313 1030 l 311 1028 l 295 1028 l 278 1029 l 263 1027 l 261 1027 l 257 1032 l 256 1064 l 257 1075 l 256 1077 l 257 1085 l 257 1106 l 260 1109 l 320 1110 l 322 1108 l 323 1110 l 345 1111 q 348 1160 349 1127 l 347 1205 l 351 1208 l 360 1208 l 381 1207 l 390 1209 l 395 1207 l 411 1209 l 413 1209 l 422 1207 l 431 1210 l 433 1210 l 436 1206 l 435 1160 l 434 1159 l 434 1157 l 437 1151 l 434 1122 l 436 1121 l 436 1119 l 434 1114 l 439 1111 l 484 1112 l 491 1113 l 498 1112 l 507 1112 l 515 1114 q 531 1107 531 1112 l 531 1095 l 533 1062 l 531 1061 l 531 1059 l 533 1044 l 533 1037 l 526 1030 l 489 1030 l 482 1031 l 475 1029 l 457 1029 l 439 1030 q 434 1027 439 1027 l 438 1011 l 439 946 l 437 945 l 439 943 l 436 923 l 446 919 l 453 921 l 471 920 l 533 921 l 535 919 l 541 921 l 571 920 l 578 921 l 596 920 l 631 921 l 638 919 l 639 921 l 665 920 l 723 921 l 725 919 l 727 919 "},"§":{"x_min":67.828125,"x_max":665.34375,"ha":746,"o":"m 373 1016 q 634 863 536 1016 q 665 731 665 798 l 665 715 q 643 601 661 649 q 524 476 583 499 q 480 456 506 461 q 373 392 446 392 l 360 392 q 320 406 320 400 q 289 394 305 404 l 280 397 q 254 364 280 386 q 223 274 223 322 q 274 179 223 228 q 366 149 317 149 l 375 149 q 425 162 399 149 q 496 280 496 196 q 465 355 486 318 l 465 357 q 549 427 478 373 q 577 443 561 443 q 652 289 652 366 l 652 259 l 654 250 q 613 135 654 206 q 467 21 562 56 q 388 1 404 1 q 202 45 263 1 q 115 124 166 63 q 67 247 82 161 l 67 256 q 126 452 67 387 q 241 535 184 520 l 265 546 q 381 628 297 628 q 432 614 397 628 l 434 614 q 487 674 468 632 q 498 729 498 703 q 432 845 498 802 q 364 858 400 858 q 269 808 297 844 q 245 720 245 776 l 245 718 l 243 715 q 271 643 250 672 l 276 638 l 153 559 l 147 559 q 92 665 123 581 l 80 724 l 80 788 q 111 874 89 829 q 278 1005 167 966 q 373 1016 306 1016 m 331 502 q 375 465 331 472 q 421 513 411 465 q 381 553 413 553 l 370 553 q 331 513 331 541 l 331 502 m 461 -35 l 463 -37 l 463 -40 l 461 -42 l 459 -42 l 456 -40 l 456 -37 l 459 -35 l 461 -35 "},"ϋ":{"x_min":92,"x_max":669,"ha":706,"o":"m 92 720 l 215 720 l 215 294 q 252 149 215 205 q 380 85 295 85 q 472 113 429 85 q 532 187 514 141 q 548 303 548 228 l 548 720 l 669 720 l 669 298 q 597 70 669 151 q 377 -16 522 -16 q 225 20 293 -16 q 118 133 150 60 q 92 293 92 192 l 92 720 m 205 861 l 205 1000 l 333 1000 l 333 861 l 205 861 m 457 861 l 457 1000 l 585 1000 l 585 861 l 457 861 "},"љ":{"x_min":67.828125,"x_max":594.125,"ha":678,"o":"m 372 1220 q 421 1167 400 1213 q 432 1113 425 1123 l 430 1112 l 430 1110 q 501 1022 451 1049 q 583 993 537 1003 l 594 989 l 594 985 q 588 977 590 977 l 579 981 l 573 975 l 564 977 l 542 973 l 534 975 l 514 973 q 417 1011 444 988 q 360 1068 407 1011 q 330 1159 330 1117 q 368 1220 337 1220 l 372 1220 m 265 1028 q 277 1022 277 1026 l 277 981 l 279 959 l 277 944 l 281 940 l 335 942 l 364 942 l 366 940 l 368 940 l 366 920 l 366 900 l 368 892 l 366 890 l 366 888 l 368 851 l 368 845 l 362 838 l 350 841 l 322 838 l 281 838 l 279 832 l 281 827 l 279 827 l 281 825 l 281 823 l 279 807 l 281 801 l 279 763 l 279 754 l 281 736 l 279 734 l 281 724 l 281 629 l 283 570 l 281 570 l 283 568 l 283 566 l 285 297 l 287 255 l 285 253 l 287 240 l 287 101 l 289 69 l 287 67 l 287 65 l 289 52 l 287 44 l 289 42 l 289 40 l 287 33 l 289 16 q 281 -6 289 -6 l 220 -6 l 212 -8 l 204 -6 l 174 -6 q 164 28 164 -6 l 164 33 l 166 35 l 164 37 l 164 73 l 166 75 l 164 78 l 164 93 l 166 95 l 164 97 l 164 145 l 166 147 l 164 148 l 166 178 l 164 242 l 164 245 l 166 245 l 164 259 l 164 366 l 162 380 l 164 380 l 162 382 l 162 383 l 160 596 l 158 597 l 158 599 l 160 607 l 160 609 l 158 657 l 160 659 l 158 668 l 158 821 q 154 831 158 831 l 99 829 l 97 831 l 95 831 l 83 829 l 75 829 l 67 836 l 67 894 l 69 906 l 67 916 l 67 922 q 91 933 70 933 l 145 933 q 156 940 155 933 l 156 981 l 154 999 l 156 1001 l 156 1003 l 154 1015 l 154 1019 q 180 1026 154 1025 l 253 1026 l 265 1028 "},"й":{"x_min":48.671875,"x_max":919.96875,"ha":926,"o":"m 643 1049 q 578 1008 608 1050 q 550 928 548 966 q 631 791 557 844 q 839 735 710 735 q 919 735 923 738 q 831 759 875 747 q 742 809 772 777 q 695 937 700 853 q 697 966 694 945 q 699 996 699 987 q 643 1049 699 1047 m 128 745 l 237 696 q 175 350 169 519 q 214 167 179 220 q 312 121 244 122 q 426 168 362 119 l 500 74 q 306 -11 426 -11 q 131 87 205 -11 q 49 355 53 191 q 128 745 43 565 m 598 181 l 539 278 q 613 482 613 358 q 561 620 612 611 q 482 465 489 615 q 526 274 478 390 q 678 124 587 129 q 767 184 733 121 l 847 101 q 675 -6 787 -6 q 470 128 571 -6 q 365 419 367 266 q 418 660 362 569 q 552 745 471 745 q 678 675 627 745 q 731 511 727 608 q 598 181 739 283 "},"q":{"x_min":69.859375,"x_max":498.5,"ha":575,"o":"m 497 -24 l 72 -24 l 72 572 l 165 572 l 165 52 l 498 52 l 497 -24 m 493 488 l 163 488 l 163 573 l 493 573 l 493 488 m 495 647 l 69 647 l 69 1244 l 162 1244 l 162 725 l 495 724 l 495 647 m 491 1157 l 160 1157 l 160 1243 l 491 1243 l 491 1157 "},"b":{"x_min":69.859375,"x_max":1091.265625,"ha":1154,"o":"m 579 1022 q 942 872 793 1022 q 1091 510 1091 722 q 941 150 1091 299 q 579 1 792 1 q 219 150 368 1 q 69 510 69 299 q 218 872 69 722 q 579 1022 366 1022 m 579 882 q 317 774 425 882 q 209 512 209 666 q 317 250 209 358 q 579 142 425 142 q 840 250 732 142 q 948 512 948 358 q 841 774 948 666 q 579 882 733 882 m 522 155 l 522 863 l 649 863 l 649 155 l 522 155 m 485 1148 q 517 1224 485 1193 q 593 1256 548 1256 q 669 1224 638 1256 q 701 1148 701 1193 q 669 1071 701 1103 q 593 1040 638 1040 q 517 1071 548 1040 q 485 1148 485 1103 "},"ύ":{"x_min":92,"x_max":669,"ha":707,"o":"m 92 720 l 215 720 l 215 294 q 252 149 215 205 q 380 85 295 85 q 472 113 429 85 q 532 187 514 141 q 548 303 548 228 l 548 720 l 669 720 l 669 298 q 597 70 669 151 q 377 -16 522 -16 q 225 20 293 -16 q 118 133 150 60 q 92 293 92 192 l 92 720 m 299 810 l 389 1000 l 549 1000 l 400 810 l 299 810 "},"Ж":{"x_min":45,"x_max":875.828125,"ha":924,"o":"m 79 1037 l 222 1020 q 200 836 200 906 q 203 783 200 807 q 237 672 211 725 q 312 596 270 607 l 173 537 q 51 758 74 611 q 45 851 45 805 q 79 1037 45 942 m 470 662 q 559 603 480 619 q 588 659 574 631 q 607 744 607 701 q 455 931 607 931 q 348 870 398 931 q 297 733 295 807 q 325 627 298 669 q 363 583 344 605 q 187 520 246 555 q 51 323 67 450 q 45 224 45 273 q 93 -18 45 84 l 260 13 q 211 227 211 125 q 213 272 211 249 q 254 408 222 368 q 373 461 290 451 q 387 461 380 461 q 507 301 491 461 q 496 253 510 276 q 472 233 483 235 q 430 252 446 229 q 418 299 417 271 q 435 360 419 337 q 458 389 447 375 q 425 432 451 406 q 370 446 423 433 q 324 403 347 425 q 297 288 291 360 q 367 156 302 200 q 472 124 414 124 q 570 162 530 124 q 619 304 623 210 q 585 421 615 374 q 543 473 564 447 q 569 472 557 472 q 850 802 820 472 q 851 835 851 817 q 831 988 851 905 q 805 1064 814 1064 l 666 1034 q 699 813 700 895 q 671 666 696 724 q 558 587 635 581 q 418 758 418 598 q 435 803 418 794 q 455 807 445 805 q 477 800 466 804 q 492 760 491 791 q 485 702 493 729 q 470 662 477 682 m 624 451 q 669 422 650 443 q 722 265 714 371 q 723 242 723 254 q 679 30 723 162 l 829 -1 q 875 272 875 128 q 764 514 875 417 q 701 470 723 479 q 624 451 671 463 "}}}
